# Blender v3.3.1 OBJ File: 'cell3.2.blend'
# www.blender.org
mtllib cell3.2.mtl
o floor_Cube
v 6.000000 0.155984 -6.464259
v 6.000000 -0.238333 -6.464259
v 6.000000 0.155984 6.464259
v 6.000000 -0.238333 6.464259
v -6.000000 0.155984 -6.464259
v -6.000000 -0.238333 -6.464259
v -6.000000 0.155984 6.464259
v -6.000000 -0.238333 6.464259
vt 0.721054 0.119631
vt 0.656284 0.184401
vt 0.656284 0.119631
vt 0.591514 0.249171
vt 0.591514 0.184401
vt 0.656284 -0.009909
vt 0.591514 0.054861
vt 0.591514 -0.009909
vt 0.591514 0.119631
vt 0.526743 0.184401
vt 0.526743 0.119631
vt 0.656284 0.054861
vt 0.721054 0.184401
vt 0.656284 0.249171
vn 0.0000 1.0000 0.0000
vn 0.0000 0.0000 1.0000
vn -1.0000 0.0000 0.0000
vn 0.0000 -1.0000 0.0000
vn 1.0000 0.0000 0.0000
vn 0.0000 0.0000 -1.0000
usemtl Material
s off
f 5/1/1 3/2/1 1/3/1
f 3/2/2 8/4/2 4/5/2
f 7/6/3 6/7/3 8/8/3
f 2/9/4 8/10/4 6/11/4
f 1/3/5 4/5/5 2/9/5
f 5/12/6 2/9/6 6/7/6
f 5/1/1 7/13/1 3/2/1
f 3/2/2 7/14/2 8/4/2
f 7/6/3 5/12/3 6/7/3
f 2/9/4 4/5/4 8/10/4
f 1/3/5 3/2/5 4/5/5
f 5/12/6 1/3/6 2/9/6
o Cube_Cube.018
v -1.989870 9.446898 1.989870
v -0.976089 10.445200 0.976089
v -1.989870 9.446898 -1.989870
v -0.976089 10.445200 -0.976089
v 1.989870 9.446898 1.989870
v 0.976089 10.445200 0.976089
v 1.989870 9.446898 -1.989870
v 0.976089 10.445200 -0.976089
v -6.262040 7.618098 -6.262040
v -6.262040 7.618098 6.262040
v 6.262040 7.618098 -6.262040
v 6.262040 7.618098 6.262040
v -6.262040 7.618098 -6.262040
v -6.262040 7.618098 6.262040
v 6.262040 7.618098 -6.262040
v 6.262040 7.618098 6.262040
vt 0.991237 0.352605
vt 0.914662 0.351762
vt 0.914662 0.352605
vt 0.991237 0.351762
vt 0.914202 0.276536
vt 0.991237 0.276156
vt 0.914202 0.353111
vt 0.991237 0.352732
vt 0.914662 0.276746
vt 0.929394 0.292124
vt 0.973638 0.337523
vt 0.973638 0.292124
vt 0.914367 0.276536
vt 0.988829 0.276536
vt 0.988829 0.353111
vt 0.988829 0.276536
vt 0.914202 0.276536
vt 0.914202 0.353111
vt 0.988829 0.353111
vt 0.929394 0.337523
vt 0.991237 0.276746
vt 0.914367 0.353111
vn -0.4716 0.8818 0.0000
vn 0.0000 0.8818 -0.4716
vn 0.4716 0.8818 0.0000
vn 0.0000 0.8818 0.4716
vn 0.0000 -1.0000 0.0000
vn 0.0000 1.0000 0.0000
vn 0.0000 0.0000 1.0000
vn 0.3935 -0.9193 0.0000
vn 0.0000 -0.9193 0.3935
vn -0.3935 -0.9193 0.0000
vn 0.0000 -0.9193 -0.3935
usemtl Material.001
s off
f 10/15/7 17/16/7 18/17/7
f 12/18/8 19/19/8 17/16/8
f 16/20/9 20/21/9 19/19/9
f 14/22/10 18/23/10 20/21/10
f 15/24/11 9/25/11 11/26/11
f 12/27/12 14/22/12 16/20/12
f 21/28/13 18/29/13 17/30/13
f 23/31/13 17/30/13 19/19/13
f 24/32/13 19/19/13 20/21/13
f 22/33/13 20/21/13 18/29/13
f 9/25/14 21/28/14 11/26/14
f 11/26/15 23/31/15 15/24/15
f 15/24/16 24/32/16 13/34/16
f 13/34/17 22/33/17 9/25/17
f 10/15/7 12/18/7 17/16/7
f 12/18/8 16/20/8 19/19/8
f 16/20/9 14/22/9 20/21/9
f 14/22/10 10/35/10 18/23/10
f 15/24/11 13/34/11 9/25/11
f 12/27/12 10/36/12 14/22/12
f 21/28/13 22/33/13 18/29/13
f 23/31/13 21/28/13 17/30/13
f 24/32/13 23/31/13 19/19/13
f 22/33/13 24/32/13 20/21/13
f 9/25/14 22/33/14 21/28/14
f 11/26/15 21/28/15 23/31/15
f 15/24/16 23/31/16 24/32/16
f 13/34/17 24/32/17 22/33/17
o Cube.001_Cube.015
v -5.772297 0.039440 6.204687
v -5.772297 7.775887 6.204687
v -5.772297 0.039440 6.046402
v -5.772297 7.775887 6.046402
v -5.614012 0.039440 6.204687
v -5.614012 7.775887 6.204687
v -5.614012 0.039440 6.046402
v -5.614012 7.775887 6.046402
vt 0.930151 0.054032
vt 0.896112 0.088070
vt 0.896112 0.054032
vt 0.930151 0.088070
vt 0.896112 0.122109
vt 0.930151 0.122109
vt 0.896112 0.156148
vt 0.930151 0.156148
vt 0.896112 0.190186
vt 0.862073 0.156148
vt 0.862073 0.122109
vt 0.964189 0.122109
vt 0.930151 0.190186
vt 0.964189 0.156148
vn -1.0000 0.0000 0.0000
vn 0.0000 0.0000 -1.0000
vn 1.0000 0.0000 0.0000
vn 0.0000 0.0000 1.0000
vn 0.0000 -1.0000 0.0000
vn 0.0000 1.0000 0.0000
usemtl Material.006
s off
f 26/37/18 27/38/18 25/39/18
f 28/40/19 31/41/19 27/38/19
f 32/42/20 29/43/20 31/41/20
f 30/44/21 25/45/21 29/43/21
f 31/41/22 25/46/22 27/47/22
f 28/48/23 30/44/23 32/42/23
f 26/37/18 28/40/18 27/38/18
f 28/40/19 32/42/19 31/41/19
f 32/42/20 30/44/20 29/43/20
f 30/44/21 26/49/21 25/45/21
f 31/41/22 29/43/22 25/46/22
f 28/48/23 26/50/23 30/44/23
o Cube.007_Cube.013
v -5.772297 0.039440 -6.022382
v -5.772297 7.775887 -6.022382
v -5.772297 0.039440 -6.180667
v -5.772297 7.775887 -6.180667
v -5.614012 0.039440 -6.022382
v -5.614012 7.775887 -6.022382
v -5.614012 0.039440 -6.180667
v -5.614012 7.775887 -6.180667
vt 0.930151 0.054032
vt 0.896112 0.088070
vt 0.896112 0.054032
vt 0.930151 0.088070
vt 0.896112 0.122109
vt 0.930151 0.122109
vt 0.896112 0.156148
vt 0.930151 0.156148
vt 0.896112 0.190186
vt 0.862073 0.156148
vt 0.862073 0.122109
vt 0.964189 0.122109
vt 0.930151 0.190186
vt 0.964189 0.156148
vn -1.0000 0.0000 0.0000
vn 0.0000 0.0000 -1.0000
vn 1.0000 0.0000 0.0000
vn 0.0000 0.0000 1.0000
vn 0.0000 -1.0000 0.0000
vn 0.0000 1.0000 0.0000
usemtl Material.006
s off
f 34/51/24 35/52/24 33/53/24
f 36/54/25 39/55/25 35/52/25
f 40/56/26 37/57/26 39/55/26
f 38/58/27 33/59/27 37/57/27
f 39/55/28 33/60/28 35/61/28
f 36/62/29 38/58/29 40/56/29
f 34/51/24 36/54/24 35/52/24
f 36/54/25 40/56/25 39/55/25
f 40/56/26 38/58/26 37/57/26
f 38/58/27 34/63/27 33/59/27
f 39/55/28 37/57/28 33/60/28
f 36/62/29 34/64/29 38/58/29
o Cube.008_Cube.016
v 5.589991 0.039440 6.204687
v 5.589991 7.775887 6.204687
v 5.589991 0.039440 6.046402
v 5.589991 7.775887 6.046402
v 5.748276 0.039440 6.204687
v 5.748276 7.775887 6.204687
v 5.748276 0.039440 6.046402
v 5.748276 7.775887 6.046402
vt 0.883310 0.014212
vt 0.827636 0.069887
vt 0.827636 0.014212
vt 0.883310 0.069887
vt 0.827636 0.125561
vt 0.883310 0.125561
vt 0.827636 0.181235
vt 0.883310 0.181235
vt 0.827636 0.236909
vt 0.771962 0.181235
vt 0.771962 0.125561
vt 0.938984 0.125561
vt 0.883310 0.236909
vt 0.938984 0.181235
vn -1.0000 0.0000 0.0000
vn 0.0000 0.0000 -1.0000
vn 1.0000 0.0000 0.0000
vn 0.0000 0.0000 1.0000
vn 0.0000 -1.0000 0.0000
vn 0.0000 1.0000 0.0000
usemtl Material.006
s off
f 42/65/30 43/66/30 41/67/30
f 44/68/31 47/69/31 43/66/31
f 48/70/32 45/71/32 47/69/32
f 46/72/33 41/73/33 45/71/33
f 47/69/34 41/74/34 43/75/34
f 44/76/35 46/72/35 48/70/35
f 42/65/30 44/68/30 43/66/30
f 44/68/31 48/70/31 47/69/31
f 48/70/32 46/72/32 45/71/32
f 46/72/33 42/77/33 41/73/33
f 47/69/34 45/71/34 41/74/34
f 44/76/35 42/78/35 46/72/35
o Cube.009_Cube.017
v 5.589991 0.039440 -6.046404
v 5.589991 7.775887 -6.046404
v 5.589991 0.039440 -6.204689
v 5.589991 7.775887 -6.204689
v 5.748276 0.039440 -6.046404
v 5.748276 7.775887 -6.046404
v 5.748276 0.039440 -6.204689
v 5.748276 7.775887 -6.204689
vt 0.930151 0.054032
vt 0.896112 0.088070
vt 0.896112 0.054032
vt 0.930151 0.088070
vt 0.896112 0.122109
vt 0.930151 0.122109
vt 0.896112 0.156148
vt 0.930151 0.156148
vt 0.896112 0.190186
vt 0.862073 0.156148
vt 0.862073 0.122109
vt 0.964189 0.122109
vt 0.930151 0.190186
vt 0.964189 0.156148
vn -1.0000 0.0000 0.0000
vn 0.0000 0.0000 -1.0000
vn 1.0000 0.0000 0.0000
vn 0.0000 0.0000 1.0000
vn 0.0000 -1.0000 0.0000
vn 0.0000 1.0000 0.0000
usemtl Material.006
s off
f 50/79/36 51/80/36 49/81/36
f 52/82/37 55/83/37 51/80/37
f 56/84/38 53/85/38 55/83/38
f 54/86/39 49/87/39 53/85/39
f 55/83/40 49/88/40 51/89/40
f 52/90/41 54/86/41 56/84/41
f 50/79/36 52/82/36 51/80/36
f 52/82/37 56/84/37 55/83/37
f 56/84/38 54/86/38 53/85/38
f 54/86/39 50/91/39 49/87/39
f 55/83/40 53/85/40 49/88/40
f 52/90/41 50/92/41 54/86/41
o Cube.010_Cube.019
v -1.000000 0.137439 1.000000
v -1.000000 10.054729 1.000000
v -1.000000 0.137439 -1.000000
v -1.000000 10.054729 -1.000000
v 1.000000 0.137439 1.000000
v 1.000000 10.054729 1.000000
v 1.000000 0.137439 -1.000000
v 1.000000 10.054729 -1.000000
vt 0.890152 0.011114
vt 0.833416 0.067850
vt 0.833416 0.011114
vt 0.890152 0.067850
vt 0.833416 0.124587
vt 0.890152 0.124587
vt 0.833416 0.181323
vt 0.890152 0.181323
vt 0.833416 0.238060
vt 0.776680 0.181323
vt 0.776680 0.124587
vt 0.946889 0.124587
vt 0.890152 0.238060
vt 0.946889 0.181323
vn -1.0000 0.0000 0.0000
vn 0.0000 0.0000 -1.0000
vn 1.0000 0.0000 0.0000
vn 0.0000 0.0000 1.0000
vn 0.0000 -1.0000 0.0000
vn 0.0000 1.0000 0.0000
usemtl Material.006
s off
f 58/93/42 59/94/42 57/95/42
f 60/96/43 63/97/43 59/94/43
f 64/98/44 61/99/44 63/97/44
f 62/100/45 57/101/45 61/99/45
f 63/97/46 57/102/46 59/103/46
f 60/104/47 62/100/47 64/98/47
f 58/93/42 60/96/42 59/94/42
f 60/96/43 64/98/43 63/97/43
f 64/98/44 62/100/44 61/99/44
f 62/100/45 58/105/45 57/101/45
f 63/97/46 61/99/46 57/102/46
f 60/104/47 58/106/47 62/100/47
