# Blender v3.3.1 OBJ File: 'cell1.2.blend'
# www.blender.org
mtllib cell1.2.mtl
o Cube_Cube.002
v 1.410746 -0.160776 -1.606579
v 1.410746 1.839224 -1.606579
v 1.410746 -0.160776 0.393421
v 1.410746 1.839224 0.393421
v -0.589254 -0.160776 -1.606579
v -0.589254 1.839224 -1.606579
v -0.589254 -0.160776 0.393421
v -0.589254 1.839224 0.393421
vt 0.622198 0.109797
vt 0.689810 0.177290
vt 0.622257 0.177349
vt 0.689751 0.109738
vt 0.757362 0.177231
vt 0.757303 0.109679
vt 0.824914 0.177172
vt 0.824855 0.109620
vt 0.892467 0.177113
vt 0.824973 0.244724
vt 0.757421 0.244783
vt 0.757244 0.042126
vt 0.892408 0.109561
vt 0.824796 0.042067
vn 1.0000 0.0000 0.0000
vn -0.0000 0.0000 1.0000
vn -1.0000 0.0000 -0.0000
vn 0.0000 0.0000 -1.0000
vn 0.0000 -1.0000 -0.0000
vn 0.0000 1.0000 0.0000
usemtl Material.003
s off
f 2/1/1 3/2/1 1/3/1
f 4/4/2 7/5/2 3/2/2
f 8/6/3 5/7/3 7/5/3
f 6/8/4 1/9/4 5/7/4
f 7/5/5 1/10/5 3/11/5
f 4/12/6 6/8/6 8/6/6
f 2/1/1 4/4/1 3/2/1
f 4/4/2 8/6/2 7/5/2
f 8/6/3 6/8/3 5/7/3
f 6/8/4 2/13/4 1/9/4
f 7/5/5 5/7/5 1/10/5
f 4/12/6 2/14/6 6/8/6
o Cube.002_Cube.003
v -1.952036 0.114650 -6.431746
v -1.952036 2.114650 -6.431746
v -1.952036 0.114650 -4.431746
v -1.952036 2.114650 -4.431746
v -3.952035 0.114650 -6.431746
v -3.952035 2.114650 -6.431746
v -3.952036 0.114650 -4.431746
v -3.952036 2.114650 -4.431746
vt 0.622198 0.109797
vt 0.689810 0.177290
vt 0.622257 0.177349
vt 0.689751 0.109738
vt 0.757362 0.177231
vt 0.757303 0.109679
vt 0.824914 0.177172
vt 0.824855 0.109620
vt 0.892467 0.177113
vt 0.824973 0.244724
vt 0.757421 0.244783
vt 0.757244 0.042126
vt 0.892408 0.109561
vt 0.824796 0.042067
vn 1.0000 0.0000 0.0000
vn 0.0000 0.0000 1.0000
vn -1.0000 0.0000 -0.0000
vn 0.0000 0.0000 -1.0000
vn 0.0000 -1.0000 -0.0000
vn 0.0000 1.0000 0.0000
usemtl Material.003
s off
f 10/15/7 11/16/7 9/17/7
f 12/18/8 15/19/8 11/16/8
f 16/20/9 13/21/9 15/19/9
f 14/22/10 9/23/10 13/21/10
f 15/19/11 9/24/11 11/25/11
f 12/26/12 14/22/12 16/20/12
f 10/15/7 12/18/7 11/16/7
f 12/18/8 16/20/8 15/19/8
f 16/20/9 14/22/9 13/21/9
f 14/22/10 10/27/10 9/23/10
f 15/19/11 13/21/11 9/24/11
f 12/26/12 10/28/12 14/22/12
o Cube.003_Cube.004
v 1.410747 0.112476 -7.777695
v 1.410747 2.112476 -7.777695
v 1.410747 0.112476 -5.777695
v 1.410747 2.112476 -5.777695
v -0.589253 0.112476 -7.777695
v -0.589253 2.112476 -7.777695
v -0.589253 0.112476 -5.777695
v -0.589253 2.112476 -5.777695
vt 0.622198 0.109797
vt 0.689810 0.177290
vt 0.622257 0.177349
vt 0.689751 0.109738
vt 0.757362 0.177231
vt 0.757303 0.109679
vt 0.824914 0.177172
vt 0.824855 0.109620
vt 0.892467 0.177113
vt 0.824973 0.244724
vt 0.757421 0.244783
vt 0.757244 0.042126
vt 0.892408 0.109561
vt 0.824796 0.042067
vn 1.0000 0.0000 0.0000
vn 0.0000 0.0000 1.0000
vn -1.0000 0.0000 -0.0000
vn 0.0000 0.0000 -1.0000
vn 0.0000 -1.0000 -0.0000
vn 0.0000 1.0000 -0.0000
usemtl Material.003
s off
f 18/29/13 19/30/13 17/31/13
f 20/32/14 23/33/14 19/30/14
f 24/34/15 21/35/15 23/33/15
f 22/36/16 17/37/16 21/35/16
f 23/33/17 17/38/17 19/39/17
f 20/40/18 22/36/18 24/34/18
f 18/29/13 20/32/13 19/30/13
f 20/32/14 24/34/14 23/33/14
f 24/34/15 22/36/15 21/35/15
f 22/36/16 18/41/16 17/37/16
f 23/33/17 21/35/17 17/38/17
f 20/40/18 18/42/18 22/36/18
o Cube.004_Cube.005
v 1.112925 2.051621 3.863565
v -7.587410 10.081287 3.863565
v 1.112925 2.051621 5.089846
v -7.587410 10.081286 5.089847
v 0.273306 1.141874 3.863565
v -8.427029 9.171540 3.863565
v 0.273306 1.141874 5.089846
v -8.427029 9.171540 5.089846
vt 0.622198 0.109797
vt 0.689810 0.177290
vt 0.622257 0.177349
vt 0.689751 0.109738
vt 0.757362 0.177231
vt 0.757303 0.109679
vt 0.824914 0.177172
vt 0.824855 0.109620
vt 0.892467 0.177113
vt 0.824973 0.244724
vt 0.757421 0.244783
vt 0.757244 0.042126
vt 0.892408 0.109561
vt 0.824796 0.042067
vn 0.6782 0.7349 0.0000
vn 0.0000 -0.0000 1.0000
vn -0.6782 -0.7349 -0.0000
vn 0.0000 0.0000 -1.0000
vn 0.7349 -0.6782 0.0000
vn -0.7349 0.6782 0.0000
usemtl Material.003
s off
f 26/43/19 27/44/19 25/45/19
f 28/46/20 31/47/20 27/44/20
f 32/48/21 29/49/21 31/47/21
f 30/50/22 25/51/22 29/49/22
f 31/47/23 25/52/23 27/53/23
f 28/54/24 30/50/24 32/48/24
f 26/43/19 28/46/19 27/44/19
f 28/46/20 32/48/20 31/47/20
f 32/48/21 30/50/21 29/49/21
f 30/50/22 26/55/22 25/51/22
f 31/47/23 29/49/23 25/52/23
f 28/54/24 26/56/24 30/50/24
o Plane.001
v 9.311100 0.000000 -8.261832
v -8.489605 0.000000 -8.261834
v 9.311096 0.000000 17.215244
v -8.489609 0.000000 17.215244
vt 0.852279 0.008203
vt 0.618980 0.241502
vt 0.618980 0.008203
vt 0.852279 0.241502
vn 0.0000 1.0000 0.0000
usemtl Material.002
s off
f 34/57/25 35/58/25 33/59/25
f 34/57/25 36/60/25 35/58/25
o Plane.002
v -8.230834 -0.233911 -8.799103
v -8.230840 11.050860 17.258106
v -8.230839 -0.233911 17.258106
v -8.230835 3.478300 -8.799103
v -8.230837 11.050860 -1.219655
v -8.230836 7.840325 -0.662792
v -8.230836 5.706077 -2.330206
v -8.230836 2.638137 -1.519866
vt 0.682674 0.070268
vt 0.740271 0.007047
vt 0.740271 0.233357
vt 0.513961 0.233357
vt 0.513961 0.072875
vt 0.578347 0.077712
vt 0.621148 0.063230
vt 0.665825 0.007047
vn -1.0000 0.0000 -0.0000
usemtl Material.002
s off
f 44/61/26 37/62/26 39/63/26
f 38/64/26 41/65/26 42/66/26
f 42/66/26 43/67/26 39/63/26
f 43/67/26 44/61/26 39/63/26
f 44/61/26 40/68/26 37/62/26
f 39/63/26 38/64/26 42/66/26
o Plane.004
v 9.150479 11.050860 -2.786002
v 9.150480 -0.233911 -2.786002
v 9.150476 11.050860 13.953362
v 9.150477 -0.233911 13.953362
vt 0.985596 0.012854
vt 0.752297 0.246153
vt 0.752297 0.012854
vt 0.985596 0.246153
vn -1.0000 0.0000 -0.0000
usemtl Material.002
s off
f 46/69/27 47/70/27 45/71/27
f 46/69/27 48/72/27 47/70/27
o Plane.005
v 9.311100 10.767598 -8.261832
v 9.311096 10.767598 17.215244
v -8.489609 10.767598 17.215244
v -8.489606 10.767598 0.459699
v 6.392455 10.767598 -6.939089
v -3.827844 10.767598 -0.215322
v -1.609490 10.767598 -2.868945
v 3.418151 10.767598 -1.974561
v 3.934288 10.767598 -4.469408
vt 0.800369 0.078523
vt 0.859636 0.233357
vt 0.633327 0.233357
vt 0.633327 0.007047
vt 0.733324 0.049703
vt 0.710852 0.007047
vt 0.726762 0.027542
vt 0.772166 0.054951
vt 0.859636 0.084519
vn 0.0000 1.0000 0.0000
usemtl Material.002
s off
f 54/73/28 51/74/28 50/75/28
f 50/75/28 49/76/28 56/77/28
f 49/76/28 53/78/28 56/77/28
f 53/78/28 57/79/28 56/77/28
f 56/77/28 55/80/28 54/73/28
f 54/73/28 52/81/28 51/74/28
f 56/77/28 54/73/28 50/75/28
