# Blender v3.3.1 OBJ File: 'cell3.1.blend'
# www.blender.org
mtllib cell3.1.mtl
o floor_Cube
v 6.000000 0.267997 -6.464259
v 6.000000 -0.126320 -6.464259
v 6.000000 0.267997 6.464259
v 6.000000 -0.126320 6.464259
v -6.000000 0.267997 -6.464259
v -6.000000 -0.126320 -6.464259
v -6.000000 0.267997 6.464259
v -6.000000 -0.126320 6.464259
vt 0.721054 0.119631
vt 0.656284 0.184401
vt 0.656284 0.119631
vt 0.591514 0.249171
vt 0.591514 0.184401
vt 0.656284 -0.009909
vt 0.591514 0.054861
vt 0.591514 -0.009909
vt 0.591514 0.119631
vt 0.526743 0.184401
vt 0.526743 0.119631
vt 0.656284 0.054861
vt 0.721054 0.184401
vt 0.656284 0.249171
vn 0.0000 1.0000 0.0000
vn 0.0000 0.0000 1.0000
vn -1.0000 0.0000 0.0000
vn 0.0000 -1.0000 0.0000
vn 1.0000 0.0000 0.0000
vn 0.0000 0.0000 -1.0000
usemtl Material
s off
f 5/1/1 3/2/1 1/3/1
f 3/2/2 8/4/2 4/5/2
f 7/6/3 6/7/3 8/8/3
f 2/9/4 8/10/4 6/11/4
f 1/3/5 4/5/5 2/9/5
f 5/12/6 2/9/6 6/7/6
f 5/1/1 7/13/1 3/2/1
f 3/2/2 7/14/2 8/4/2
f 7/6/3 5/12/3 6/7/3
f 2/9/4 4/5/4 8/10/4
f 1/3/5 3/2/5 4/5/5
f 5/12/6 1/3/6 2/9/6
o Cube_Cube.001
v -1.920417 0.144257 1.613570
v -1.920417 2.144257 1.613570
v -1.920417 0.144257 -1.613570
v -1.920417 2.144257 -1.613570
v 1.920417 0.144257 1.613570
v 1.920417 2.144257 1.613570
v 1.920417 0.144257 -1.613570
v 1.920417 2.144257 -1.613570
vt 0.656284 -0.009909
vt 0.591514 0.054861
vt 0.591514 -0.009909
vt 0.656284 0.054861
vt 0.591514 0.119631
vt 0.656284 0.119631
vt 0.591514 0.184401
vt 0.656284 0.184401
vt 0.591514 0.249171
vt 0.526743 0.184401
vt 0.526743 0.119631
vt 0.721054 0.119631
vt 0.656284 0.249171
vt 0.721054 0.184401
vn -1.0000 0.0000 0.0000
vn 0.0000 0.0000 -1.0000
vn 1.0000 0.0000 0.0000
vn 0.0000 0.0000 1.0000
vn 0.0000 -1.0000 0.0000
vn 0.0000 1.0000 0.0000
usemtl Material
s off
f 10/15/7 11/16/7 9/17/7
f 12/18/8 15/19/8 11/16/8
f 16/20/9 13/21/9 15/19/9
f 14/22/10 9/23/10 13/21/10
f 15/19/11 9/24/11 11/25/11
f 12/26/12 14/22/12 16/20/12
f 10/15/7 12/18/7 11/16/7
f 12/18/8 16/20/8 15/19/8
f 16/20/9 14/22/9 13/21/9
f 14/22/10 10/27/10 9/23/10
f 15/19/11 13/21/11 9/24/11
f 12/26/12 10/28/12 14/22/12
o Cube.001_Cube.002
v -1.920417 5.148306 1.613570
v -1.920417 7.148306 1.613570
v -1.920417 5.148306 -1.613570
v -1.920417 7.148306 -1.613570
v 1.920417 5.148306 1.613570
v 1.920417 7.148306 1.613570
v 1.920417 5.148306 -1.613570
v 1.920417 7.148306 -1.613570
vt 0.656284 -0.009909
vt 0.591514 0.054861
vt 0.591514 -0.009909
vt 0.656284 0.054861
vt 0.591514 0.119631
vt 0.656284 0.119631
vt 0.591514 0.184401
vt 0.656284 0.184401
vt 0.591514 0.249171
vt 0.526743 0.184401
vt 0.526743 0.119631
vt 0.721054 0.119631
vt 0.656284 0.249171
vt 0.721054 0.184401
vn -1.0000 0.0000 0.0000
vn 0.0000 0.0000 -1.0000
vn 1.0000 0.0000 0.0000
vn 0.0000 0.0000 1.0000
vn 0.0000 -1.0000 0.0000
vn 0.0000 1.0000 0.0000
usemtl Material
s off
f 18/29/13 19/30/13 17/31/13
f 20/32/14 23/33/14 19/30/14
f 24/34/15 21/35/15 23/33/15
f 22/36/16 17/37/16 21/35/16
f 23/33/17 17/38/17 19/39/17
f 20/40/18 22/36/18 24/34/18
f 18/29/13 20/32/13 19/30/13
f 20/32/14 24/34/14 23/33/14
f 24/34/15 22/36/15 21/35/15
f 22/36/16 18/41/16 17/37/16
f 23/33/17 21/35/17 17/38/17
f 20/40/18 18/42/18 22/36/18
o Plane.003
v -5.954755 0.344301 -2.405164
v -5.954754 7.150483 -2.405164
v -5.954755 0.344301 -6.533553
v -5.954754 7.150483 -6.533553
vt 0.753439 -0.009909
vt 0.494358 0.249171
vt 0.494358 -0.009909
vt 0.753439 0.249171
vn -1.0000 0.0000 0.0000
usemtl Material
s off
f 26/43/19 27/44/19 25/45/19
f 26/43/19 28/46/19 27/44/19
o Plane.004
v -5.954755 0.344301 6.474605
v -5.954754 7.150483 6.474605
v -5.954755 0.344301 2.346217
v -5.954754 7.150483 2.346217
vt 0.753439 -0.009909
vt 0.494358 0.249171
vt 0.494358 -0.009909
vt 0.753439 0.249171
vn -1.0000 0.0000 0.0000
usemtl Material
s off
f 30/47/20 31/48/20 29/49/20
f 30/47/20 32/50/20 31/48/20
o Plane.005
v -5.954755 4.348221 -2.469397
v -5.954755 7.084939 -2.469397
v -5.954755 4.348221 2.444612
v -5.954755 7.084939 2.444612
vt 0.753439 -0.009909
vt 0.494358 -0.009909
vt 0.494358 0.249171
vt 0.753439 0.249171
vn -1.0000 0.0000 0.0000
usemtl Material
s off
f 34/51/21 33/52/21 35/53/21
f 34/51/21 35/53/21 36/54/21
o Plane.006
v -5.954755 0.351871 -2.469397
v -5.954755 3.088589 -2.469397
v -5.954755 0.351871 2.444612
v -5.954755 3.088589 2.444612
vt 0.753439 -0.009909
vt 0.494358 -0.009909
vt 0.494358 0.249171
vt 0.753439 0.249171
vn -1.0000 0.0000 0.0000
usemtl Material
s off
f 38/55/22 37/56/22 39/57/22
f 38/55/22 39/57/22 40/58/22
o Plane.002_Plane.011
v -2.334144 0.351871 6.405147
v -2.334144 3.088589 6.405147
v 2.579865 0.351871 6.405147
v 2.579865 3.088589 6.405147
vt 0.753439 -0.009909
vt 0.494358 -0.009909
vt 0.494358 0.249171
vt 0.753439 0.249171
vn 0.0000 0.0000 1.0000
usemtl Material
s off
f 42/59/23 41/60/23 43/61/23
f 42/59/23 43/61/23 44/62/23
o Plane.011_Plane.012
v -2.334144 4.348222 6.405147
v -2.334144 7.084940 6.405147
v 2.579865 4.348221 6.405147
v 2.579865 7.084939 6.405147
vt 0.753439 -0.009909
vt 0.494358 -0.009909
vt 0.494358 0.249171
vt 0.753439 0.249171
vn 0.0000 0.0000 1.0000
usemtl Material
s off
f 46/63/24 45/64/24 47/65/24
f 46/63/24 47/65/24 48/66/24
o Plane.012_Plane.013
v 6.609858 0.344301 6.405147
v 6.609859 7.150483 6.405147
v 2.481469 0.344301 6.405147
v 2.481470 7.150484 6.405147
vt 0.753439 -0.009909
vt 0.494358 0.249171
vt 0.494358 -0.009909
vt 0.753439 0.249171
vn -0.0000 0.0000 1.0000
usemtl Material
s off
f 50/67/25 51/68/25 49/69/25
f 50/67/25 52/70/25 51/68/25
o Plane.013_Plane.014
v -2.269912 0.344301 6.405147
v -2.269911 7.150483 6.405147
v -6.398300 0.344301 6.405147
v -6.398299 7.150484 6.405147
vt 0.753439 -0.009909
vt 0.494358 0.249171
vt 0.494358 -0.009909
vt 0.753439 0.249171
vn -0.0000 0.0000 1.0000
usemtl Material
s off
f 54/71/26 55/72/26 53/73/26
f 54/71/26 56/74/26 55/72/26
o Plane.014_Plane.015
v -2.269912 0.344301 -6.407345
v -2.269911 7.150483 -6.407345
v -6.398300 0.344301 -6.407345
v -6.398299 7.150484 -6.407345
vt 0.753439 -0.009909
vt 0.494358 0.249171
vt 0.494358 -0.009909
vt 0.753439 0.249171
vn 0.0000 0.0000 1.0000
usemtl Material
s off
f 58/75/27 59/76/27 57/77/27
f 58/75/27 60/78/27 59/76/27
o Plane.015_Plane.016
v 6.609858 0.344301 -6.407345
v 6.609859 7.150483 -6.407345
v 2.481469 0.344301 -6.407345
v 2.481470 7.150484 -6.407345
vt 0.753439 -0.009909
vt 0.494358 0.249171
vt 0.494358 -0.009909
vt 0.753439 0.249171
vn 0.0000 0.0000 1.0000
usemtl Material
s off
f 62/79/28 63/80/28 61/81/28
f 62/79/28 64/82/28 63/80/28
o Plane.016_Plane.017
v -2.334144 4.348222 -6.407345
v -2.334144 7.084940 -6.407345
v 2.579865 4.348221 -6.407345
v 2.579865 7.084939 -6.407345
vt 0.753439 -0.009909
vt 0.494358 -0.009909
vt 0.494358 0.249171
vt 0.753439 0.249171
vn -0.0000 0.0000 1.0000
usemtl Material
s off
f 66/83/29 65/84/29 67/85/29
f 66/83/29 67/85/29 68/86/29
o Plane.017_Plane.018
v -2.334144 0.351871 -6.407345
v -2.334144 3.088589 -6.407345
v 2.579865 0.351871 -6.407345
v 2.579865 3.088589 -6.407345
vt 0.753439 -0.009909
vt 0.494358 -0.009909
vt 0.494358 0.249171
vt 0.753439 0.249171
vn 0.0000 0.0000 1.0000
usemtl Material
s off
f 70/87/30 69/88/30 71/89/30
f 70/87/30 71/89/30 72/90/30
o floor.001_Cube.004
v 6.000000 7.664946 -6.464259
v 6.000000 7.270629 -6.464259
v 6.000000 7.664946 6.464259
v 6.000000 7.270629 6.464259
v -6.000000 7.664946 -6.464259
v -6.000000 7.270629 -6.464259
v -6.000000 7.664946 6.464259
v -6.000000 7.270629 6.464259
vt 0.721054 0.119631
vt 0.656284 0.184401
vt 0.656284 0.119631
vt 0.591514 0.249171
vt 0.591514 0.184401
vt 0.656284 -0.009909
vt 0.591514 0.054861
vt 0.591514 -0.009909
vt 0.591514 0.119631
vt 0.526743 0.184401
vt 0.526743 0.119631
vt 0.656284 0.054861
vt 0.721054 0.184401
vt 0.656284 0.249171
vn 0.0000 1.0000 0.0000
vn 0.0000 0.0000 1.0000
vn -1.0000 0.0000 0.0000
vn 0.0000 -1.0000 0.0000
vn 1.0000 0.0000 0.0000
vn 0.0000 0.0000 -1.0000
usemtl Material.002
s off
f 77/91/31 75/92/31 73/93/31
f 75/92/32 80/94/32 76/95/32
f 79/96/33 78/97/33 80/98/33
f 74/99/34 80/100/34 78/101/34
f 73/93/35 76/95/35 74/99/35
f 77/102/36 74/99/36 78/97/36
f 77/91/31 79/103/31 75/92/31
f 75/92/32 79/104/32 80/94/32
f 79/96/33 77/102/33 78/97/33
f 74/99/34 76/95/34 80/100/34
f 73/93/35 75/92/35 76/95/35
f 77/102/36 73/93/36 74/99/36
