# Blender v3.3.1 OBJ File: 'cell3.2.blend'
# www.blender.org
o Cube.003_Cube.007
v -1.094164 0.480791 0.998743
v -1.094164 9.695120 0.998743
v -1.094164 0.480791 -0.998743
v -1.094164 9.695120 -0.998743
v 1.094164 0.480791 0.998743
v 1.094164 9.695120 0.998743
v 1.094164 0.480791 -0.998743
v 1.094164 9.695120 -0.998743
vt 0.656284 -0.009909
vt 0.591514 0.054861
vt 0.591514 -0.009909
vt 0.656284 0.054861
vt 0.591514 0.119631
vt 0.656284 0.119631
vt 0.591514 0.184401
vt 0.656284 0.184401
vt 0.591514 0.249171
vt 0.526743 0.184401
vt 0.526743 0.119631
vt 0.721054 0.119631
vt 0.656284 0.249171
vt 0.721054 0.184401
vn -1.0000 0.0000 0.0000
vn 0.0000 0.0000 -1.0000
vn 1.0000 0.0000 0.0000
vn 0.0000 0.0000 1.0000
vn 0.0000 -1.0000 0.0000
vn 0.0000 1.0000 0.0000
s off
f 2/1/1 3/2/1 1/3/1
f 4/4/2 7/5/2 3/2/2
f 8/6/3 5/7/3 7/5/3
f 6/8/4 1/9/4 5/7/4
f 7/5/5 1/10/5 3/11/5
f 4/12/6 6/8/6 8/6/6
f 2/1/1 4/4/1 3/2/1
f 4/4/2 8/6/2 7/5/2
f 8/6/3 6/8/3 5/7/3
f 6/8/4 2/13/4 1/9/4
f 7/5/5 5/7/5 1/10/5
f 4/12/6 2/14/6 6/8/6
o floor.002_Cube.005
v 6.000000 7.552933 -6.464259
v 6.000000 7.158616 -6.464259
v 6.000000 7.552933 6.464259
v 6.000000 7.158616 6.464259
v -6.000000 7.552933 -6.464259
v -6.000000 7.158616 -6.464259
v -6.000000 7.552933 6.464259
v -6.000000 7.158616 6.464259
vt 0.721054 0.119631
vt 0.656284 0.184401
vt 0.656284 0.119631
vt 0.591514 0.249171
vt 0.591514 0.184401
vt 0.656284 -0.009909
vt 0.591514 0.054861
vt 0.591514 -0.009909
vt 0.591514 0.119631
vt 0.526743 0.184401
vt 0.526743 0.119631
vt 0.656284 0.054861
vt 0.721054 0.184401
vt 0.656284 0.249171
vn 0.0000 1.0000 0.0000
vn 0.0000 0.0000 1.0000
vn -1.0000 0.0000 0.0000
vn 0.0000 -1.0000 0.0000
vn 1.0000 0.0000 0.0000
vn 0.0000 0.0000 -1.0000
s off
f 13/15/7 11/16/7 9/17/7
f 11/16/8 16/18/8 12/19/8
f 15/20/9 14/21/9 16/22/9
f 10/23/10 16/24/10 14/25/10
f 9/17/11 12/19/11 10/23/11
f 13/26/12 10/23/12 14/21/12
f 13/15/7 15/27/7 11/16/7
f 11/16/8 15/28/8 16/18/8
f 15/20/9 13/26/9 14/21/9
f 10/23/10 12/19/10 16/24/10
f 9/17/11 11/16/11 12/19/11
f 13/26/12 9/17/12 10/23/12
o floor.003_Cube.020
v 6.000000 0.155984 -6.464259
v 6.000000 -0.238333 -6.464259
v 6.000000 0.155984 6.464259
v 6.000000 -0.238333 6.464259
v -6.000000 0.155984 -6.464259
v -6.000000 -0.238333 -6.464259
v -6.000000 0.155984 6.464259
v -6.000000 -0.238333 6.464259
vt 0.721054 0.119631
vt 0.656284 0.184401
vt 0.656284 0.119631
vt 0.591514 0.249171
vt 0.591514 0.184401
vt 0.656284 -0.009909
vt 0.591514 0.054861
vt 0.591514 -0.009909
vt 0.591514 0.119631
vt 0.526743 0.184401
vt 0.526743 0.119631
vt 0.656284 0.054861
vt 0.721054 0.184401
vt 0.656284 0.249171
vn 0.0000 1.0000 0.0000
vn 0.0000 0.0000 1.0000
vn -1.0000 0.0000 0.0000
vn 0.0000 -1.0000 0.0000
vn 1.0000 0.0000 0.0000
vn 0.0000 0.0000 -1.0000
s off
f 21/29/13 19/30/13 17/31/13
f 19/30/14 24/32/14 20/33/14
f 23/34/15 22/35/15 24/36/15
f 18/37/16 24/38/16 22/39/16
f 17/31/17 20/33/17 18/37/17
f 21/40/18 18/37/18 22/35/18
f 21/29/13 23/41/13 19/30/13
f 19/30/14 23/42/14 24/32/14
f 23/34/15 21/40/15 22/35/15
f 18/37/16 20/33/16 24/38/16
f 17/31/17 19/30/17 20/33/17
f 21/40/18 17/31/18 18/37/18
o Cube.002_Cube.021
v 5.589991 0.039440 -6.046404
v 5.589991 7.775887 -6.046404
v 5.589991 0.039440 -6.204689
v 5.589991 7.775887 -6.204689
v 5.748276 0.039440 -6.046404
v 5.748276 7.775887 -6.046404
v 5.748276 0.039440 -6.204689
v 5.748276 7.775887 -6.204689
vt 0.625000 0.000000
vt 0.375000 0.250000
vt 0.375000 0.000000
vt 0.625000 0.250000
vt 0.375000 0.500000
vt 0.625000 0.500000
vt 0.375000 0.750000
vt 0.625000 0.750000
vt 0.375000 1.000000
vt 0.125000 0.750000
vt 0.125000 0.500000
vt 0.875000 0.500000
vt 0.625000 1.000000
vt 0.875000 0.750000
vn -1.0000 0.0000 0.0000
vn 0.0000 0.0000 -1.0000
vn 1.0000 0.0000 0.0000
vn 0.0000 0.0000 1.0000
vn 0.0000 -1.0000 0.0000
vn 0.0000 1.0000 0.0000
s off
f 26/43/19 27/44/19 25/45/19
f 28/46/20 31/47/20 27/44/20
f 32/48/21 29/49/21 31/47/21
f 30/50/22 25/51/22 29/49/22
f 31/47/23 25/52/23 27/53/23
f 28/54/24 30/50/24 32/48/24
f 26/43/19 28/46/19 27/44/19
f 28/46/20 32/48/20 31/47/20
f 32/48/21 30/50/21 29/49/21
f 30/50/22 26/55/22 25/51/22
f 31/47/23 29/49/23 25/52/23
f 28/54/24 26/56/24 30/50/24
o Cube.004_Cube.022
v 5.589991 0.039440 6.204687
v 5.589991 7.775887 6.204687
v 5.589991 0.039440 6.046402
v 5.589991 7.775887 6.046402
v 5.748276 0.039440 6.204687
v 5.748276 7.775887 6.204687
v 5.748276 0.039440 6.046402
v 5.748276 7.775887 6.046402
vt 0.625000 0.000000
vt 0.375000 0.250000
vt 0.375000 0.000000
vt 0.625000 0.250000
vt 0.375000 0.500000
vt 0.625000 0.500000
vt 0.375000 0.750000
vt 0.625000 0.750000
vt 0.375000 1.000000
vt 0.125000 0.750000
vt 0.125000 0.500000
vt 0.875000 0.500000
vt 0.625000 1.000000
vt 0.875000 0.750000
vn -1.0000 0.0000 0.0000
vn 0.0000 0.0000 -1.0000
vn 1.0000 0.0000 0.0000
vn 0.0000 0.0000 1.0000
vn 0.0000 -1.0000 0.0000
vn 0.0000 1.0000 0.0000
s off
f 34/57/25 35/58/25 33/59/25
f 36/60/26 39/61/26 35/58/26
f 40/62/27 37/63/27 39/61/27
f 38/64/28 33/65/28 37/63/28
f 39/61/29 33/66/29 35/67/29
f 36/68/30 38/64/30 40/62/30
f 34/57/25 36/60/25 35/58/25
f 36/60/26 40/62/26 39/61/26
f 40/62/27 38/64/27 37/63/27
f 38/64/28 34/69/28 33/65/28
f 39/61/29 37/63/29 33/66/29
f 36/68/30 34/70/30 38/64/30
o Cube.005_Cube.023
v -5.772297 0.039440 -6.022382
v -5.772297 7.775887 -6.022382
v -5.772297 0.039440 -6.180667
v -5.772297 7.775887 -6.180667
v -5.614012 0.039440 -6.022382
v -5.614012 7.775887 -6.022382
v -5.614012 0.039440 -6.180667
v -5.614012 7.775887 -6.180667
vt 0.625000 0.000000
vt 0.375000 0.250000
vt 0.375000 0.000000
vt 0.625000 0.250000
vt 0.375000 0.500000
vt 0.625000 0.500000
vt 0.375000 0.750000
vt 0.625000 0.750000
vt 0.375000 1.000000
vt 0.125000 0.750000
vt 0.125000 0.500000
vt 0.875000 0.500000
vt 0.625000 1.000000
vt 0.875000 0.750000
vn -1.0000 0.0000 0.0000
vn 0.0000 0.0000 -1.0000
vn 1.0000 0.0000 0.0000
vn 0.0000 0.0000 1.0000
vn 0.0000 -1.0000 0.0000
vn 0.0000 1.0000 0.0000
s off
f 42/71/31 43/72/31 41/73/31
f 44/74/32 47/75/32 43/72/32
f 48/76/33 45/77/33 47/75/33
f 46/78/34 41/79/34 45/77/34
f 47/75/35 41/80/35 43/81/35
f 44/82/36 46/78/36 48/76/36
f 42/71/31 44/74/31 43/72/31
f 44/74/32 48/76/32 47/75/32
f 48/76/33 46/78/33 45/77/33
f 46/78/34 42/83/34 41/79/34
f 47/75/35 45/77/35 41/80/35
f 44/82/36 42/84/36 46/78/36
o Cube.006_Cube.024
v -5.772297 0.039440 6.204687
v -5.772297 7.775887 6.204687
v -5.772297 0.039440 6.046402
v -5.772297 7.775887 6.046402
v -5.614012 0.039440 6.204687
v -5.614012 7.775887 6.204687
v -5.614012 0.039440 6.046402
v -5.614012 7.775887 6.046402
vt 0.625000 0.000000
vt 0.375000 0.250000
vt 0.375000 0.000000
vt 0.625000 0.250000
vt 0.375000 0.500000
vt 0.625000 0.500000
vt 0.375000 0.750000
vt 0.625000 0.750000
vt 0.375000 1.000000
vt 0.125000 0.750000
vt 0.125000 0.500000
vt 0.875000 0.500000
vt 0.625000 1.000000
vt 0.875000 0.750000
vn -1.0000 0.0000 0.0000
vn 0.0000 0.0000 -1.0000
vn 1.0000 0.0000 0.0000
vn 0.0000 0.0000 1.0000
vn 0.0000 -1.0000 0.0000
vn 0.0000 1.0000 0.0000
s off
f 50/85/37 51/86/37 49/87/37
f 52/88/38 55/89/38 51/86/38
f 56/90/39 53/91/39 55/89/39
f 54/92/40 49/93/40 53/91/40
f 55/89/41 49/94/41 51/95/41
f 52/96/42 54/92/42 56/90/42
f 50/85/37 52/88/37 51/86/37
f 52/88/38 56/90/38 55/89/38
f 56/90/39 54/92/39 53/91/39
f 54/92/40 50/97/40 49/93/40
f 55/89/41 53/91/41 49/94/41
f 52/96/42 50/98/42 54/92/42
