<svg version="1.1" viewBox="0.0 0.0 1068.1049868766404 492.1049868766404" fill="none" stroke="none" stroke-linecap="square" stroke-miterlimit="10" xmlns:xlink="http://www.w3.org/1999/xlink" xmlns="http://www.w3.org/2000/svg"><clipPath id="p.0"><path d="m0 0l1068.105 0l0 492.10498l-1068.105 0l0 -492.10498z" clip-rule="nonzero"/></clipPath><g clip-path="url(#p.0)"><path fill="#000000" fill-opacity="0.0" d="m0 0l1068.105 0l0 492.10498l-1068.105 0z" fill-rule="evenodd"/><defs><linearGradient id="p.1" gradientUnits="userSpaceOnUse" gradientTransform="matrix(32.68172110641288 0.0 0.0 32.68172110641288 0.0 0.0)" spreadMethod="pad" x1="32.63823331024444" y1="9.977243540875374" x2="-0.04348779530789617" y2="9.977006375145127"><stop offset="0.0" stop-color="#999999" stop-opacity="0.0"/><stop offset="0.34" stop-color="#999999"/><stop offset="0.69" stop-color="#999999"/><stop offset="0.99999994" stop-color="#999999" stop-opacity="0.0"/><stop offset="1.0" stop-color="#ffffff" stop-opacity="0.0"/></linearGradient></defs><path fill="url(#p.1)" d="m-1.4212562 326.0735l1068.0945 0l0 56.0l-1068.0945 0z" fill-rule="evenodd"/><path fill="#000000" fill-opacity="0.5506" d="m17.115486 87.580894l0 0c0 -23.318184 18.903126 -42.221313 42.221317 -42.221313l957.1007 0c11.197754 0 21.93689 4.448303 29.85498 12.366337c7.9179688 7.9180336 12.366333 18.657192 12.366333 29.854977l0 168.88019c0 23.318207 -18.903198 42.221313 -42.221313 42.221313l-957.1007 0c-23.318192 0 -42.221317 -18.903107 -42.221317 -42.221313z" fill-rule="evenodd"/><path stroke="#ffffff" stroke-width="12.0" stroke-linejoin="round" stroke-linecap="butt" d="m17.115486 87.580894l0 0c0 -23.318184 18.903126 -42.221313 42.221317 -42.221313l957.1007 0c11.197754 0 21.93689 4.448303 29.85498 12.366337c7.9179688 7.9180336 12.366333 18.657192 12.366333 29.854977l0 168.88019c0 23.318207 -18.903198 42.221313 -42.221313 42.221313l-957.1007 0c-23.318192 0 -42.221317 -18.903107 -42.221317 -42.221313z" fill-rule="evenodd"/><g filter="url(#shadowFilter-p.2)"><use xlink:href="#p.2" transform=""/></g><defs><filter id="shadowFilter-p.2" filterUnits="userSpaceOnUse"><feGaussianBlur in="SourceAlpha" stdDeviation="4.0" result="blur"/><feComponentTransfer in="blur" color-interpolation-filters="sRGB"><feFuncR type="linear" slope="0" intercept="1.0"/><feFuncG type="linear" slope="0" intercept="1.0"/><feFuncB type="linear" slope="0" intercept="0.0"/><feFuncA type="linear" slope="0.48" intercept="0"/></feComponentTransfer></filter></defs><g id="p.2"><path fill="#ff6100" d="m71.507454 114.66678l0 22.332184l40.739212 0l-43.065506 70.020706l0 22.332184l74.499535 0l0 -22.332184l-41.815117 0l43.065514 -70.020706l0 -22.332184z" fill-rule="evenodd"/><path fill="#ff6100" d="m198.3432 136.99896c1.5508575 0 2.6849213 0.32955933 3.4022064 0.9886627c0.71728516 0.63972473 1.0759125 1.6186981 1.0759125 2.9369202l0 21.605225l0 40.564316c0 1.2988281 -0.35862732 2.2778015 -1.0759125 2.9369202c-0.71728516 0.6591034 -1.8513489 0.9886627 -3.4022064 0.9886627l-7.502304 0c-1.5508423 0 -2.6849213 -0.32955933 -3.4021912 -0.9886627c-0.69789124 -0.6591034 -1.0468445 -1.6380768 -1.0468445 -2.9369202l0 -40.564316l0 -21.605225c0 -1.318222 0.34895325 -2.2971954 1.0468445 -2.9369202c0.7172699 -0.6591034 1.8513489 -0.9886627 3.4021912 -0.9886627zm-16.981949 -22.332184c-9.518402 0 -16.274338 2.0257874 -20.267822 6.0773773c-3.9934692 4.0322037 -5.990204 9.382614 -5.990204 16.051254l0 25.73436l0 44.664368c0 6.66864 1.9967346 12.028763 5.990204 16.080338c3.993454 4.05159 10.74939 6.0773773 20.267822 6.0773773l26.461594 0c9.518402 0 16.274338 -2.0257874 20.267822 -6.0773773c3.9934692 -4.05159 5.990204 -9.411713 5.990204 -16.080338l0 -44.664368l0 -25.73436c0 -6.66864 -1.9967346 -12.019051 -5.990204 -16.051254c-3.993454 -4.05159 -10.74939 -6.0773773 -20.267822 -6.0773773z" fill-rule="evenodd"/><path fill="#ff6100" d="m247.84389 114.66678l0 114.685074l27.857376 0l0 -72.52144l14.132233 47.688522l21.43097 0l14.277618 -48.066544l0 72.89946l27.711975 0l0 -114.685074l-34.138367 0l-18.581268 61.268112l-18.581268 -61.268112z" fill-rule="evenodd"/><path fill="#ff6100" d="m411.13452 135.1961c1.5508728 0 2.675232 0.32954407 3.373108 0.9886627c0.71728516 0.65911865 1.0759277 1.638092 1.0759277 2.9369202l0 18.58107c0 1.318222 -0.35864258 2.3068848 -1.0759277 2.9659882c-0.697876 0.63972473 -1.8222351 0.9595947 -3.373108 0.9595947l-12.852783 0l0 -26.432236zm0 46.99063c1.5508728 0 2.675232 0.32957458 3.373108 0.988678c0.71728516 0.6591034 1.0759277 1.6380615 1.0759277 2.936905l0 18.755554c0 1.318222 -0.35864258 2.3068848 -1.0759277 2.9659882c-0.697876 0.63972473 -1.8222351 0.9595947 -3.373108 0.9595947l-12.852783 0l0 -26.60672zm-43.58893 -67.51996l0 114.685074l52.516083 0c9.537781 0 16.293732 -2.0257874 20.267822 -6.0773773c3.9934692 -4.05159 5.990204 -9.411713 5.990204 -16.080338l0 -17.156235c0 -4.5168457 -0.5621948 -8.326111 -1.686554 -11.427795c-1.1243896 -3.1016998 -3.4216003 -5.4279633 -6.8916626 -6.9788055c3.4700623 -1.8997955 5.767273 -4.574997 6.8916626 -8.025635c1.1243591 -3.4506378 1.686554 -7.5022125 1.686554 -12.154755l0 -14.655502c0 -6.66864 -1.9967346 -12.019051 -5.990204 -16.051254c-3.9740906 -4.05159 -10.7300415 -6.0773773 -20.267822 -6.0773773z" fill-rule="evenodd"/><path fill="#ff6100" d="m459.73376 114.66678l0 114.685074l31.259583 0l0 -114.685074z" fill-rule="evenodd"/><path fill="#ff6100" d="m505.2919 114.66678l0 114.685074l70.37033 0l0 -22.332184l-39.11078 0l0 -24.30951l32.33545 0l0 -22.332184l-32.33545 0l0 -23.379013l37.511475 0l0 -22.332184z" fill-rule="evenodd"/><path fill="#ff6100" d="m776.1317 148.7757l8.7855835 41.262207l-17.839294 0l9.053711 -41.262207zm-196.00134 -34.108917l24.309753 114.685074l35.91217 0l12.678284 -68.42139l12.678284 68.42139l35.91217 0l24.309753 -114.685074l-30.910645 0l-11.4279175 77.17398l-15.382568 -77.17398l-30.532654 0l-15.382568 77.17398l-9.625061 -77.17398zm177.0711 0l-29.485779 114.685074l30.736145 0l3.7644043 -17.156235l27.418945 0l3.652893 17.156235l31.434082 0l-29.485779 -114.685074z" fill-rule="evenodd"/><path fill="#ff6100" d="m875.47 136.99896c1.5508423 0 2.675232 0.32955933 3.373108 0.9886627c0.71728516 0.63972473 1.0759277 1.6186981 1.0759277 2.9369202l0 22.506653c0 1.2988434 -0.35864258 2.2778168 -1.0759277 2.9369202c-0.697876 0.6591034 -1.8222656 0.9886627 -3.373108 0.9886627l-12.329346 0l0 -30.357819zm-43.58893 -22.332184l0 114.685074l31.259583 0l0 -40.738785l2.0025635 0l18.17804 40.738785l33.585876 0l-21.074219 -41.89621l0 0c4.0056763 -0.996521 7.13385 -2.6365051 9.3845825 -4.9199524c3.9934692 -4.05159 5.9901733 -9.411713 5.9901733 -16.080338l0 -29.659943c0 -6.66864 -1.9967041 -12.019051 -5.9901733 -16.051254c-3.9934692 -4.05159 -10.74939 -6.0773773 -20.267822 -6.0773773z" fill-rule="evenodd"/><path fill="#ff6100" d="m947.9926 114.66678c-9.518372 0 -16.24524 2.0257874 -20.180603 6.0773773c-3.9353027 4.0322037 -5.902954 9.382614 -5.902954 16.051254l0 23.582565c0 6.668625 1.696228 12.096588 5.088745 16.283875c3.4119263 4.1679077 9.760742 6.2518463 19.04657 6.2518463l17.156372 0c1.5314941 0 2.6558838 0.32957458 3.373169 0.988678c0.71728516 0.63972473 1.0758667 1.6186829 1.0758667 2.936905l0 16.254807c0 1.2988281 -0.35858154 2.2778015 -1.0758667 2.9369202c-0.71728516 0.6591034 -1.8416748 0.9886627 -3.373169 0.9886627l-5.205078 0c-1.5314941 0 -2.6558228 -0.32955933 -3.373108 -0.9886627c-0.71728516 -0.6591034 -1.0759277 -1.6380768 -1.0759277 -2.9369202l0 -9.654007l-31.259521 0l0 13.754059c0 6.66864 1.9869995 12.028763 5.9611206 16.080338c3.9934692 4.05159 10.759094 6.0773773 20.296875 6.0773773l24.2807 0c9.537781 0 16.264648 -2.0257874 20.180603 -6.0773773c3.9353027 -4.05159 5.902954 -9.411713 5.902954 -16.080338l0 -23.58255c0 -6.66864 -1.7543945 -11.960907 -5.2632446 -15.876785c-3.50885 -3.9352722 -9.906128 -5.9029083 -19.191895 -5.9029083l-16.807495 0c-1.5508423 0 -2.6849365 -0.32955933 -3.4022217 -0.988678c-0.697876 -0.6591034 -1.046814 -1.6477661 -1.046814 -2.9659882l0 -16.952682c0 -1.318222 0.348938 -2.2971954 1.046814 -2.9369202c0.71728516 -0.6591034 1.8513794 -0.9886627 3.4022217 -0.9886627l5.1760254 0c1.5508423 0 2.6849365 0.32955933 3.4022217 0.9886627c0.71728516 0.63972473 1.0758667 1.6186981 1.0758667 2.9369202l0 9.624939l31.259583 0l0 -13.754074c0 -6.66864 -1.9676514 -12.019051 -5.902954 -16.051254c-3.9159546 -4.05159 -10.642822 -6.0773773 -20.180603 -6.0773773z" fill-rule="evenodd"/><path stroke="#ffff00" stroke-width="2.0" stroke-linejoin="round" stroke-linecap="butt" d="m71.507454 114.66678l0 22.332184l40.739212 0l-43.065506 70.020706l0 22.332184l74.499535 0l0 -22.332184l-41.815117 0l43.065514 -70.020706l0 -22.332184z" fill-rule="evenodd"/><path stroke="#ffff00" stroke-width="2.0" stroke-linejoin="round" stroke-linecap="butt" d="m198.3432 136.99896c1.5508575 0 2.6849213 0.32955933 3.4022064 0.9886627c0.71728516 0.63972473 1.0759125 1.6186981 1.0759125 2.9369202l0 21.605225l0 40.564316c0 1.2988281 -0.35862732 2.2778015 -1.0759125 2.9369202c-0.71728516 0.6591034 -1.8513489 0.9886627 -3.4022064 0.9886627l-7.502304 0c-1.5508423 0 -2.6849213 -0.32955933 -3.4021912 -0.9886627c-0.69789124 -0.6591034 -1.0468445 -1.6380768 -1.0468445 -2.9369202l0 -40.564316l0 -21.605225c0 -1.318222 0.34895325 -2.2971954 1.0468445 -2.9369202c0.7172699 -0.6591034 1.8513489 -0.9886627 3.4021912 -0.9886627zm-16.981949 -22.332184c-9.518402 0 -16.274338 2.0257874 -20.267822 6.0773773c-3.9934692 4.0322037 -5.990204 9.382614 -5.990204 16.051254l0 25.73436l0 44.664368c0 6.66864 1.9967346 12.028763 5.990204 16.080338c3.993454 4.05159 10.74939 6.0773773 20.267822 6.0773773l26.461594 0c9.518402 0 16.274338 -2.0257874 20.267822 -6.0773773c3.9934692 -4.05159 5.990204 -9.411713 5.990204 -16.080338l0 -44.664368l0 -25.73436c0 -6.66864 -1.9967346 -12.019051 -5.990204 -16.051254c-3.993454 -4.05159 -10.74939 -6.0773773 -20.267822 -6.0773773z" fill-rule="evenodd"/><path stroke="#ffff00" stroke-width="2.0" stroke-linejoin="round" stroke-linecap="butt" d="m247.84389 114.66678l0 114.685074l27.857376 0l0 -72.52144l14.132233 47.688522l21.43097 0l14.277618 -48.066544l0 72.89946l27.711975 0l0 -114.685074l-34.138367 0l-18.581268 61.268112l-18.581268 -61.268112z" fill-rule="evenodd"/><path stroke="#ffff00" stroke-width="2.0" stroke-linejoin="round" stroke-linecap="butt" d="m411.13452 135.1961c1.5508728 0 2.675232 0.32954407 3.373108 0.9886627c0.71728516 0.65911865 1.0759277 1.638092 1.0759277 2.9369202l0 18.58107c0 1.318222 -0.35864258 2.3068848 -1.0759277 2.9659882c-0.697876 0.63972473 -1.8222351 0.9595947 -3.373108 0.9595947l-12.852783 0l0 -26.432236zm0 46.99063c1.5508728 0 2.675232 0.32957458 3.373108 0.988678c0.71728516 0.6591034 1.0759277 1.6380615 1.0759277 2.936905l0 18.755554c0 1.318222 -0.35864258 2.3068848 -1.0759277 2.9659882c-0.697876 0.63972473 -1.8222351 0.9595947 -3.373108 0.9595947l-12.852783 0l0 -26.60672zm-43.58893 -67.51996l0 114.685074l52.516083 0c9.537781 0 16.293732 -2.0257874 20.267822 -6.0773773c3.9934692 -4.05159 5.990204 -9.411713 5.990204 -16.080338l0 -17.156235c0 -4.5168457 -0.5621948 -8.326111 -1.686554 -11.427795c-1.1243896 -3.1016998 -3.4216003 -5.4279633 -6.8916626 -6.9788055c3.4700623 -1.8997955 5.767273 -4.574997 6.8916626 -8.025635c1.1243591 -3.4506378 1.686554 -7.5022125 1.686554 -12.154755l0 -14.655502c0 -6.66864 -1.9967346 -12.019051 -5.990204 -16.051254c-3.9740906 -4.05159 -10.7300415 -6.0773773 -20.267822 -6.0773773z" fill-rule="evenodd"/><path stroke="#ffff00" stroke-width="2.0" stroke-linejoin="round" stroke-linecap="butt" d="m459.73376 114.66678l0 114.685074l31.259583 0l0 -114.685074z" fill-rule="evenodd"/><path stroke="#ffff00" stroke-width="2.0" stroke-linejoin="round" stroke-linecap="butt" d="m505.2919 114.66678l0 114.685074l70.37033 0l0 -22.332184l-39.11078 0l0 -24.30951l32.33545 0l0 -22.332184l-32.33545 0l0 -23.379013l37.511475 0l0 -22.332184z" fill-rule="evenodd"/><path stroke="#ffff00" stroke-width="2.0" stroke-linejoin="round" stroke-linecap="butt" d="m776.1317 148.7757l8.7855835 41.262207l-17.839294 0l9.053711 -41.262207zm-196.00134 -34.108917l24.309753 114.685074l35.91217 0l12.678284 -68.42139l12.678284 68.42139l35.91217 0l24.309753 -114.685074l-30.910645 0l-11.4279175 77.17398l-15.382568 -77.17398l-30.532654 0l-15.382568 77.17398l-9.625061 -77.17398zm177.0711 0l-29.485779 114.685074l30.736145 0l3.7644043 -17.156235l27.418945 0l3.652893 17.156235l31.434082 0l-29.485779 -114.685074z" fill-rule="evenodd"/><path stroke="#ffff00" stroke-width="2.0" stroke-linejoin="round" stroke-linecap="butt" d="m875.47 136.99896c1.5508423 0 2.675232 0.32955933 3.373108 0.9886627c0.71728516 0.63972473 1.0759277 1.6186981 1.0759277 2.9369202l0 22.506653c0 1.2988434 -0.35864258 2.2778168 -1.0759277 2.9369202c-0.697876 0.6591034 -1.8222656 0.9886627 -3.373108 0.9886627l-12.329346 0l0 -30.357819zm-43.58893 -22.332184l0 114.685074l31.259583 0l0 -40.738785l2.0025635 0l18.17804 40.738785l33.585876 0l-21.074219 -41.89621l0 0c4.0056763 -0.996521 7.13385 -2.6365051 9.3845825 -4.9199524c3.9934692 -4.05159 5.9901733 -9.411713 5.9901733 -16.080338l0 -29.659943c0 -6.66864 -1.9967041 -12.019051 -5.9901733 -16.051254c-3.9934692 -4.05159 -10.74939 -6.0773773 -20.267822 -6.0773773z" fill-rule="evenodd"/><path stroke="#ffff00" stroke-width="2.0" stroke-linejoin="round" stroke-linecap="butt" d="m947.9926 114.66678c-9.518372 0 -16.24524 2.0257874 -20.180603 6.0773773c-3.9353027 4.0322037 -5.902954 9.382614 -5.902954 16.051254l0 23.582565c0 6.668625 1.696228 12.096588 5.088745 16.283875c3.4119263 4.1679077 9.760742 6.2518463 19.04657 6.2518463l17.156372 0c1.5314941 0 2.6558838 0.32957458 3.373169 0.988678c0.71728516 0.63972473 1.0758667 1.6186829 1.0758667 2.936905l0 16.254807c0 1.2988281 -0.35858154 2.2778015 -1.0758667 2.9369202c-0.71728516 0.6591034 -1.8416748 0.9886627 -3.373169 0.9886627l-5.205078 0c-1.5314941 0 -2.6558228 -0.32955933 -3.373108 -0.9886627c-0.71728516 -0.6591034 -1.0759277 -1.6380768 -1.0759277 -2.9369202l0 -9.654007l-31.259521 0l0 13.754059c0 6.66864 1.9869995 12.028763 5.9611206 16.080338c3.9934692 4.05159 10.759094 6.0773773 20.296875 6.0773773l24.2807 0c9.537781 0 16.264648 -2.0257874 20.180603 -6.0773773c3.9353027 -4.05159 5.902954 -9.411713 5.902954 -16.080338l0 -23.58255c0 -6.66864 -1.7543945 -11.960907 -5.2632446 -15.876785c-3.50885 -3.9352722 -9.906128 -5.9029083 -19.191895 -5.9029083l-16.807495 0c-1.5508423 0 -2.6849365 -0.32955933 -3.4022217 -0.988678c-0.697876 -0.6591034 -1.046814 -1.6477661 -1.046814 -2.9659882l0 -16.952682c0 -1.318222 0.348938 -2.2971954 1.046814 -2.9369202c0.71728516 -0.6591034 1.8513794 -0.9886627 3.4022217 -0.9886627l5.1760254 0c1.5508423 0 2.6849365 0.32955933 3.4022217 0.9886627c0.71728516 0.63972473 1.0758667 1.6186981 1.0758667 2.9369202l0 9.624939l31.259583 0l0 -13.754074c0 -6.66864 -1.9676514 -12.019051 -5.902954 -16.051254c-3.9159546 -4.05159 -10.642822 -6.0773773 -20.180603 -6.0773773z" fill-rule="evenodd"/></g><path fill="#000000" fill-opacity="0.0" d="m13.129759 311.45145l1068.0945 0l0 99.27557l-1068.0945 0z" fill-rule="evenodd"/><path fill="#ffff00" d="m257.89752 359.85956l-5.75 0l-3.796875 -12.8125l0 19.484375l-7.484375 0l0 -30.8125l9.171875 0l4.984375 16.453125l5.0 -16.453125l9.15625 0l0 30.8125l-7.4375 0l0 -19.578125l-3.84375 12.90625zm26.597565 -4.421875l0 -6.140625q0 -0.53125 -0.296875 -0.78125q-0.28125 -0.265625 -0.90625 -0.265625l-0.71875 0l0 -5.671875l3.125 0q3.84375 0 5.328125 1.640625q1.484375 1.625 1.484375 4.3125l0 6.90625l-8.015625 0zm0 4.375l0 -5.0l8.015625 0l0 5.765625q0 2.6875 -1.484375 4.328125q-1.484375 1.625 -5.328125 1.625l-3.125 0l0 -5.65625l0.71875 0q0.625 0 0.90625 -0.265625q0.296875 -0.265625 0.296875 -0.796875zm-3.6875 -10.515625l0 6.140625l-8.015625 0l0 -6.90625q0 -2.6875 1.484375 -4.3125q1.484375 -1.640625 5.328125 -1.640625l3.109375 0l0 5.671875l-0.71875 0q-0.625 0 -0.90625 0.265625q-0.28125 0.25 -0.28125 0.78125zm0 5.515625l0 5.0q0 0.53125 0.28125 0.796875q0.28125 0.265625 0.90625 0.265625l0.71875 0l0 5.65625l-3.109375 0q-3.84375 0 -5.328125 -1.625q-1.484375 -1.640625 -1.484375 -4.328125l0 -5.765625l8.015625 0zm21.494293 -12.234375l2.9375 15.359375l2.875 -15.359375l8.109375 0l-6.140625 23.953125l-9.75 0l-6.140625 -23.953125l8.109375 0zm23.094543 6.671875l0 10.609375q0 0.53125 0.28125 0.796875q0.296875 0.265625 0.921875 0.265625l1.390625 0l0 5.609375l-3.265625 0q-3.84375 0 -5.453125 -1.625q-1.609375 -1.640625 -1.609375 -4.328125l0 -12.046875q0 -2.6875 1.609375 -4.3125q1.609375 -1.640625 5.453125 -1.640625l3.21875 0l0 5.609375l-1.34375 0q-0.625 0 -0.921875 0.265625q-0.28125 0.265625 -0.28125 0.796875zm4.515625 6.390625l0 -6.390625q0 -0.53125 -0.296875 -0.796875q-0.28125 -0.265625 -0.90625 -0.265625l-1.015625 0l0 -5.609375l2.890625 0q3.828125 0 5.4375 1.640625q1.609375 1.625 1.609375 4.3125l0 7.109375l-7.71875 0zm0 4.125l0 -1.34375l7.71875 0l0 2.15625q0 2.6875 -1.609375 4.328125q-1.609375 1.625 -5.4375 1.625l-2.890625 0l0 -5.609375l1.015625 0q0.625 0 0.90625 -0.3125q0.296875 -0.3125 0.296875 -0.84375zm7.71875 -7.484375l0 4.40625l-18.0 0l0 -4.40625l18.0 0zm12.723694 -16.5625l8.390625 0l0 30.8125l-8.390625 0l0 -30.8125zm17.140625 13.484375l0 5.515625l-13.5 0l0 -5.515625l13.5 0zm1.34375 -13.484375l0 6.0l-15.515625 0l0 -6.0l15.515625 0zm14.104431 19.71875l0 -6.140625q0 -0.53125 -0.296875 -0.78125q-0.28125 -0.265625 -0.90625 -0.265625l-0.71875 0l0 -5.671875l3.125 0q3.84375 0 5.328125 1.640625q1.484375 1.625 1.484375 4.3125l0 6.90625l-8.015625 0zm0 4.375l0 -5.0l8.015625 0l0 5.765625q0 2.6875 -1.484375 4.328125q-1.484375 1.625 -5.328125 1.625l-3.125 0l0 -5.65625l0.71875 0q0.625 0 0.90625 -0.265625q0.296875 -0.265625 0.296875 -0.796875zm-3.6875 -10.515625l0 6.140625l-8.015625 0l0 -6.90625q0 -2.6875 1.484375 -4.3125q1.484375 -1.640625 5.328125 -1.640625l3.109375 0l0 5.671875l-0.71875 0q-0.625 0 -0.90625 0.265625q-0.28125 0.25 -0.28125 0.78125zm0 5.515625l0 5.0q0 0.53125 0.28125 0.796875q0.28125 0.265625 0.90625 0.265625l0.71875 0l0 5.65625l-3.109375 0q-3.84375 0 -5.328125 -1.625q-1.484375 -1.640625 -1.484375 -4.328125l0 -5.765625l8.015625 0zm29.228638 -12.46875l0 7.09375l-2.734375 0q-3.03125 0 -3.03125 3.265625l0 1.296875l-0.28125 0l0 -6.28125q0 -1.640625 0.625 -2.828125q0.625 -1.203125 1.8125 -1.875q1.203125 -0.671875 2.890625 -0.671875l0.71875 0zm-5.765625 24.1875l-8.15625 0l0 -23.953125l8.015625 0l0 5.515625l0.140625 -0.953125l0 19.390625zm30.861298 -23.953125l7.5 0l-5.140625 23.953125l-8.109375 0l-2.9375 -14.109375l-2.96875 14.109375l-8.109375 0l-4.859375 -23.953125l7.59375 0l1.765625 15.125l3.125 -15.125l7.15625 0l2.78125 15.03125l2.203125 -15.03125zm17.326447 12.4375l-8.15625 0l0 -6.484375q0 -2.6875 1.484375 -4.3125q1.5 -1.640625 4.90625 -1.640625l0.859375 0q2.25 0 3.375 1.203125q1.140625 1.203125 1.140625 3.21875l0 4.3125l-0.296875 0l0 -1.296875q0 -0.765625 -0.3125 -1.09375q-0.3125 -0.34375 -0.984375 -0.34375l-0.8125 0q-0.625 0 -0.921875 0.265625q-0.28125 0.265625 -0.28125 0.796875l0 5.375zm11.484375 11.515625l-8.171875 0l0 -19.390625l0.15625 0l0 -4.5625l8.015625 0l0 23.953125zm-19.640625 -12.4375l8.15625 0l0 5.375q0 0.53125 0.28125 0.796875q0.296875 0.265625 0.921875 0.265625l0.8125 0q0.671875 0 0.984375 -0.328125q0.3125 -0.34375 0.3125 -1.109375l0 -1.296875l0.296875 0l0 4.3125q0 2.015625 -1.140625 3.21875q-1.125 1.203125 -3.375 1.203125l-0.859375 0q-3.40625 0 -4.90625 -1.625q-1.484375 -1.640625 -1.484375 -4.328125l0 -6.484375zm37.398315 -11.75l0 7.09375l-2.734375 0q-3.03125 0 -3.03125 3.265625l0 1.296875l-0.28125 0l0 -6.28125q0 -1.640625 0.625 -2.828125q0.625 -1.203125 1.8125 -1.875q1.203125 -0.671875 2.890625 -0.671875l0.71875 0zm-5.765625 24.1875l-8.15625 0l0 -23.953125l8.015625 0l0 5.515625l0.140625 -0.953125l0 19.390625zm15.595642 -11.515625l-8.15625 0l0 -6.484375q0 -2.6875 1.484375 -4.3125q1.5 -1.640625 4.90625 -1.640625l0.859375 0q2.25 0 3.375 1.203125q1.140625 1.203125 1.140625 3.21875l0 4.3125l-0.296875 0l0 -1.296875q0 -0.765625 -0.3125 -1.09375q-0.3125 -0.34375 -0.984375 -0.34375l-0.8125 0q-0.625 0 -0.921875 0.265625q-0.28125 0.265625 -0.28125 0.796875l0 5.375zm3.3125 -20.59375l8.171875 0l0 32.109375l-8.015625 0l0 -4.5625l-0.15625 0l0 -27.546875zm-11.46875 19.671875l8.15625 0l0 5.375q0 0.53125 0.28125 0.796875q0.296875 0.265625 0.921875 0.265625l0.8125 0q0.671875 0 0.984375 -0.328125q0.3125 -0.34375 0.3125 -1.109375l0 -1.296875l0.296875 0l0 4.3125q0 2.015625 -1.140625 3.21875q-1.125 1.203125 -3.375 1.203125l-0.859375 0q-3.40625 0 -4.90625 -1.625q-1.484375 -1.640625 -1.484375 -4.328125l0 -6.484375zm23.47644 12.4375l0 -7.875l8.25 0l0 7.875l-8.25 0zm29.852295 -24.234375l0 17.65625q0 0.53125 0.28125 0.796875q0.296875 0.265625 0.921875 0.265625l1.25 0l0 5.515625l-3.796875 0q-3.84375 0 -5.453125 -1.625q-1.59375 -1.640625 -1.59375 -4.328125l0 -18.90625q0 -2.6875 1.59375 -4.3125q1.609375 -1.640625 5.453125 -1.640625l3.796875 0l0 5.515625l-1.25 0q-0.625 0 -0.921875 0.265625q-0.28125 0.265625 -0.28125 0.796875zm4.078125 4.9375l0 -4.9375q0 -0.53125 -0.296875 -0.796875q-0.28125 -0.265625 -0.90625 -0.265625l-1.234375 0l0 -5.515625l3.78125 0q3.84375 0 5.453125 1.640625q1.609375 1.625 1.609375 4.3125l0 5.5625l-8.40625 0zm0 12.71875l0 -4.75l8.40625 0l0 5.375q0 2.6875 -1.609375 4.328125q-1.609375 1.625 -5.453125 1.625l-3.78125 0l0 -5.515625l1.234375 0q0.625 0 0.90625 -0.265625q0.296875 -0.265625 0.296875 -0.796875zm22.994446 -4.515625l0 -6.140625q0 -0.53125 -0.296875 -0.78125q-0.28125 -0.265625 -0.90625 -0.265625l-0.71875 0l0 -5.671875l3.125 0q3.84375 0 5.328125 1.640625q1.484375 1.625 1.484375 4.3125l0 6.90625l-8.015625 0zm0 4.375l0 -5.0l8.015625 0l0 5.765625q0 2.6875 -1.484375 4.328125q-1.484375 1.625 -5.328125 1.625l-3.125 0l0 -5.65625l0.71875 0q0.625 0 0.90625 -0.265625q0.296875 -0.265625 0.296875 -0.796875zm-3.6875 -10.515625l0 6.140625l-8.015625 0l0 -6.90625q0 -2.6875 1.484375 -4.3125q1.484375 -1.640625 5.328125 -1.640625l3.109375 0l0 5.671875l-0.71875 0q-0.625 0 -0.90625 0.265625q-0.28125 0.25 -0.28125 0.78125zm0 5.515625l0 5.0q0 0.53125 0.28125 0.796875q0.28125 0.265625 0.90625 0.265625l0.71875 0l0 5.65625l-3.109375 0q-3.84375 0 -5.328125 -1.625q-1.484375 -1.640625 -1.484375 -4.328125l0 -5.765625l8.015625 0zm23.463074 11.71875l-8.15625 0l0 -23.953125l8.015625 0l0 4.5625l0.140625 0l0 19.390625zm11.46875 0l-8.15625 0l0 -16.890625q0 -0.53125 -0.296875 -0.796875q-0.28125 -0.265625 -0.90625 -0.265625l-0.8125 0q-0.625 0 -0.96875 0.34375q-0.328125 0.328125 -0.328125 1.09375l0 1.296875l-0.28125 0l0 -4.3125q0 -2.015625 1.125 -3.21875q1.125 -1.203125 3.375 -1.203125l0.875 0q3.40625 0 4.890625 1.640625q1.484375 1.625 1.484375 4.3125l0 18.0zm11.27887 -11.515625l-8.15625 0l0 -6.484375q0 -2.6875 1.484375 -4.3125q1.5 -1.640625 4.90625 -1.640625l0.859375 0q2.25 0 3.375 1.203125q1.140625 1.203125 1.140625 3.21875l0 4.3125l-0.296875 0l0 -1.296875q0 -0.765625 -0.3125 -1.09375q-0.3125 -0.34375 -0.984375 -0.34375l-0.8125 0q-0.625 0 -0.921875 0.265625q-0.28125 0.265625 -0.28125 0.796875l0 5.375zm11.484375 17.703125l-8.171875 0l0 -25.578125l0.15625 0l0 -4.5625l8.015625 0l0 30.140625zm-19.640625 -18.625l8.15625 0l0 5.375q0 0.53125 0.28125 0.796875q0.296875 0.265625 0.921875 0.265625l0.8125 0q0.671875 0 0.984375 -0.328125q0.3125 -0.34375 0.3125 -1.109375l0 -1.296875l0.296875 0l0 4.3125q0 2.015625 -1.140625 3.21875q-1.125 1.203125 -3.375 1.203125l-0.859375 0q-3.40625 0 -4.90625 -1.625q-1.484375 -1.640625 -1.484375 -4.328125l0 -6.484375zm23.242065 -11.515625l8.15625 0l0 16.890625q0 0.53125 0.28125 0.796875q0.296875 0.265625 0.921875 0.265625l0.8125 0q0.671875 0 0.984375 -0.328125q0.3125 -0.34375 0.3125 -1.109375l0 -1.296875l0.28125 0l0 4.3125q0 2.015625 -1.125 3.21875q-1.125 1.203125 -3.390625 1.203125l-0.859375 0q-3.40625 0 -4.890625 -1.625q-1.484375 -1.640625 -1.484375 -4.328125l0 -18.0zm11.46875 0l8.15625 0l0 23.953125l-8.015625 0l0 -4.5625l-0.140625 0l0 -19.390625zm19.24768 6.671875l0 10.609375q0 0.53125 0.28125 0.796875q0.296875 0.265625 0.921875 0.265625l1.390625 0l0 5.609375l-3.265625 0q-3.84375 0 -5.453125 -1.625q-1.609375 -1.640625 -1.609375 -4.328125l0 -12.046875q0 -2.6875 1.609375 -4.3125q1.609375 -1.640625 5.453125 -1.640625l3.21875 0l0 5.609375l-1.34375 0q-0.625 0 -0.921875 0.265625q-0.28125 0.265625 -0.28125 0.796875zm4.515625 6.390625l0 -6.390625q0 -0.53125 -0.296875 -0.796875q-0.28125 -0.265625 -0.90625 -0.265625l-1.015625 0l0 -5.609375l2.890625 0q3.828125 0 5.4375 1.640625q1.609375 1.625 1.609375 4.3125l0 7.109375l-7.71875 0zm0 4.125l0 -1.34375l7.71875 0l0 2.15625q0 2.6875 -1.609375 4.328125q-1.609375 1.625 -5.4375 1.625l-2.890625 0l0 -5.609375l1.015625 0q0.625 0 0.90625 -0.3125q0.296875 -0.3125 0.296875 -0.84375zm7.71875 -7.484375l0 4.40625l-18.0 0l0 -4.40625l18.0 0zm17.045532 -9.9375l0 7.09375l-2.734375 0q-3.03125 0 -3.03125 3.265625l0 1.296875l-0.28125 0l0 -6.28125q0 -1.640625 0.625 -2.828125q0.625 -1.203125 1.8125 -1.875q1.203125 -0.671875 2.890625 -0.671875l0.71875 0zm-5.765625 24.1875l-8.15625 0l0 -23.953125l8.015625 0l0 5.515625l0.140625 -0.953125l0 19.390625zm7.923767 0l0 -7.875l8.25 0l0 7.875l-8.25 0zm33.508545 -7.0625l0 -4.359375q0 -0.53125 -0.296875 -0.796875q-0.28125 -0.265625 -0.90625 -0.265625l-4.609375 0q-3.75 0 -5.125 -1.671875q-1.359375 -1.6875 -1.359375 -4.375l0 -6.328125q0 -2.6875 1.578125 -4.3125q1.59375 -1.640625 5.4375 -1.640625l6.578125 0q3.828125 0 5.40625 1.640625q1.59375 1.625 1.59375 4.3125l0 3.6875l-8.40625 0l0 -2.59375q0 -0.515625 -0.28125 -0.78125q-0.28125 -0.265625 -0.90625 -0.265625l-1.390625 0q-0.625 0 -0.921875 0.265625q-0.28125 0.265625 -0.28125 0.78125l0 4.5625q0 0.53125 0.28125 0.796875q0.296875 0.265625 0.921875 0.265625l4.5 0q3.75 0 5.15625 1.59375q1.421875 1.578125 1.421875 4.265625l0 6.328125q0 2.6875 -1.59375 4.328125q-1.578125 1.625 -5.40625 1.625l-6.53125 0q-3.84375 0 -5.453125 -1.625q-1.609375 -1.640625 -1.609375 -4.328125l0 -3.6875l8.40625 0l0 2.578125q0 0.53125 0.28125 0.796875q0.296875 0.265625 0.921875 0.265625l1.390625 0q0.625 0 0.90625 -0.265625q0.296875 -0.265625 0.296875 -0.796875zm11.521179 -16.890625l8.15625 0l0 16.890625q0 0.53125 0.28125 0.796875q0.296875 0.265625 0.921875 0.265625l0.8125 0q0.671875 0 0.984375 -0.328125q0.3125 -0.34375 0.3125 -1.109375l0 -1.296875l0.28125 0l0 4.3125q0 2.015625 -1.125 3.21875q-1.125 1.203125 -3.390625 1.203125l-0.859375 0q-3.40625 0 -4.890625 -1.625q-1.484375 -1.640625 -1.484375 -4.328125l0 -18.0zm11.46875 0l8.15625 0l0 23.953125l-8.015625 0l0 -4.5625l-0.140625 0l0 -19.390625zm25.919556 -0.234375l0 7.09375l-2.734375 0q-3.03125 0 -3.03125 3.265625l0 1.296875l-0.28125 0l0 -6.28125q0 -1.640625 0.625 -2.828125q0.625 -1.203125 1.8125 -1.875q1.203125 -0.671875 2.890625 -0.671875l0.71875 0zm-5.765625 24.1875l-8.15625 0l0 -23.953125l8.015625 0l0 5.515625l0.140625 -0.953125l0 19.390625zm14.111267 -23.953125l2.9375 15.359375l2.875 -15.359375l8.109375 0l-6.140625 23.953125l-9.75 0l-6.140625 -23.953125l8.109375 0zm24.000793 23.953125l-8.15625 0l0 -23.953125l8.15625 0l0 23.953125zm-8.296875 -26.359375l0 -5.75l8.4375 0l0 5.75l-8.4375 0zm18.328125 2.40625l2.9375 15.359375l2.875 -15.359375l8.109375 0l-6.140625 23.953125l-9.75 0l-6.140625 -23.953125l8.109375 0zm23.094543 6.671875l0 10.609375q0 0.53125 0.28125 0.796875q0.296875 0.265625 0.921875 0.265625l1.390625 0l0 5.609375l-3.265625 0q-3.84375 0 -5.453125 -1.625q-1.609375 -1.640625 -1.609375 -4.328125l0 -12.046875q0 -2.6875 1.609375 -4.3125q1.609375 -1.640625 5.453125 -1.640625l3.21875 0l0 5.609375l-1.34375 0q-0.625 0 -0.921875 0.265625q-0.28125 0.265625 -0.28125 0.796875zm4.515625 6.390625l0 -6.390625q0 -0.53125 -0.296875 -0.796875q-0.28125 -0.265625 -0.90625 -0.265625l-1.015625 0l0 -5.609375l2.890625 0q3.828125 0 5.4375 1.640625q1.609375 1.625 1.609375 4.3125l0 7.109375l-7.71875 0zm0 4.125l0 -1.34375l7.71875 0l0 2.15625q0 2.6875 -1.609375 4.328125q-1.609375 1.625 -5.4375 1.625l-2.890625 0l0 -5.609375l1.015625 0q0.625 0 0.90625 -0.3125q0.296875 -0.3125 0.296875 -0.84375zm7.71875 -7.484375l0 4.40625l-18.0 0l0 -4.40625l18.0 0zm3.1236572 14.25l0 -7.875l8.25 0l0 7.875l-8.25 0z" fill-rule="nonzero"/><path fill="#000000" fill-opacity="0.0" d="m13.129759 231.45145l1068.0945 0l0 99.27557l-1068.0945 0z" fill-rule="evenodd"/><path fill="#00ff00" d="m368.5929 251.1402l6.953125 0q1.5625 0 2.28125 0.71875q0.71875 0.71875 0.71875 2.09375l0 5.09375q0 0.796875 -0.328125 1.3125q-0.3125 0.515625 -0.9375 0.671875q0.625 0.15625 0.9375 0.609375q0.328125 0.4375 0.328125 1.25l0 5.46875q0 1.375 -0.71875 2.09375q-0.71875 0.71875 -2.28125 0.71875l-6.953125 0l0 -20.03125zm7.046875 16.828125l0 -4.921875q0 -0.578125 -0.171875 -0.75q-0.171875 -0.1875 -0.78125 -0.1875l-3.171875 0l0 6.796875l3.171875 0q0.609375 0 0.78125 -0.1875q0.171875 -0.203125 0.171875 -0.75zm0 -9.046875l0 -4.578125q0 -0.578125 -0.171875 -0.75q-0.171875 -0.1875 -0.78125 -0.1875l-3.171875 0l0 6.4375l3.171875 0q0.609375 0 0.78125 -0.1875q0.171875 -0.203125 0.171875 -0.734375zm11.619263 6.234375l-2.71875 0l-4.390625 -14.015625l2.953125 0l2.78125 11.046875l2.625 -11.046875l2.9375 0l-4.1875 14.015625zm-2.8125 -1.59375l2.90625 0l0 7.609375l-2.90625 0l0 -7.609375zm21.332672 3.25l-2.625 0l-2.75 -10.265625l0 14.625l-2.53125 0l0 -20.03125l3.171875 0l3.421875 12.421875l3.4375 -12.421875l3.15625 0l0 20.03125l-2.53125 0l0 -14.65625l-2.75 10.296875zm16.355804 -2.609375l0 2.328125l-6.5625 0l0 -2.328125l6.5625 0zm2.53125 6.96875l-2.90625 0l-3.015625 -17.53125l-2.71875 17.53125l-2.90625 0l3.546875 -20.03125l4.1875 0l3.8125 20.03125zm0.8356323 -6.59375l2.90625 0l0 3.328125q0 0.546875 0.1875 0.734375q0.203125 0.1875 0.765625 0.1875l0.9375 0q0.609375 0 0.78125 -0.1875q0.171875 -0.1875 0.171875 -0.734375l0 -16.765625l2.921875 0l0 17.21875q0 1.375 -0.71875 2.09375q-0.71875 0.71875 -2.265625 0.71875l-2.71875 0q-1.53125 0 -2.25 -0.71875q-0.71875 -0.71875 -0.71875 -2.09375l0 -3.78125zm18.391144 0.515625l0 -10.6875q0 -0.578125 -0.171875 -0.75q-0.171875 -0.1875 -0.78125 -0.1875l-1.0625 0l0 -2.328125l1.921875 0q1.5625 0 2.28125 0.71875q0.734375 0.71875 0.734375 2.09375l0 11.140625l-2.921875 0zm0 2.8125l0 -4.15625l2.921875 0l0 4.609375q0 1.375 -0.734375 2.09375q-0.71875 0.71875 -2.28125 0.71875l-2.109375 0l0 -2.34375l1.25 0q0.609375 0 0.78125 -0.1875q0.171875 -0.1875 0.171875 -0.734375zm-3.734375 -13.5l0 10.71875l-2.921875 0l0 -11.171875q0 -1.375 0.71875 -2.09375q0.71875 -0.71875 2.296875 -0.71875l1.921875 0l0 2.328125l-1.0625 0q-0.578125 0 -0.765625 0.1875q-0.1875 0.171875 -0.1875 0.75zm0 9.125l0 4.375q0 0.546875 0.1875 0.734375q0.1875 0.1875 0.765625 0.1875l1.0 0l0 2.34375l-1.859375 0q-1.578125 0 -2.296875 -0.71875q-0.71875 -0.71875 -0.71875 -2.09375l0 -4.828125l2.921875 0zm16.466644 -3.6875l0 -5.4375q0 -0.578125 -0.171875 -0.75q-0.171875 -0.1875 -0.78125 -0.1875l-5.3125 0l0 -2.328125l6.171875 0q1.578125 0 2.296875 0.71875q0.71875 0.71875 0.71875 2.09375l0 6.28125q0 1.40625 -0.71875 2.125q-0.71875 0.71875 -2.296875 0.71875l-5.140625 0l0 -2.3125l4.28125 0q0.609375 0 0.78125 -0.1875q0.171875 -0.1875 0.171875 -0.734375zm-6.65625 -8.703125l2.890625 0l0 20.03125l-2.890625 0l0 -20.03125zm4.046875 10.78125l2.9375 0l3.609375 9.25l-3.125 0l-3.421875 -9.25zm13.265167 -10.78125l2.890625 0l0 20.03125l-2.890625 0l0 -20.03125zm1.421875 20.03125l0 -2.34375l6.421875 0l0 2.34375l-6.421875 0zm8.210144 -20.03125l2.921875 0l0 20.03125l-2.921875 0l0 -20.03125zm7.53125 8.515625l0 2.328125l-5.921875 0l0 -2.328125l5.921875 0zm0.953125 -8.515625l0 2.328125l-6.9375 0l0 -2.328125l6.9375 0zm0.234375 17.6875l0 2.34375l-7.171875 0l0 -2.34375l7.171875 0zm10.007294 -4.625l0 2.328125l-6.5625 0l0 -2.328125l6.5625 0zm2.53125 6.96875l-2.90625 0l-3.015625 -17.53125l-2.71875 17.53125l-2.90625 0l3.546875 -20.03125l4.1875 0l3.8125 20.03125zm4.8043823 -16.828125l0 13.65625q0 0.546875 0.1875 0.75q0.1875 0.1875 0.765625 0.1875l0.890625 0l0 2.265625l-1.78125 0q-1.546875 0 -2.265625 -0.71875q-0.71875 -0.71875 -0.71875 -2.125l0 -14.40625q0 -1.375 0.71875 -2.09375q0.71875 -0.71875 2.265625 -0.71875l1.984375 0l0 2.265625l-1.09375 0q-0.578125 0 -0.765625 0.1875q-0.1875 0.171875 -0.1875 0.75zm6.453125 6.53125l0 2.234375l-4.5 0l0 -2.234375l4.5 0zm-2.90625 -3.875l0 -2.65625q0 -0.578125 -0.203125 -0.75q-0.1875 -0.1875 -0.75 -0.1875l-1.0625 0l0 -2.265625l1.953125 0q1.53125 0 2.25 0.71875q0.71875 0.71875 0.71875 2.09375l0 3.046875l-2.90625 0zm0 11.0l0 -5.59375l2.90625 0l0 5.953125q0 1.40625 -0.71875 2.125q-0.71875 0.71875 -2.25 0.71875l-1.921875 0l0 -2.265625l1.03125 0q0.5625 0 0.75 -0.1875q0.203125 -0.203125 0.203125 -0.75zm12.473999 -0.09375l0 -16.765625l2.921875 0l0 17.21875q0 1.375 -0.71875 2.09375q-0.71875 0.71875 -2.296875 0.71875l-2.109375 0l0 -2.34375l1.28125 0q0.578125 0 0.75 -0.1875q0.171875 -0.1875 0.171875 -0.734375zm-3.734375 -16.765625l0 16.765625q0 0.546875 0.1875 0.734375q0.1875 0.1875 0.765625 0.1875l1.0 0l0 2.34375l-1.859375 0q-1.5625 0 -2.296875 -0.71875q-0.71875 -0.71875 -0.71875 -2.09375l0 -17.21875l2.921875 0zm9.875916 0l2.921875 0l0 20.03125l-2.921875 0l0 -20.03125zm7.53125 8.515625l0 2.328125l-5.921875 0l0 -2.328125l5.921875 0zm0.953125 -8.515625l0 2.328125l-6.9375 0l0 -2.328125l6.9375 0zm0.234375 17.6875l0 2.34375l-7.171875 0l0 -2.34375l7.171875 0zm9.662964 -14.484375l0 13.65625q0 0.546875 0.1875 0.75q0.1875 0.1875 0.765625 0.1875l0.890625 0l0 2.265625l-1.78125 0q-1.546875 0 -2.265625 -0.71875q-0.71875 -0.71875 -0.71875 -2.125l0 -14.40625q0 -1.375 0.71875 -2.09375q0.71875 -0.71875 2.265625 -0.71875l1.984375 0l0 2.265625l-1.09375 0q-0.578125 0 -0.765625 0.1875q-0.1875 0.171875 -0.1875 0.75zm6.453125 6.53125l0 2.234375l-4.5 0l0 -2.234375l4.5 0zm-2.90625 -3.875l0 -2.65625q0 -0.578125 -0.203125 -0.75q-0.1875 -0.1875 -0.75 -0.1875l-1.0625 0l0 -2.265625l1.953125 0q1.53125 0 2.25 0.71875q0.71875 0.71875 0.71875 2.09375l0 3.046875l-2.90625 0zm0 11.0l0 -5.59375l2.90625 0l0 5.953125q0 1.40625 -0.71875 2.125q-0.71875 0.71875 -2.25 0.71875l-1.921875 0l0 -2.265625l1.03125 0q0.5625 0 0.75 -0.1875q0.203125 -0.203125 0.203125 -0.75zm13.661499 -3.796875l0 2.328125l-6.5625 0l0 -2.328125l6.5625 0zm2.53125 6.96875l-2.90625 0l-3.015625 -17.53125l-2.71875 17.53125l-2.90625 0l3.546875 -20.03125l4.1875 0l3.8125 20.03125zm9.945007 -4.359375l-2.625 0l-2.75 -10.265625l0 14.625l-2.53125 0l0 -20.03125l3.171875 0l3.421875 12.421875l3.4375 -12.421875l3.15625 0l0 20.03125l-2.53125 0l0 -14.65625l-2.75 10.296875zm8.605774 -15.671875l2.921875 0l0 20.03125l-2.921875 0l0 -20.03125zm7.53125 8.515625l0 2.328125l-5.921875 0l0 -2.328125l5.921875 0zm0.953125 -8.515625l0 2.328125l-6.9375 0l0 -2.328125l6.9375 0zm0.234375 17.6875l0 2.34375l-7.171875 0l0 -2.34375l7.171875 0zm14.006714 -10.203125l0 -4.28125q0 -0.578125 -0.1875 -0.75q-0.1875 -0.1875 -0.765625 -0.1875l-4.703125 0l0 -2.265625l5.59375 0q1.53125 0 2.25 0.71875q0.734375 0.71875 0.734375 2.09375l0 4.671875l-2.921875 0zm0 9.34375l0 -10.078125l2.921875 0l0 10.46875q0 1.375 -0.734375 2.09375q-0.71875 0.71875 -2.25 0.71875l-5.59375 0l0 -2.265625l4.703125 0q0.578125 0 0.765625 -0.1875q0.1875 -0.203125 0.1875 -0.75zm-7.03125 -16.828125l2.90625 0l0 20.03125l-2.90625 0l0 -20.03125zm13.105896 0l2.921875 0l0 20.03125l-2.921875 0l0 -20.03125zm7.53125 8.515625l0 2.328125l-5.921875 0l0 -2.328125l5.921875 0zm0.953125 -8.515625l0 2.328125l-6.9375 0l0 -2.328125l6.9375 0zm0.234375 17.6875l0 2.34375l-7.171875 0l0 -2.34375l7.171875 0zm9.116638 -17.6875l2.96875 0l-3.609375 20.03125l-4.09375 0l-3.625 -20.03125l2.984375 0l2.6875 17.375l2.6875 -17.375zm4.7886353 0l2.921875 0l0 20.03125l-2.921875 0l0 -20.03125zm7.53125 8.515625l0 2.328125l-5.921875 0l0 -2.328125l5.921875 0zm0.953125 -8.515625l0 2.328125l-6.9375 0l0 -2.328125l6.9375 0zm0.234375 17.6875l0 2.34375l-7.171875 0l0 -2.34375l7.171875 0zm2.2572632 -17.6875l2.890625 0l0 20.03125l-2.890625 0l0 -20.03125zm1.421875 20.03125l0 -2.34375l6.421875 0l0 2.34375l-6.421875 0zm14.710144 -6.078125l0 -10.6875q0 -0.578125 -0.171875 -0.75q-0.171875 -0.1875 -0.78125 -0.1875l-1.0625 0l0 -2.328125l1.921875 0q1.5625 0 2.28125 0.71875q0.734375 0.71875 0.734375 2.09375l0 11.140625l-2.921875 0zm0 2.8125l0 -4.15625l2.921875 0l0 4.609375q0 1.375 -0.734375 2.09375q-0.71875 0.71875 -2.28125 0.71875l-2.109375 0l0 -2.34375l1.25 0q0.609375 0 0.78125 -0.1875q0.171875 -0.1875 0.171875 -0.734375zm-3.734375 -13.5l0 10.71875l-2.921875 0l0 -11.171875q0 -1.375 0.71875 -2.09375q0.71875 -0.71875 2.296875 -0.71875l1.921875 0l0 2.328125l-1.0625 0q-0.578125 0 -0.765625 0.1875q-0.1875 0.171875 -0.1875 0.75zm0 9.125l0 4.375q0 0.546875 0.1875 0.734375q0.1875 0.1875 0.765625 0.1875l1.0 0l0 2.34375l-1.859375 0q-1.578125 0 -2.296875 -0.71875q-0.71875 -0.71875 -0.71875 -2.09375l0 -4.828125l2.921875 0zm16.466614 -3.375l0 -5.75q0 -0.578125 -0.171875 -0.75q-0.171875 -0.1875 -0.78125 -0.1875l-5.3125 0l0 -2.328125l6.171875 0q1.578125 0 2.296875 0.71875q0.71875 0.71875 0.71875 2.09375l0 6.65625q0 1.375 -0.71875 2.09375q-0.71875 0.71875 -2.296875 0.71875l-5.140625 0l0 -2.296875l4.28125 0q0.609375 0 0.78125 -0.1875q0.171875 -0.203125 0.171875 -0.78125zm-6.65625 -9.015625l2.890625 0l0 20.03125l-2.890625 0l0 -20.03125zm20.034302 15.671875l-2.625 0l-2.75 -10.265625l0 14.625l-2.53125 0l0 -20.03125l3.171875 0l3.421875 12.421875l3.4375 -12.421875l3.15625 0l0 20.03125l-2.53125 0l0 -14.65625l-2.75 10.296875zm8.605774 -15.671875l2.921875 0l0 20.03125l-2.921875 0l0 -20.03125zm7.53125 8.515625l0 2.328125l-5.921875 0l0 -2.328125l5.921875 0zm0.953125 -8.515625l0 2.328125l-6.9375 0l0 -2.328125l6.9375 0zm0.234375 17.6875l0 2.34375l-7.171875 0l0 -2.34375l7.171875 0zm9.397888 -17.6875l2.65625 0l0 20.03125l-2.90625 0l-4.234375 -14.4375l0 14.4375l-2.65625 0l0 -20.03125l3.046875 0l4.09375 14.046875l0 -14.046875zm7.838745 0.390625l2.890625 0l0 19.640625l-2.890625 0l0 -19.640625zm6.25 -0.390625l0 2.328125l-9.609375 0l0 -2.328125l9.609375 0z" fill-rule="nonzero"/></g></svg>