<svg version="1.1" viewBox="0.0 0.0 500.0 500.0" fill="none" stroke="none" stroke-linecap="square" stroke-miterlimit="10" xmlns:xlink="http://www.w3.org/1999/xlink" xmlns="http://www.w3.org/2000/svg"><clipPath id="p.0"><path d="m0 0l500.0 0l0 500.0l-500.0 0l0 -500.0z" clip-rule="nonzero"/></clipPath><g clip-path="url(#p.0)"><path fill="#000000" fill-opacity="0.0" d="m0 0l500.0 0l0 500.0l-500.0 0z" fill-rule="evenodd"/><path fill="#000000" fill-opacity="0.0" d="m350.30594 252.25197l115.3071 0" fill-rule="evenodd"/><path stroke="#d9d9d9" stroke-width="24.0" stroke-linejoin="round" stroke-linecap="butt" d="m350.30594 252.25197l115.3071 0" fill-rule="evenodd"/><path fill="#000000" fill-opacity="0.0" d="m250.0 348.71988l0 117.13385" fill-rule="evenodd"/><path stroke="#d9d9d9" stroke-width="24.0" stroke-linejoin="round" stroke-linecap="butt" d="m250.0 348.71988l0 117.13385" fill-rule="evenodd"/><path fill="#000000" fill-opacity="0.0" d="m250.0 31.422573l0 117.13385" fill-rule="evenodd"/><path stroke="#d9d9d9" stroke-width="24.0" stroke-linejoin="round" stroke-linecap="butt" d="m250.0 31.422573l0 117.13385" fill-rule="evenodd"/><path fill="#000000" fill-opacity="0.0" d="m31.31496 252.25197l115.30708 0" fill-rule="evenodd"/><path stroke="#d9d9d9" stroke-width="24.0" stroke-linejoin="round" stroke-linecap="butt" d="m31.31496 252.25197l115.30708 0" fill-rule="evenodd"/><path fill="#000000" fill-opacity="0.0" d="m99.10236 250.0l0 0c0 -83.33847 67.559166 -150.89764 150.89764 -150.89764l0 0c40.02054 0 78.40195 15.898094 106.700745 44.19689c28.298798 28.298798 44.1969 66.68021 44.1969 106.700745l0 0c0 83.33847 -67.55917 150.89764 -150.89764 150.89764l0 0c-83.33847 0 -150.89764 -67.55917 -150.89764 -150.89764z" fill-rule="evenodd"/><path stroke="#000000" stroke-width="24.0" stroke-linejoin="round" stroke-linecap="butt" d="m99.10236 250.0l0 0c0 -83.33847 67.559166 -150.89764 150.89764 -150.89764l0 0c40.02054 0 78.40195 15.898094 106.700745 44.19689c28.298798 28.298798 44.1969 66.68021 44.1969 106.700745l0 0c0 83.33847 -67.55917 150.89764 -150.89764 150.89764l0 0c-83.33847 0 -150.89764 -67.55917 -150.89764 -150.89764z" fill-rule="evenodd"/><path fill="#ffff00" d="m230.44882 248.6378l0 0c0 -9.949829 8.065918 -18.015762 18.015747 -18.015762l0 0c4.778076 0 9.360443 1.8980865 12.739044 5.276703c3.3786316 3.378601 5.276703 7.9609833 5.276703 12.739059l0 0c0 9.949814 -8.065918 18.015732 -18.015747 18.015732l0 0c-9.949829 0 -18.015747 -8.065918 -18.015747 -18.015732z" fill-rule="evenodd"/><path stroke="#000000" stroke-width="12.0" stroke-linejoin="round" stroke-linecap="butt" d="m230.44882 248.6378l0 0c0 -9.949829 8.065918 -18.015762 18.015747 -18.015762l0 0c4.778076 0 9.360443 1.8980865 12.739044 5.276703c3.3786316 3.378601 5.276703 7.9609833 5.276703 12.739059l0 0c0 9.949814 -8.065918 18.015732 -18.015747 18.015732l0 0c-9.949829 0 -18.015747 -8.065918 -18.015747 -18.015732z" fill-rule="evenodd"/></g></svg>