<svg version="1.1" viewBox="0.0 0.0 500.0 500.0" fill="none" stroke="none" stroke-linecap="square" stroke-miterlimit="10" xmlns:xlink="http://www.w3.org/1999/xlink" xmlns="http://www.w3.org/2000/svg"><clipPath id="p.0"><path d="m0 0l500.0 0l0 500.0l-500.0 0l0 -500.0z" clip-rule="nonzero"/></clipPath><g clip-path="url(#p.0)"><path fill="#000000" fill-opacity="0.0" d="m0 0l500.0 0l0 500.0l-500.0 0z" fill-rule="evenodd"/><path fill="#ffffff" d="m35.553745 32.956696l31.54401 2.50465l129.06946 129.06944l2.504654 31.544006l-31.544006 -2.504654l-129.06946 -129.06944z" fill-rule="evenodd"/><path stroke="#000000" stroke-width="12.0" stroke-linejoin="round" stroke-linecap="butt" d="m35.553745 32.956696l31.54401 2.50465l129.06946 129.06944l2.504654 31.544006l-31.544006 -2.504654l-129.06946 -129.06944z" fill-rule="evenodd"/><path fill="#ffffff" d="m301.32803 196.0748l2.5046387 -31.544006l129.06946 -129.06944l31.544006 -2.50465l-2.5046692 31.544006l-129.06943 129.06944z" fill-rule="evenodd"/><path stroke="#000000" stroke-width="12.0" stroke-linejoin="round" stroke-linecap="butt" d="m301.32803 196.0748l2.5046387 -31.544006l129.06946 -129.06944l31.544006 -2.50465l-2.5046692 31.544006l-129.06943 129.06944z" fill-rule="evenodd"/><path fill="#ffffff" d="m301.32803 303.9252l31.544006 2.5046387l129.06943 129.06946l2.5046692 31.544006l-31.544006 -2.5046387l-129.06946 -129.06946z" fill-rule="evenodd"/><path stroke="#000000" stroke-width="12.0" stroke-linejoin="round" stroke-linecap="butt" d="m301.32803 303.9252l31.544006 2.5046387l129.06943 129.06946l2.5046692 31.544006l-31.544006 -2.5046387l-129.06946 -129.06946z" fill-rule="evenodd"/><path fill="#ffffff" d="m198.67186 303.9252l-2.504654 31.544006l-129.06946 129.06946l-31.54401 2.5046387l2.504654 -31.544006l129.06946 -129.06946z" fill-rule="evenodd"/><path stroke="#000000" stroke-width="12.0" stroke-linejoin="round" stroke-linecap="butt" d="m198.67186 303.9252l-2.504654 31.544006l-129.06946 129.06946l-31.54401 2.5046387l2.504654 -31.544006l129.06946 -129.06946z" fill-rule="evenodd"/></g></svg>