<svg version="1.1" viewBox="0.0 0.0 960.0 540.0" fill="none" stroke="none" stroke-linecap="square" stroke-miterlimit="10" xmlns:xlink="http://www.w3.org/1999/xlink" xmlns="http://www.w3.org/2000/svg"><clipPath id="p.0"><path d="m0 0l960.0 0l0 540.0l-960.0 0l0 -540.0z" clip-rule="nonzero"/></clipPath><g clip-path="url(#p.0)"><path fill="#000000" fill-opacity="0.0" d="m0 0l960.0 0l0 540.0l-960.0 0z" fill-rule="evenodd"/><path fill="#000000" d="m0 0l960.0 0l0 540.0l-960.0 0z" fill-rule="evenodd"/><path stroke="#274e13" stroke-width="24.0" stroke-linejoin="round" stroke-linecap="butt" d="m0 0l960.0 0l0 540.0l-960.0 0z" fill-rule="evenodd"/><path fill="#000000" fill-opacity="0.0" d="m0 136.72966l960.0 0l0 275.55908l-960.0 0z" fill-rule="evenodd"/><path fill="#ff6100" d="m76.29291 186.43779l22.390625 0l0 82.17186l-22.390625 0l0 -82.17186zm7.421875 82.17186l0 -15.999985l40.4375 0l0 15.999985l-40.4375 0zm45.57013 -82.17186l22.390625 0l0 82.17186l-22.390625 0l0 -82.17186zm45.5625 32.765625l0 16.0l-35.96875 0l0 -16.0l35.96875 0zm3.71875 -32.765625l0 16.0l-41.34375 0l0 -16.0l41.34375 0zm1.140625 66.171875l0 15.999985l-42.484375 0l0 -15.999985l42.484375 0zm45.95639 -66.171875l23.296875 0l-20.21875 82.17186l-25.984375 0l-20.234375 -82.17186l23.296875 0l9.859375 54.90625l9.984375 -54.90625zm29.317764 0l22.39064 0l0 82.17186l-22.39064 0l0 -82.17186zm45.562515 32.765625l0 16.0l-35.96875 0l0 -16.0l35.96875 0zm3.71875 -32.765625l0 16.0l-41.34375 0l0 -16.0l41.34375 0zm1.140625 66.171875l0 15.999985l-42.484375 0l0 -15.999985l42.484375 0zm7.05011 -66.171875l22.390625 0l0 82.17186l-22.390625 0l0 -82.17186zm7.421875 82.17186l0 -15.999985l40.4375 0l0 15.999985l-40.4375 0zm92.920135 -64.64061l0 47.109375q0 1.40625 0.765625 2.109375q0.78125 0.703125 2.4375 0.703125l3.328125 0l0 14.718735l-10.109375 0q-10.234375 0 -14.53125 -4.34375q-4.28125 -4.359375 -4.28125 -11.531235l0 -50.421875q0 -7.171875 4.28125 -11.515625q4.296875 -4.359375 14.53125 -4.359375l10.109375 0l0 14.71875l-3.328125 0q-1.65625 0 -2.4375 0.703125q-0.765625 0.703125 -0.765625 2.109375zm10.890625 13.1875l0 -13.1875q0 -1.40625 -0.78125 -2.109375q-0.765625 -0.703125 -2.421875 -0.703125l-3.328125 0l0 -14.71875l10.109375 0q10.234375 0 14.515625 4.359375q4.296875 4.34375 4.296875 11.515625l0 14.84375l-22.390625 0zm0 33.921875l0 -12.671875l22.390625 0l0 14.328125q0 7.1718597 -4.296875 11.531235q-4.28125 4.34375 -14.515625 4.34375l-10.109375 0l0 -14.718735l3.328125 0q1.65625 0 2.421875 -0.703125q0.78125 -0.703125 0.78125 -2.109375zm64.50064 -30.34375l0 -15.484375q0 -1.40625 -0.765625 -2.109375q-0.765625 -0.703125 -2.421875 -0.703125l-4.234375 0l0 -16.0l11.015625 0q10.234375 0 14.515625 4.359375q4.296875 4.34375 4.296875 11.515625l0 18.421875l-22.40625 0zm0 29.0625l0 -30.71875l22.40625 0l0 33.65625q0 7.1718597 -4.296875 11.531235q-4.28125 4.34375 -14.515625 4.34375l-11.015625 0l0 -15.999985l4.234375 0q1.65625 0 2.421875 -0.703125q0.765625 -0.703125 0.765625 -2.109375zm-11.765625 -44.546875l0 15.484375l-22.40625 0l0 -18.421875q0 -7.171875 4.28125 -11.515625q4.296875 -4.359375 14.53125 -4.359375l11.015625 0l0 16.0l-4.21875 0q-1.671875 0 -2.4375 0.703125q-0.765625 0.703125 -0.765625 2.109375zm0 13.828125l0 30.71875q0 1.40625 0.765625 2.109375q0.765625 0.703125 2.4375 0.703125l4.21875 0l0 15.999985l-11.015625 0q-10.234375 0 -14.53125 -4.34375q-4.28125 -4.359375 -4.28125 -11.531235l0 -33.65625l22.40625 0zm89.46991 31.734375l-15.359375 0l-10.109375 -34.171875l0 51.968735l-19.96875 0l0 -82.17186l24.4375 0l13.3125 43.90625l13.3125 -43.90625l24.453125 0l0 82.17186l-19.84375 0l0 -52.218735l-10.234375 34.421875zm74.74432 -27.90625l0 -17.65625q0 -1.40625 -0.765625 -2.109375q-0.765625 -0.703125 -2.421875 -0.703125l-23.8125 0l0 -16.0l30.59375 0q10.234375 0 14.515625 4.359375q4.296875 4.34375 4.296875 11.515625l0 23.546875q0 7.171875 -4.296875 11.53125q-4.28125 4.34375 -14.515625 4.34375l-30.59375 0l0 -16.0l23.8125 0q1.65625 0 2.421875 -0.703125q0.765625 -0.703125 0.765625 -2.125zm-34.421875 -36.46875l22.390625 0l0 82.17186l-22.390625 0l0 -82.17186zm64.512024 0l22.390625 0l0 82.17186l-22.390625 0l0 -82.17186zm7.421875 82.17186l0 -15.999985l40.4375 0l0 15.999985l-40.4375 0zm45.57013 -82.17186l22.390625 0l0 82.17186l-22.390625 0l0 -82.17186zm45.5625 32.765625l0 16.0l-35.96875 0l0 -16.0l35.96875 0zm3.71875 -32.765625l0 16.0l-41.34375 0l0 -16.0l41.34375 0zm1.140625 66.171875l0 15.999985l-42.484375 0l0 -15.999985l42.484375 0zm18.315796 -58.5l22.390625 0l0 74.499985l-22.390625 0l0 -74.499985zm38.265625 -7.671875l0 16.0l-54.015625 0l0 -16.0l54.015625 0zm5.7647705 0l22.390625 0l0 82.17186l-22.390625 0l0 -82.17186zm45.5625 32.765625l0 16.0l-35.96875 0l0 -16.0l35.96875 0zm3.71875 -32.765625l0 16.0l-41.34375 0l0 -16.0l41.34375 0zm1.140625 66.171875l0 15.999985l-42.484375 0l0 -15.999985l42.484375 0z" fill-rule="nonzero"/><path fill="#ffff00" d="m257.28714 346.69153l0 7.9375l-20.546875 0l0 -7.9375l20.546875 0zm7.03125 14.078125l-11.265625 0l-6.140625 -28.859375l-6.328125 28.859375l-11.015625 0l10.5625 -41.09375l13.625 0l10.5625 41.09375zm12.798798 -15.359375l-10.875 0l0 -8.640625q0 -3.578125 1.984375 -5.75q1.984375 -2.1875 6.53125 -2.1875l1.140625 0q3.015625 0 4.515625 1.609375q1.5 1.59375 1.5 4.28125l0 5.765625l-0.375 0l0 -1.734375q0 -1.03125 -0.421875 -1.46875q-0.40625 -0.453125 -1.3125 -0.453125l-1.078125 0q-0.84375 0 -1.234375 0.359375q-0.375 0.34375 -0.375 1.046875l0 7.171875zm4.421875 -27.453125l10.875 0l0 42.8125l-10.6875 0l0 -6.078125l-0.1875 0l0 -36.734375zm-15.296875 26.234375l10.875 0l0 7.171875q0 0.703125 0.375 1.0625q0.390625 0.34375 1.234375 0.34375l1.078125 0q0.90625 0 1.3125 -0.4375q0.421875 -0.453125 0.421875 -1.484375l0 -1.71875l0.375 0l0 5.75q0 2.6875 -1.5 4.296875q-1.5 1.59375 -4.515625 1.59375l-1.140625 0q-4.546875 0 -6.53125 -2.171875q-1.984375 -2.1875 -1.984375 -5.765625l0 -8.640625zm39.54657 -15.359375l3.90625 20.484375l3.84375 -20.484375l10.8125 0l-8.1875 31.9375l-13.0 0l-8.1875 -31.9375l10.8125 0zm31.360352 16.578125l-10.875 0l0 -8.640625q0 -3.578125 1.984375 -5.75q1.984375 -2.1875 6.53125 -2.1875l1.140625 0q3.015625 0 4.515625 1.609375q1.5 1.59375 1.5 4.28125l0 5.765625l-0.375 0l0 -1.734375q0 -1.03125 -0.421875 -1.46875q-0.40625 -0.453125 -1.3125 -0.453125l-1.078125 0q-0.84375 0 -1.234375 0.359375q-0.375 0.34375 -0.375 1.046875l0 7.171875zm15.296875 15.359375l-10.875 0l0 -25.859375l0.1875 0l0 -6.078125l10.6875 0l0 31.9375zm-26.171875 -16.578125l10.875 0l0 7.171875q0 0.703125 0.375 1.0625q0.390625 0.34375 1.234375 0.34375l1.078125 0q0.90625 0 1.3125 -0.4375q0.421875 -0.453125 0.421875 -1.484375l0 -1.71875l0.375 0l0 5.75q0 2.6875 -1.5 4.296875q-1.5 1.59375 -4.515625 1.59375l-1.140625 0q-4.546875 0 -6.53125 -2.171875q-1.984375 -2.1875 -1.984375 -5.765625l0 -8.640625zm42.17157 16.578125l-10.875 0l0 -31.9375l10.6875 0l0 6.078125l0.1875 0l0 25.859375zm15.296875 0l-10.875 0l0 -22.53125q0 -0.703125 -0.390625 -1.046875q-0.375 -0.359375 -1.21875 -0.359375l-1.078125 0q-0.828125 0 -1.28125 0.453125q-0.453125 0.4375 -0.453125 1.46875l0 1.734375l-0.375 0l0 -5.765625q0 -2.6875 1.5 -4.28125q1.5 -1.609375 4.515625 -1.609375l1.140625 0q4.546875 0 6.53125 2.1875q1.984375 2.171875 1.984375 5.75l0 24.0zm15.038452 -22.53125l0 13.125q0 0.703125 0.375 1.0625q0.390625 0.34375 1.234375 0.34375l1.28125 0l0 8.0l-4.359375 0q-5.125 0 -7.265625 -2.171875q-2.140625 -2.1875 -2.140625 -5.765625l0 -16.0625q0 -3.578125 2.140625 -5.75q2.140625 -2.1875 7.265625 -2.1875l4.28125 0l0 8.0l-1.203125 0q-0.84375 0 -1.234375 0.359375q-0.375 0.34375 -0.375 1.046875zm4.296875 2.953125l0 -2.953125q0 -0.703125 -0.390625 -1.046875q-0.390625 -0.359375 -1.21875 -0.359375l-0.765625 0l0 -8.0l3.453125 0q5.125 0 7.265625 2.1875q2.140625 2.171875 2.140625 5.75l0 4.421875l-10.484375 0zm0 10.171875l0 -2.953125l10.484375 0l0 4.421875q0 3.578125 -2.140625 5.765625q-2.140625 2.171875 -7.265625 2.171875l-3.453125 0l0 -8.0l0.765625 0q0.828125 0 1.21875 -0.34375q0.390625 -0.359375 0.390625 -1.0625zm25.207703 9.40625l-10.875 0l0 -31.9375l10.875 0l0 31.9375zm-11.0625 -35.140625l0 -7.671875l11.25 0l0 7.671875l-11.25 0zm27.062439 35.140625l-10.875 0l0 -31.9375l10.6875 0l0 6.078125l0.1875 0l0 25.859375zm15.296875 0l-10.875 0l0 -22.53125q0 -0.703125 -0.390625 -1.046875q-0.375 -0.359375 -1.21875 -0.359375l-1.078125 0q-0.828125 0 -1.28125 0.453125q-0.453125 0.4375 -0.453125 1.46875l0 1.734375l-0.375 0l0 -5.765625q0 -2.6875 1.5 -4.28125q1.5 -1.609375 4.515625 -1.609375l1.140625 0q4.546875 0 6.53125 2.1875q1.984375 2.171875 1.984375 5.75l0 24.0zm4.163452 -16.578125l10.875 0l0 5.25q0 0.703125 0.375 1.0625q0.390625 0.34375 1.234375 0.34375l1.078125 0q0.90625 0 1.3125 -0.4375q0.421875 -0.453125 0.421875 -1.484375l0 -1.71875l0.375 0l0 5.75q0 2.6875 -1.5 4.296875q-1.5 1.59375 -4.515625 1.59375l-1.140625 0q-4.546875 0 -6.53125 -2.171875q-1.984375 -2.171875 -1.984375 -5.765625l0 -6.71875zm10.875 1.21875l-10.875 0l0 -8.640625q0 -3.578125 1.984375 -5.75q1.984375 -2.1875 6.53125 -2.1875l1.140625 0q3.015625 0 4.515625 1.609375q1.5 1.59375 1.5 4.28125l0 5.765625l-0.375 0l0 -1.734375q0 -1.03125 -0.421875 -1.46875q-0.40625 -0.453125 -1.3125 -0.453125l-1.078125 0q-0.84375 0 -1.234375 0.359375q-0.375 0.34375 -0.375 1.046875l0 7.171875zm4.421875 14.53125l0 -1.796875l10.875 0l0 2.9375q0 3.59375 -2.140625 5.765625q-2.140625 2.171875 -7.265625 2.171875l-15.296875 0l0 -7.671875l12.21875 0q0.84375 0 1.21875 -0.359375q0.390625 -0.34375 0.390625 -1.046875zm10.875 -1.09375l-10.875 0l0 -23.9375l0.1875 0l0 -6.078125l10.6875 0l0 30.015625zm31.674683 -6.53125l0 -2.5625q0 -0.703125 -0.390625 -1.046875q-0.375 -0.359375 -1.203125 -0.359375l-3.90625 0q-5.1093445 0 -7.1718445 -2.140625q-2.046875 -2.140625 -2.046875 -5.71875l0 -3.71875q0 -3.578125 2.140625 -5.75q2.15625 -2.1875 7.2812195 -2.1875l5.9375 0q5.125 0 7.265625 2.1875q2.15625 2.171875 2.15625 5.75l0 2.6875l-10.375 0l0 -2.171875q0 -0.703125 -0.390625 -1.046875q-0.375 -0.359375 -1.203125 -0.359375l-0.640625 0q-0.84375 0 -1.234375 0.359375q-0.375 0.34375 -0.375 1.046875l0 2.8125q0 0.703125 0.375 1.0625q0.390625 0.34375 1.234375 0.34375l3.890625 0q5.125 0 7.171875 2.109375q2.046875 2.109375 2.046875 5.703125l0 3.515625q0 3.578125 -2.140625 5.765625q-2.140625 2.171875 -7.265625 2.171875l-6.265625 0q-5.1249695 0 -7.2655945 -2.171875q-2.140625 -2.1875 -2.140625 -5.765625l0 -2.625l10.5624695 0l0 2.109375q0 0.703125 0.375 1.0625q0.390625 0.34375 1.21875 0.34375l0.765625 0q0.828125 0 1.203125 -0.34375q0.390625 -0.359375 0.390625 -1.0625zm40.901855 8.453125l-10.875 0l0 -22.53125q0 -0.703125 -0.390625 -1.046875q-0.375 -0.359375 -1.21875 -0.359375l-1.078125 0q-0.828125 0 -1.28125 0.453125q-0.453125 0.4375 -0.453125 1.46875l0 1.734375l-0.375 0l0 -5.765625q0 -2.6875 1.5 -4.28125q1.5 -1.609375 4.515625 -1.609375l1.140625 0q4.546875 0 6.53125 2.1875q1.984375 2.171875 1.984375 5.75l0 24.0zm-15.296875 0l-10.875 0l0 -42.8125l10.875 0l0 42.8125zm35.397827 -14.78125l0 -8.1875q0 -0.71875 -0.390625 -1.0625q-0.375 -0.359375 -1.21875 -0.359375l-0.953125 0l0 -7.546875l4.15625 0q5.125 0 7.109375 2.1875q1.984375 2.171875 1.984375 5.75l0 9.21875l-10.6875 0zm0 5.828125l0 -6.65625l10.6875 0l0 7.671875q0 3.578125 -1.984375 5.765625q-1.984375 2.171875 -7.109375 2.171875l-4.15625 0l0 -7.546875l0.953125 0q0.84375 0 1.21875 -0.34375q0.390625 -0.359375 0.390625 -1.0625zm-4.9375 -14.015625l0 8.1875l-10.6875 0l0 -9.21875q0 -3.578125 1.984375 -5.75q1.984375 -2.1875 7.109375 -2.1875l4.15625 0l0 7.546875l-0.953125 0q-0.828125 0 -1.21875 0.359375q-0.390625 0.34375 -0.390625 1.0625zm0 7.359375l0 6.65625q0 0.703125 0.390625 1.0625q0.390625 0.34375 1.21875 0.34375l0.953125 0l0 7.546875l-4.15625 0q-5.125 0 -7.109375 -2.171875q-1.984375 -2.1875 -1.984375 -5.765625l0 -7.671875l10.6875 0zm38.98706 -16.640625l0 9.46875l-3.65625 0q-4.03125 0 -4.03125 4.34375l0 1.734375l-0.375 0l0 -8.390625q0 -2.171875 0.828125 -3.765625q0.828125 -1.609375 2.421875 -2.5q1.609375 -0.890625 3.84375 -0.890625l0.96875 0zm-7.6875 32.25l-10.875 0l0 -31.9375l10.6875 0l0 7.359375l0.1875 -1.28125l0 25.859375zm22.721191 -38.203125l0 28.796875q0 0.703125 0.375 1.0625q0.390625 0.34375 1.21875 0.34375l2.375 0l0 8.0l-5.4375 0q-5.125 0 -7.265625 -2.171875q-2.140625 -2.1875 -2.140625 -5.765625l0 -30.265625l10.875 0zm4.03125 6.265625l0 8.0l-18.4375 0l0 -8.0l18.4375 0zm14.079468 31.9375l-10.875 0l0 -42.8125l10.875 0l0 42.8125zm2.5625 -31.9375l11.390625 0l3.90625 19.453125l3.453125 -19.453125l10.953125 0l-8.0 31.296875q-1.21875 4.15625 -3.90625 6.515625q-2.6875 2.375 -8.203125 2.375l-5.375 0l0 -7.859375l4.734375 0q1.421875 0 2.375 -0.484375q0.953125 -0.484375 1.46875 -2.078125l0.125 -0.390625l-4.15625 0l-8.765625 -29.375zm32.258423 31.9375l0 -10.5l11.0 0l0 10.5l-11.0 0zm16.128052 0l0 -10.5l11.0 0l0 10.5l-11.0 0zm16.12793 0l0 -10.5l11.0 0l0 10.5l-11.0 0z" fill-rule="nonzero"/></g></svg>