# Blender v3.3.1 OBJ File: 'pathfindtest.blend'
# www.blender.org
mtllib pathfindtest.mtl
o Cube.002_Cube.006
v -3.103352 0.357546 -3.891870
v -3.103352 4.066007 -3.891870
v -3.103352 0.357546 -4.582117
v -3.103352 4.066007 -4.582117
v 28.091127 0.357546 -3.891870
v 28.091127 4.066007 -3.891870
v 28.091127 0.357546 -4.582117
v 28.091127 4.066007 -4.582117
vt 0.978233 0.770444
vt 0.773884 0.978595
vt 0.773884 0.770444
vt 0.978233 0.978595
vt 0.773884 0.772395
vt 0.978233 0.772395
vt 0.773884 0.976745
vt 0.978233 0.976745
vt 0.773884 0.770545
vt 0.979450 0.976745
vt 0.979450 0.772395
vt 0.979209 0.772395
vt 0.978233 0.770545
vt 0.979209 0.976745
vn -1.0000 0.0000 0.0000
vn 0.0000 0.0000 -1.0000
vn 1.0000 0.0000 0.0000
vn 0.0000 0.0000 1.0000
vn 0.0000 -1.0000 0.0000
vn 0.0000 1.0000 0.0000
usemtl Material
s off
f 2/1/1 3/2/1 1/3/1
f 4/4/2 7/5/2 3/2/2
f 8/6/3 5/7/3 7/5/3
f 6/8/4 1/9/4 5/7/4
f 7/5/5 1/10/5 3/11/5
f 4/12/6 6/8/6 8/6/6
f 2/1/1 4/4/1 3/2/1
f 4/4/2 8/6/2 7/5/2
f 8/6/3 6/8/3 5/7/3
f 6/8/4 2/13/4 1/9/4
f 7/5/5 5/7/5 1/10/5
f 4/12/6 2/14/6 6/8/6
o Cube.003_Cube.007
v -38.210014 0.357546 -3.891870
v -38.210014 4.066007 -3.891870
v -38.210014 0.357546 -4.582117
v -38.210014 4.066007 -4.582117
v -7.015534 0.357546 -3.891870
v -7.015534 4.066007 -3.891870
v -7.015534 0.357546 -4.582117
v -7.015534 4.066007 -4.582117
vt 0.978233 0.770444
vt 0.773884 0.978595
vt 0.773884 0.770444
vt 0.978233 0.978595
vt 0.773884 0.772395
vt 0.978233 0.772395
vt 0.773884 0.976745
vt 0.978233 0.976745
vt 0.773884 0.770545
vt 0.979450 0.976745
vt 0.979450 0.772395
vt 0.979209 0.772395
vt 0.978233 0.770545
vt 0.979209 0.976745
vn -1.0000 0.0000 0.0000
vn 0.0000 0.0000 -1.0000
vn 1.0000 0.0000 0.0000
vn 0.0000 0.0000 1.0000
vn 0.0000 -1.0000 0.0000
vn 0.0000 1.0000 0.0000
usemtl Material
s off
f 10/15/7 11/16/7 9/17/7
f 12/18/8 15/19/8 11/16/8
f 16/20/9 13/21/9 15/19/9
f 14/22/10 9/23/10 13/21/10
f 15/19/11 9/24/11 11/25/11
f 12/26/12 14/22/12 16/20/12
f 10/15/7 12/18/7 11/16/7
f 12/18/8 16/20/8 15/19/8
f 16/20/9 14/22/9 13/21/9
f 14/22/10 10/27/10 9/23/10
f 15/19/11 13/21/11 9/24/11
f 12/26/12 10/28/12 14/22/12
o Cube.004_Cube.008
v 1.146645 -6.226464 30.097111
v 1.146645 6.226464 30.097111
v 1.146645 -6.226464 -3.354298
v 1.146645 6.226464 -3.354298
v 3.146645 -6.226464 30.097111
v 3.146645 6.226464 30.097111
v 3.146645 -6.226464 -3.354298
v 3.146645 6.226464 -3.354298
vt 0.643365 0.776739
vt 0.597791 0.822313
vt 0.597791 0.776739
vt 0.643365 0.822313
vt 0.597791 0.867887
vt 0.643365 0.867887
vt 0.597791 0.913461
vt 0.643365 0.913461
vt 0.597791 0.959035
vt 0.552217 0.913461
vt 0.552217 0.867887
vt 0.688939 0.867887
vt 0.643365 0.959035
vt 0.688939 0.913461
vn -1.0000 0.0000 0.0000
vn 0.0000 0.0000 -1.0000
vn 1.0000 0.0000 0.0000
vn 0.0000 0.0000 1.0000
vn 0.0000 -1.0000 0.0000
vn 0.0000 1.0000 0.0000
usemtl Material
s off
f 18/29/13 19/30/13 17/31/13
f 20/32/14 23/33/14 19/30/14
f 24/34/15 21/35/15 23/33/15
f 22/36/16 17/37/16 21/35/16
f 23/33/17 17/38/17 19/39/17
f 20/40/18 22/36/18 24/34/18
f 18/29/13 20/32/13 19/30/13
f 20/32/14 24/34/14 23/33/14
f 24/34/15 22/36/15 21/35/15
f 22/36/16 18/41/16 17/37/16
f 23/33/17 21/35/17 17/38/17
f 20/40/18 18/42/18 22/36/18
o zombie_Cube.013
v -18.511019 -11.678331 3.569320
v -18.511019 23.303659 3.569320
v -18.511019 -11.678331 -31.412670
v -18.511019 23.303659 -31.412670
v 16.470972 -11.678331 3.569320
v 16.470972 23.303659 3.569320
v 16.470972 -11.678331 -31.412670
v 16.470972 23.303659 -31.412670
vt 0.625000 0.000000
vt 0.375000 0.250000
vt 0.375000 0.000000
vt 0.625000 0.250000
vt 0.375000 0.500000
vt 0.625000 0.500000
vt 0.375000 0.750000
vt 0.625000 0.750000
vt 0.375000 1.000000
vt 0.125000 0.750000
vt 0.125000 0.500000
vt 0.875000 0.500000
vt 0.625000 1.000000
vt 0.875000 0.750000
vn -1.0000 0.0000 0.0000
vn 0.0000 0.0000 -1.0000
vn 1.0000 0.0000 0.0000
vn 0.0000 0.0000 1.0000
vn 0.0000 -1.0000 0.0000
vn 0.0000 1.0000 0.0000
usemtl zombiemat_Awajiba
s off
f 26/43/19 27/44/19 25/45/19
f 28/46/20 31/47/20 27/44/20
f 32/48/21 29/49/21 31/47/21
f 30/50/22 25/51/22 29/49/22
f 31/47/23 25/52/23 27/53/23
f 28/54/24 30/50/24 32/48/24
f 26/43/19 28/46/19 27/44/19
f 28/46/20 32/48/20 31/47/20
f 32/48/21 30/50/21 29/49/21
f 30/50/22 26/55/22 25/51/22
f 31/47/23 29/49/23 25/52/23
f 28/54/24 26/56/24 30/50/24
o Cube.006_Cube.014
v 33.936859 -6.226464 2.038803
v 33.936859 6.226464 2.038803
v 0.485449 -6.226464 2.038805
v 0.485449 6.226464 2.038805
v 33.936859 -6.226464 0.038803
v 33.936859 6.226464 0.038803
v 0.485449 -6.226464 0.038805
v 0.485449 6.226464 0.038805
vt 0.643365 0.776739
vt 0.597791 0.822313
vt 0.597791 0.776739
vt 0.643365 0.822313
vt 0.597791 0.867887
vt 0.643365 0.867887
vt 0.597791 0.913461
vt 0.643365 0.913461
vt 0.597791 0.959035
vt 0.552217 0.913461
vt 0.552217 0.867887
vt 0.688939 0.867887
vt 0.643365 0.959035
vt 0.688939 0.913461
vn 0.0000 0.0000 1.0000
vn -1.0000 0.0000 0.0000
vn -0.0000 0.0000 -1.0000
vn 1.0000 0.0000 0.0000
vn 0.0000 -1.0000 0.0000
vn 0.0000 1.0000 0.0000
usemtl Material.002
s off
f 34/57/25 35/58/25 33/59/25
f 36/60/26 39/61/26 35/58/26
f 40/62/27 37/63/27 39/61/27
f 38/64/28 33/65/28 37/63/28
f 39/61/29 33/66/29 35/67/29
f 36/68/30 38/64/30 40/62/30
f 34/57/25 36/60/25 35/58/25
f 36/60/26 40/62/26 39/61/26
f 40/62/27 38/64/27 37/63/27
f 38/64/28 34/69/28 33/65/28
f 39/61/29 37/63/29 33/66/29
f 36/68/30 34/70/30 38/64/30
o Cube.013_Cube.015
v 33.234367 -6.226464 21.786577
v 33.234367 6.226464 21.786577
v -0.217041 -6.226464 21.786577
v -0.217041 6.226464 21.786577
v 33.234367 -6.226464 19.786577
v 33.234367 6.226464 19.786577
v -0.217041 -6.226464 19.786577
v -0.217041 6.226464 19.786577
vt 0.643365 0.776739
vt 0.597791 0.822313
vt 0.597791 0.776739
vt 0.643365 0.822313
vt 0.597791 0.867887
vt 0.643365 0.867887
vt 0.597791 0.913461
vt 0.643365 0.913461
vt 0.597791 0.959035
vt 0.552217 0.913461
vt 0.552217 0.867887
vt 0.688939 0.867887
vt 0.643365 0.959035
vt 0.688939 0.913461
vn 0.0000 0.0000 1.0000
vn -1.0000 0.0000 0.0000
vn 0.0000 0.0000 -1.0000
vn 1.0000 0.0000 0.0000
vn 0.0000 -1.0000 0.0000
vn 0.0000 1.0000 0.0000
usemtl Material.003
s off
f 42/71/31 43/72/31 41/73/31
f 44/74/32 47/75/32 43/72/32
f 48/76/33 45/77/33 47/75/33
f 46/78/34 41/79/34 45/77/34
f 47/75/35 41/80/35 43/81/35
f 44/82/36 46/78/36 48/76/36
f 42/71/31 44/74/31 43/72/31
f 44/74/32 48/76/32 47/75/32
f 48/76/33 46/78/33 45/77/33
f 46/78/34 42/83/34 41/79/34
f 47/75/35 45/77/35 41/80/35
f 44/82/36 42/84/36 46/78/36
o Cube.014_Cube.017
v 25.148384 -6.226464 30.643492
v 25.148384 6.226464 30.643492
v 25.148384 -6.226464 -2.807917
v 25.148384 6.226464 -2.807917
v 27.148384 -6.226464 30.643492
v 27.148384 6.226464 30.643492
v 27.148384 -6.226464 -2.807917
v 27.148384 6.226464 -2.807917
vt 0.643365 0.776739
vt 0.597791 0.822313
vt 0.597791 0.776739
vt 0.643365 0.822313
vt 0.597791 0.867887
vt 0.643365 0.867887
vt 0.597791 0.913461
vt 0.643365 0.913461
vt 0.597791 0.959035
vt 0.552217 0.913461
vt 0.552217 0.867887
vt 0.688939 0.867887
vt 0.643365 0.959035
vt 0.688939 0.913461
vn -1.0000 0.0000 0.0000
vn 0.0000 0.0000 -1.0000
vn 1.0000 0.0000 0.0000
vn 0.0000 0.0000 1.0000
vn 0.0000 -1.0000 0.0000
vn 0.0000 1.0000 0.0000
usemtl Material.005
s off
f 50/85/37 51/86/37 49/87/37
f 52/88/38 55/89/38 51/86/38
f 56/90/39 53/91/39 55/89/39
f 54/92/40 49/93/40 53/91/40
f 55/89/41 49/94/41 51/95/41
f 52/96/42 54/92/42 56/90/42
f 50/85/37 52/88/37 51/86/37
f 52/88/38 56/90/38 55/89/38
f 56/90/39 54/92/39 53/91/39
f 54/92/40 50/97/40 49/93/40
f 55/89/41 53/91/41 49/94/41
f 52/96/42 50/98/42 54/92/42
o Cube
v 10.592949 0.469556 -22.026148
v 10.592949 -0.469556 -22.026148
v 10.592949 0.469556 22.026148
v 10.592949 -0.469556 22.026148
v -10.592949 0.469556 -22.026148
v -10.592949 -0.469556 -22.026148
v -10.592949 0.469556 22.026148
v -10.592949 -0.469556 22.026148
vt 0.509002 0.258469
vt 0.990110 0.735848
vt 0.990110 0.258469
vt 0.512731 0.256604
vt 0.512731 0.735848
vt 0.990110 0.260334
vt 0.512731 0.741443
vt 0.512731 0.260334
vt 0.512731 0.258469
vt 0.991975 0.735848
vt 0.991975 0.258469
vt 0.990110 0.741443
vt 0.509002 0.735848
vt 0.990110 0.256604
vn 0.0000 1.0000 0.0000
vn 0.0000 0.0000 1.0000
vn -1.0000 0.0000 0.0000
vn 0.0000 -1.0000 0.0000
vn 1.0000 0.0000 0.0000
vn 0.0000 0.0000 -1.0000
usemtl Material
s off
f 61/99/43 59/100/43 57/101/43
f 59/100/44 64/102/44 60/103/44
f 63/104/45 62/105/45 64/106/45
f 58/107/46 64/108/46 62/109/46
f 57/101/47 60/103/47 58/107/47
f 61/110/48 58/107/48 62/105/48
f 61/99/43 63/111/43 59/100/43
f 59/100/44 63/112/44 64/102/44
f 63/104/45 61/110/45 62/105/45
f 58/107/46 60/103/46 64/108/46
f 57/101/47 59/100/47 60/103/47
f 61/110/48 57/101/48 58/107/48
o Cube.001
v -27.819754 0.357546 -8.675368
v -27.819754 4.066007 -8.675368
v -27.819754 0.357546 -9.365615
v -27.819754 4.066007 -9.365615
v 3.374725 0.357546 -8.675368
v 3.374725 4.066007 -8.675368
v 3.374725 0.357546 -9.365615
v 3.374725 4.066007 -9.365615
vt 0.978233 0.770444
vt 0.773884 0.978595
vt 0.773884 0.770444
vt 0.978233 0.978595
vt 0.773884 0.772395
vt 0.978233 0.772395
vt 0.773884 0.976745
vt 0.978233 0.976745
vt 0.773884 0.770545
vt 0.979450 0.976745
vt 0.979450 0.772395
vt 0.979209 0.772395
vt 0.978233 0.770545
vt 0.979209 0.976745
vn -1.0000 0.0000 0.0000
vn 0.0000 0.0000 -1.0000
vn 1.0000 0.0000 0.0000
vn 0.0000 0.0000 1.0000
vn 0.0000 -1.0000 0.0000
vn 0.0000 1.0000 0.0000
usemtl Material
s off
f 66/113/49 67/114/49 65/115/49
f 68/116/50 71/117/50 67/114/50
f 72/118/51 69/119/51 71/117/51
f 70/120/52 65/121/52 69/119/52
f 71/117/53 65/122/53 67/123/53
f 68/124/54 70/120/54 72/118/54
f 66/113/49 68/116/49 67/114/49
f 68/116/50 72/118/50 71/117/50
f 72/118/51 70/120/51 69/119/51
f 70/120/52 66/125/52 65/121/52
f 71/117/53 69/119/53 65/122/53
f 68/124/54 66/126/54 70/120/54
o Cube.005
v 7.286908 0.357546 -8.675368
v 7.286908 4.066007 -8.675368
v 7.286908 0.357546 -9.365615
v 7.286908 4.066007 -9.365615
v 38.481388 0.357546 -8.675368
v 38.481388 4.066007 -8.675368
v 38.481388 0.357546 -9.365615
v 38.481388 4.066007 -9.365615
vt 0.978233 0.770444
vt 0.773884 0.978595
vt 0.773884 0.770444
vt 0.978233 0.978595
vt 0.773884 0.772395
vt 0.978233 0.772395
vt 0.773884 0.976745
vt 0.978233 0.976745
vt 0.773884 0.770545
vt 0.979450 0.976745
vt 0.979450 0.772395
vt 0.979209 0.772395
vt 0.978233 0.770545
vt 0.979209 0.976745
vn -1.0000 0.0000 0.0000
vn 0.0000 0.0000 -1.0000
vn 1.0000 0.0000 0.0000
vn 0.0000 0.0000 1.0000
vn 0.0000 -1.0000 0.0000
vn 0.0000 1.0000 0.0000
usemtl Material
s off
f 74/127/55 75/128/55 73/129/55
f 76/130/56 79/131/56 75/128/56
f 80/132/57 77/133/57 79/131/57
f 78/134/58 73/135/58 77/133/58
f 79/131/59 73/136/59 75/137/59
f 76/138/60 78/134/60 80/132/60
f 74/127/55 76/130/55 75/128/55
f 76/130/56 80/132/56 79/131/56
f 80/132/57 78/134/57 77/133/57
f 78/134/58 74/139/58 73/135/58
f 79/131/59 77/133/59 73/136/59
f 76/138/60 74/140/60 78/134/60
o Cube.012
v 10.592949 0.469556 -22.026148
v 10.592949 -0.469556 -22.026148
v 10.592949 0.469556 22.026148
v 10.592949 -0.469556 22.026148
v -10.592949 0.469556 -22.026148
v -10.592949 -0.469556 -22.026148
v -10.592949 0.469556 22.026148
v -10.592949 -0.469556 22.026148
vt 0.509002 0.258469
vt 0.990110 0.735848
vt 0.990110 0.258469
vt 0.512731 0.256604
vt 0.512731 0.735848
vt 0.990110 0.260334
vt 0.512731 0.741443
vt 0.512731 0.260334
vt 0.512731 0.258469
vt 0.991975 0.735848
vt 0.991975 0.258469
vt 0.990110 0.741443
vt 0.509002 0.735848
vt 0.990110 0.256604
vn 0.0000 1.0000 0.0000
vn 0.0000 0.0000 1.0000
vn -1.0000 0.0000 0.0000
vn 0.0000 -1.0000 0.0000
vn 1.0000 0.0000 0.0000
vn 0.0000 0.0000 -1.0000
usemtl hbmat
s off
f 85/141/61 83/142/61 81/143/61
f 83/142/62 88/144/62 84/145/62
f 87/146/63 86/147/63 88/148/63
f 82/149/64 88/150/64 86/151/64
f 81/143/65 84/145/65 82/149/65
f 85/152/66 82/149/66 86/147/66
f 85/141/61 87/153/61 83/142/61
f 83/142/62 87/154/62 88/144/62
f 87/146/63 85/152/63 86/147/63
f 82/149/64 84/145/64 88/150/64
f 81/143/65 83/142/65 84/145/65
f 85/152/66 81/143/66 82/149/66
o Cube.007_Cube.018
v 25.148384 -6.226464 30.643492
v 25.148384 6.226464 30.643492
v 25.148384 -6.226464 -2.807917
v 25.148384 6.226464 -2.807917
v 27.148384 -6.226464 30.643492
v 27.148384 6.226464 30.643492
v 27.148384 -6.226464 -2.807917
v 27.148384 6.226464 -2.807917
vt 0.643365 0.776739
vt 0.597791 0.822313
vt 0.597791 0.776739
vt 0.643365 0.822313
vt 0.597791 0.867887
vt 0.643365 0.867887
vt 0.597791 0.913461
vt 0.643365 0.913461
vt 0.597791 0.959035
vt 0.552217 0.913461
vt 0.552217 0.867887
vt 0.688939 0.867887
vt 0.643365 0.959035
vt 0.688939 0.913461
vn -1.0000 0.0000 0.0000
vn 0.0000 0.0000 -1.0000
vn 1.0000 0.0000 0.0000
vn 0.0000 0.0000 1.0000
vn 0.0000 -1.0000 0.0000
vn 0.0000 1.0000 0.0000
usemtl hbmat
s off
f 90/155/67 91/156/67 89/157/67
f 92/158/68 95/159/68 91/156/68
f 96/160/69 93/161/69 95/159/69
f 94/162/70 89/163/70 93/161/70
f 95/159/71 89/164/71 91/165/71
f 92/166/72 94/162/72 96/160/72
f 90/155/67 92/158/67 91/156/67
f 92/158/68 96/160/68 95/159/68
f 96/160/69 94/162/69 93/161/69
f 94/162/70 90/167/70 89/163/70
f 95/159/71 93/161/71 89/164/71
f 92/166/72 90/168/72 94/162/72
o Cube.008_Cube.019
v 33.234367 -6.226464 21.786577
v 33.234367 6.226464 21.786577
v -0.217041 -6.226464 21.786577
v -0.217041 6.226464 21.786577
v 33.234367 -6.226464 19.786577
v 33.234367 6.226464 19.786577
v -0.217041 -6.226464 19.786577
v -0.217041 6.226464 19.786577
vt 0.643365 0.776739
vt 0.597791 0.822313
vt 0.597791 0.776739
vt 0.643365 0.822313
vt 0.597791 0.867887
vt 0.643365 0.867887
vt 0.597791 0.913461
vt 0.643365 0.913461
vt 0.597791 0.959035
vt 0.552217 0.913461
vt 0.552217 0.867887
vt 0.688939 0.867887
vt 0.643365 0.959035
vt 0.688939 0.913461
vn 0.0000 0.0000 1.0000
vn -1.0000 0.0000 0.0000
vn 0.0000 0.0000 -1.0000
vn 1.0000 0.0000 0.0000
vn 0.0000 -1.0000 0.0000
vn 0.0000 1.0000 0.0000
usemtl hbmat
s off
f 98/169/73 99/170/73 97/171/73
f 100/172/74 103/173/74 99/170/74
f 104/174/75 101/175/75 103/173/75
f 102/176/76 97/177/76 101/175/76
f 103/173/77 97/178/77 99/179/77
f 100/180/78 102/176/78 104/174/78
f 98/169/73 100/172/73 99/170/73
f 100/172/74 104/174/74 103/173/74
f 104/174/75 102/176/75 101/175/75
f 102/176/76 98/181/76 97/177/76
f 103/173/77 101/175/77 97/178/77
f 100/180/78 98/182/78 102/176/78
o Cube.009_Cube.020
v 33.936859 -6.226464 2.038803
v 33.936859 6.226464 2.038803
v 0.485449 -6.226464 2.038805
v 0.485449 6.226464 2.038805
v 33.936859 -6.226464 0.038803
v 33.936859 6.226464 0.038803
v 0.485449 -6.226464 0.038805
v 0.485449 6.226464 0.038805
vt 0.643365 0.776739
vt 0.597791 0.822313
vt 0.597791 0.776739
vt 0.643365 0.822313
vt 0.597791 0.867887
vt 0.643365 0.867887
vt 0.597791 0.913461
vt 0.643365 0.913461
vt 0.597791 0.959035
vt 0.552217 0.913461
vt 0.552217 0.867887
vt 0.688939 0.867887
vt 0.643365 0.959035
vt 0.688939 0.913461
vn 0.0000 0.0000 1.0000
vn -1.0000 0.0000 0.0000
vn -0.0000 0.0000 -1.0000
vn 1.0000 0.0000 0.0000
vn 0.0000 -1.0000 0.0000
vn 0.0000 1.0000 0.0000
usemtl hbmat
s off
f 106/183/79 107/184/79 105/185/79
f 108/186/80 111/187/80 107/184/80
f 112/188/81 109/189/81 111/187/81
f 110/190/82 105/191/82 109/189/82
f 111/187/83 105/192/83 107/193/83
f 108/194/84 110/190/84 112/188/84
f 106/183/79 108/186/79 107/184/79
f 108/186/80 112/188/80 111/187/80
f 112/188/81 110/190/81 109/189/81
f 110/190/82 106/195/82 105/191/82
f 111/187/83 109/189/83 105/192/83
f 108/194/84 106/196/84 110/190/84
o Cube.010_Cube.021
v 7.286908 0.357546 -8.675368
v 7.286908 4.066007 -8.675368
v 7.286908 0.357546 -9.365615
v 7.286908 4.066007 -9.365615
v 38.481388 0.357546 -8.675368
v 38.481388 4.066007 -8.675368
v 38.481388 0.357546 -9.365615
v 38.481388 4.066007 -9.365615
vt 0.978233 0.770444
vt 0.773884 0.978595
vt 0.773884 0.770444
vt 0.978233 0.978595
vt 0.773884 0.772395
vt 0.978233 0.772395
vt 0.773884 0.976745
vt 0.978233 0.976745
vt 0.773884 0.770545
vt 0.979450 0.976745
vt 0.979450 0.772395
vt 0.979209 0.772395
vt 0.978233 0.770545
vt 0.979209 0.976745
vn -1.0000 0.0000 0.0000
vn 0.0000 0.0000 -1.0000
vn 1.0000 0.0000 0.0000
vn 0.0000 0.0000 1.0000
vn 0.0000 -1.0000 0.0000
vn 0.0000 1.0000 0.0000
usemtl hbmat
s off
f 114/197/85 115/198/85 113/199/85
f 116/200/86 119/201/86 115/198/86
f 120/202/87 117/203/87 119/201/87
f 118/204/88 113/205/88 117/203/88
f 119/201/89 113/206/89 115/207/89
f 116/208/90 118/204/90 120/202/90
f 114/197/85 116/200/85 115/198/85
f 116/200/86 120/202/86 119/201/86
f 120/202/87 118/204/87 117/203/87
f 118/204/88 114/209/88 113/205/88
f 119/201/89 117/203/89 113/206/89
f 116/208/90 114/210/90 118/204/90
o Cube.011_Cube.022
v 1.146645 -6.226464 30.097111
v 1.146645 6.226464 30.097111
v 1.146645 -6.226464 -3.354298
v 1.146645 6.226464 -3.354298
v 3.146645 -6.226464 30.097111
v 3.146645 6.226464 30.097111
v 3.146645 -6.226464 -3.354298
v 3.146645 6.226464 -3.354298
vt 0.643365 0.776739
vt 0.597791 0.822313
vt 0.597791 0.776739
vt 0.643365 0.822313
vt 0.597791 0.867887
vt 0.643365 0.867887
vt 0.597791 0.913461
vt 0.643365 0.913461
vt 0.597791 0.959035
vt 0.552217 0.913461
vt 0.552217 0.867887
vt 0.688939 0.867887
vt 0.643365 0.959035
vt 0.688939 0.913461
vn -1.0000 0.0000 0.0000
vn 0.0000 0.0000 -1.0000
vn 1.0000 0.0000 0.0000
vn 0.0000 0.0000 1.0000
vn 0.0000 -1.0000 0.0000
vn 0.0000 1.0000 0.0000
usemtl hbmat
s off
f 122/211/91 123/212/91 121/213/91
f 124/214/92 127/215/92 123/212/92
f 128/216/93 125/217/93 127/215/93
f 126/218/94 121/219/94 125/217/94
f 127/215/95 121/220/95 123/221/95
f 124/222/96 126/218/96 128/216/96
f 122/211/91 124/214/91 123/212/91
f 124/214/92 128/216/92 127/215/92
f 128/216/93 126/218/93 125/217/93
f 126/218/94 122/223/94 121/219/94
f 127/215/95 125/217/95 121/220/95
f 124/222/96 122/224/96 126/218/96
o Cube.015_Cube.023
v -38.210014 0.357546 -3.891870
v -38.210014 4.066007 -3.891870
v -38.210014 0.357546 -4.582117
v -38.210014 4.066007 -4.582117
v -7.015534 0.357546 -3.891870
v -7.015534 4.066007 -3.891870
v -7.015534 0.357546 -4.582117
v -7.015534 4.066007 -4.582117
vt 0.978233 0.770444
vt 0.773884 0.978595
vt 0.773884 0.770444
vt 0.978233 0.978595
vt 0.773884 0.772395
vt 0.978233 0.772395
vt 0.773884 0.976745
vt 0.978233 0.976745
vt 0.773884 0.770545
vt 0.979450 0.976745
vt 0.979450 0.772395
vt 0.979209 0.772395
vt 0.978233 0.770545
vt 0.979209 0.976745
vn -1.0000 0.0000 0.0000
vn 0.0000 0.0000 -1.0000
vn 1.0000 0.0000 0.0000
vn 0.0000 0.0000 1.0000
vn 0.0000 -1.0000 0.0000
vn 0.0000 1.0000 0.0000
usemtl hbmat
s off
f 130/225/97 131/226/97 129/227/97
f 132/228/98 135/229/98 131/226/98
f 136/230/99 133/231/99 135/229/99
f 134/232/100 129/233/100 133/231/100
f 135/229/101 129/234/101 131/235/101
f 132/236/102 134/232/102 136/230/102
f 130/225/97 132/228/97 131/226/97
f 132/228/98 136/230/98 135/229/98
f 136/230/99 134/232/99 133/231/99
f 134/232/100 130/237/100 129/233/100
f 135/229/101 133/231/101 129/234/101
f 132/236/102 130/238/102 134/232/102
o Cube.016_Cube.024
v -3.103352 0.357546 -3.891870
v -3.103352 4.066007 -3.891870
v -3.103352 0.357546 -4.582117
v -3.103352 4.066007 -4.582117
v 28.091127 0.357546 -3.891870
v 28.091127 4.066007 -3.891870
v 28.091127 0.357546 -4.582117
v 28.091127 4.066007 -4.582117
vt 0.978233 0.770444
vt 0.773884 0.978595
vt 0.773884 0.770444
vt 0.978233 0.978595
vt 0.773884 0.772395
vt 0.978233 0.772395
vt 0.773884 0.976745
vt 0.978233 0.976745
vt 0.773884 0.770545
vt 0.979450 0.976745
vt 0.979450 0.772395
vt 0.979209 0.772395
vt 0.978233 0.770545
vt 0.979209 0.976745
vn -1.0000 0.0000 0.0000
vn 0.0000 0.0000 -1.0000
vn 1.0000 0.0000 0.0000
vn 0.0000 0.0000 1.0000
vn 0.0000 -1.0000 0.0000
vn 0.0000 1.0000 0.0000
usemtl hbmat
s off
f 138/239/103 139/240/103 137/241/103
f 140/242/104 143/243/104 139/240/104
f 144/244/105 141/245/105 143/243/105
f 142/246/106 137/247/106 141/245/106
f 143/243/107 137/248/107 139/249/107
f 140/250/108 142/246/108 144/244/108
f 138/239/103 140/242/103 139/240/103
f 140/242/104 144/244/104 143/243/104
f 144/244/105 142/246/105 141/245/105
f 142/246/106 138/251/106 137/247/106
f 143/243/107 141/245/107 137/248/107
f 140/250/108 138/252/108 142/246/108
o Cube.017_Cube.025
v -27.819754 0.357546 -8.675368
v -27.819754 4.066007 -8.675368
v -27.819754 0.357546 -9.365615
v -27.819754 4.066007 -9.365615
v 3.374725 0.357546 -8.675368
v 3.374725 4.066007 -8.675368
v 3.374725 0.357546 -9.365615
v 3.374725 4.066007 -9.365615
vt 0.978233 0.770444
vt 0.773884 0.978595
vt 0.773884 0.770444
vt 0.978233 0.978595
vt 0.773884 0.772395
vt 0.978233 0.772395
vt 0.773884 0.976745
vt 0.978233 0.976745
vt 0.773884 0.770545
vt 0.979450 0.976745
vt 0.979450 0.772395
vt 0.979209 0.772395
vt 0.978233 0.770545
vt 0.979209 0.976745
vn -1.0000 0.0000 0.0000
vn 0.0000 0.0000 -1.0000
vn 1.0000 0.0000 0.0000
vn 0.0000 0.0000 1.0000
vn 0.0000 -1.0000 0.0000
vn 0.0000 1.0000 0.0000
usemtl hbmat
s off
f 146/253/109 147/254/109 145/255/109
f 148/256/110 151/257/110 147/254/110
f 152/258/111 149/259/111 151/257/111
f 150/260/112 145/261/112 149/259/112
f 151/257/113 145/262/113 147/263/113
f 148/264/114 150/260/114 152/258/114
f 146/253/109 148/256/109 147/254/109
f 148/256/110 152/258/110 151/257/110
f 152/258/111 150/260/111 149/259/111
f 150/260/112 146/265/112 145/261/112
f 151/257/113 149/259/113 145/262/113
f 148/264/114 146/266/114 150/260/114
