# Blender v3.3.1 OBJ File: 'pathfindtest.blend'
# www.blender.org
mtllib pathfindtest.mtl
o Cube.002_Cube.006
v -3.103352 0.357546 -3.891870
v -3.103352 4.066007 -3.891870
v -3.103352 0.357546 -4.582117
v -3.103352 4.066007 -4.582117
v 28.091127 0.357546 -3.891870
v 28.091127 4.066007 -3.891870
v 28.091127 0.357546 -4.582117
v 28.091127 4.066007 -4.582117
vt 0.978233 0.770444
vt 0.773884 0.978595
vt 0.773884 0.770444
vt 0.978233 0.978595
vt 0.773884 0.772395
vt 0.978233 0.772395
vt 0.773884 0.976745
vt 0.978233 0.976745
vt 0.773884 0.770545
vt 0.979450 0.976745
vt 0.979450 0.772395
vt 0.979209 0.772395
vt 0.978233 0.770545
vt 0.979209 0.976745
vn -1.0000 0.0000 0.0000
vn 0.0000 0.0000 -1.0000
vn 1.0000 0.0000 0.0000
vn 0.0000 0.0000 1.0000
vn 0.0000 -1.0000 0.0000
vn 0.0000 1.0000 0.0000
usemtl Material.003
s off
f 2/1/1 3/2/1 1/3/1
f 4/4/2 7/5/2 3/2/2
f 8/6/3 5/7/3 7/5/3
f 6/8/4 1/9/4 5/7/4
f 7/5/5 1/10/5 3/11/5
f 4/12/6 6/8/6 8/6/6
f 2/1/1 4/4/1 3/2/1
f 4/4/2 8/6/2 7/5/2
f 8/6/3 6/8/3 5/7/3
f 6/8/4 2/13/4 1/9/4
f 7/5/5 5/7/5 1/10/5
f 4/12/6 2/14/6 6/8/6
o Cube.003_Cube.007
v -38.210014 0.357546 -3.891870
v -38.210014 4.066007 -3.891870
v -38.210014 0.357546 -4.582117
v -38.210014 4.066007 -4.582117
v -7.015534 0.357546 -3.891870
v -7.015534 4.066007 -3.891870
v -7.015534 0.357546 -4.582117
v -7.015534 4.066007 -4.582117
vt 0.978233 0.770444
vt 0.773884 0.978595
vt 0.773884 0.770444
vt 0.978233 0.978595
vt 0.773884 0.772395
vt 0.978233 0.772395
vt 0.773884 0.976745
vt 0.978233 0.976745
vt 0.773884 0.770545
vt 0.979450 0.976745
vt 0.979450 0.772395
vt 0.979209 0.772395
vt 0.978233 0.770545
vt 0.979209 0.976745
vn -1.0000 0.0000 0.0000
vn 0.0000 0.0000 -1.0000
vn 1.0000 0.0000 0.0000
vn 0.0000 0.0000 1.0000
vn 0.0000 -1.0000 0.0000
vn 0.0000 1.0000 0.0000
usemtl Material.004
s off
f 10/15/7 11/16/7 9/17/7
f 12/18/8 15/19/8 11/16/8
f 16/20/9 13/21/9 15/19/9
f 14/22/10 9/23/10 13/21/10
f 15/19/11 9/24/11 11/25/11
f 12/26/12 14/22/12 16/20/12
f 10/15/7 12/18/7 11/16/7
f 12/18/8 16/20/8 15/19/8
f 16/20/9 14/22/9 13/21/9
f 14/22/10 10/27/10 9/23/10
f 15/19/11 13/21/11 9/24/11
f 12/26/12 10/28/12 14/22/12
o Cube.004_Cube.008
v 1.146645 -6.226464 30.097111
v 1.146645 6.226464 30.097111
v 1.146645 -6.226464 -3.354298
v 1.146645 6.226464 -3.354298
v 3.146645 -6.226464 30.097111
v 3.146645 6.226464 30.097111
v 3.146645 -6.226464 -3.354298
v 3.146645 6.226464 -3.354298
vt 0.643365 0.776739
vt 0.597791 0.822313
vt 0.597791 0.776739
vt 0.643365 0.822313
vt 0.597791 0.867887
vt 0.643365 0.867887
vt 0.597791 0.913461
vt 0.643365 0.913461
vt 0.597791 0.959035
vt 0.552217 0.913461
vt 0.552217 0.867887
vt 0.688939 0.867887
vt 0.643365 0.959035
vt 0.688939 0.913461
vn -1.0000 0.0000 0.0000
vn 0.0000 0.0000 -1.0000
vn 1.0000 0.0000 0.0000
vn 0.0000 0.0000 1.0000
vn 0.0000 -1.0000 0.0000
vn 0.0000 1.0000 0.0000
usemtl Material.003
s off
f 18/29/13 19/30/13 17/31/13
f 20/32/14 23/33/14 19/30/14
f 24/34/15 21/35/15 23/33/15
f 22/36/16 17/37/16 21/35/16
f 23/33/17 17/38/17 19/39/17
f 20/40/18 22/36/18 24/34/18
f 18/29/13 20/32/13 19/30/13
f 20/32/14 24/34/14 23/33/14
f 24/34/15 22/36/15 21/35/15
f 22/36/16 18/41/16 17/37/16
f 23/33/17 21/35/17 17/38/17
f 20/40/18 18/42/18 22/36/18
o Cube
v 10.592949 0.469556 -22.026148
v 10.592949 -0.469556 -22.026148
v 10.592949 0.469556 22.026148
v 10.592949 -0.469556 22.026148
v -10.592949 0.469556 -22.026148
v -10.592949 -0.469556 -22.026148
v -10.592949 0.469556 22.026148
v -10.592949 -0.469556 22.026148
vt 0.509002 0.258469
vt 0.990110 0.735848
vt 0.990110 0.258469
vt 0.512731 0.256604
vt 0.512731 0.735848
vt 0.990110 0.260334
vt 0.512731 0.741443
vt 0.512731 0.260334
vt 0.512731 0.258469
vt 0.991975 0.735848
vt 0.991975 0.258469
vt 0.990110 0.741443
vt 0.509002 0.735848
vt 0.990110 0.256604
vn 0.0000 1.0000 0.0000
vn 0.0000 0.0000 1.0000
vn -1.0000 0.0000 0.0000
vn 0.0000 -1.0000 0.0000
vn 1.0000 0.0000 0.0000
vn 0.0000 0.0000 -1.0000
usemtl Material
s off
f 29/43/19 27/44/19 25/45/19
f 27/44/20 32/46/20 28/47/20
f 31/48/21 30/49/21 32/50/21
f 26/51/22 32/52/22 30/53/22
f 25/45/23 28/47/23 26/51/23
f 29/54/24 26/51/24 30/49/24
f 29/43/19 31/55/19 27/44/19
f 27/44/20 31/56/20 32/46/20
f 31/48/21 29/54/21 30/49/21
f 26/51/22 28/47/22 32/52/22
f 25/45/23 27/44/23 28/47/23
f 29/54/24 25/45/24 26/51/24
o Cube.001
v -27.819754 0.357546 -8.675368
v -27.819754 4.066007 -8.675368
v -27.819754 0.357546 -9.365615
v -27.819754 4.066007 -9.365615
v 3.374725 0.357546 -8.675368
v 3.374725 4.066007 -8.675368
v 3.374725 0.357546 -9.365615
v 3.374725 4.066007 -9.365615
vt 0.978233 0.770444
vt 0.773884 0.978595
vt 0.773884 0.770444
vt 0.978233 0.978595
vt 0.773884 0.772395
vt 0.978233 0.772395
vt 0.773884 0.976745
vt 0.978233 0.976745
vt 0.773884 0.770545
vt 0.979450 0.976745
vt 0.979450 0.772395
vt 0.979209 0.772395
vt 0.978233 0.770545
vt 0.979209 0.976745
vn -1.0000 0.0000 0.0000
vn 0.0000 0.0000 -1.0000
vn 1.0000 0.0000 0.0000
vn 0.0000 0.0000 1.0000
vn 0.0000 -1.0000 0.0000
vn 0.0000 1.0000 0.0000
usemtl Material
s off
f 34/57/25 35/58/25 33/59/25
f 36/60/26 39/61/26 35/58/26
f 40/62/27 37/63/27 39/61/27
f 38/64/28 33/65/28 37/63/28
f 39/61/29 33/66/29 35/67/29
f 36/68/30 38/64/30 40/62/30
f 34/57/25 36/60/25 35/58/25
f 36/60/26 40/62/26 39/61/26
f 40/62/27 38/64/27 37/63/27
f 38/64/28 34/69/28 33/65/28
f 39/61/29 37/63/29 33/66/29
f 36/68/30 34/70/30 38/64/30
o Cube.005
v 7.286908 0.357546 -8.675368
v 7.286908 4.066007 -8.675368
v 7.286908 0.357546 -9.365615
v 7.286908 4.066007 -9.365615
v 38.481388 0.357546 -8.675368
v 38.481388 4.066007 -8.675368
v 38.481388 0.357546 -9.365615
v 38.481388 4.066007 -9.365615
vt 0.978233 0.770444
vt 0.773884 0.978595
vt 0.773884 0.770444
vt 0.978233 0.978595
vt 0.773884 0.772395
vt 0.978233 0.772395
vt 0.773884 0.976745
vt 0.978233 0.976745
vt 0.773884 0.770545
vt 0.979450 0.976745
vt 0.979450 0.772395
vt 0.979209 0.772395
vt 0.978233 0.770545
vt 0.979209 0.976745
vn -1.0000 0.0000 0.0000
vn 0.0000 0.0000 -1.0000
vn 1.0000 0.0000 0.0000
vn 0.0000 0.0000 1.0000
vn 0.0000 -1.0000 0.0000
vn 0.0000 1.0000 0.0000
usemtl Material.002
s off
f 42/71/31 43/72/31 41/73/31
f 44/74/32 47/75/32 43/72/32
f 48/76/33 45/77/33 47/75/33
f 46/78/34 41/79/34 45/77/34
f 47/75/35 41/80/35 43/81/35
f 44/82/36 46/78/36 48/76/36
f 42/71/31 44/74/31 43/72/31
f 44/74/32 48/76/32 47/75/32
f 48/76/33 46/78/33 45/77/33
f 46/78/34 42/83/34 41/79/34
f 47/75/35 45/77/35 41/80/35
f 44/82/36 42/84/36 46/78/36
