# Blender v3.3.1 OBJ File: '9x19 cartridge.blend'
# www.blender.org
mtllib 9x19 cartridge.mtl
o Cylinder_Cylinder.001
v 0.052645 0.012587 -0.000188
v -0.050821 0.012587 -0.000188
v 0.052645 0.009643 0.007904
v -0.050821 0.009643 0.007904
v 0.052645 0.002186 0.012209
v -0.050821 0.002186 0.012209
v 0.052645 -0.006294 0.010714
v -0.050821 -0.006294 0.010714
v 0.052645 -0.011828 0.004118
v -0.050821 -0.011828 0.004118
v 0.052645 -0.011828 -0.004493
v -0.050821 -0.011828 -0.004493
v 0.052645 -0.006294 -0.011089
v -0.050821 -0.006294 -0.011089
v 0.052645 0.002186 -0.012584
v -0.050821 0.002186 -0.012584
v 0.052645 0.009643 -0.008279
v -0.050821 0.009643 -0.008279
v -0.041964 0.012587 -0.000188
v -0.041964 0.009643 0.007904
v -0.041964 0.002186 0.012209
v -0.041964 -0.006294 0.010714
v -0.041964 -0.011828 0.004118
v -0.041964 -0.011828 -0.004493
v -0.041964 -0.006294 -0.011089
v -0.041964 0.002186 -0.012584
v -0.041964 0.009643 -0.008279
v -0.046230 0.008078 -0.000188
v -0.046230 0.006188 0.005005
v -0.046230 0.001403 0.007768
v -0.046230 -0.004039 0.006809
v -0.046230 -0.007591 0.002575
v -0.046230 -0.007591 -0.002951
v -0.046230 -0.004039 -0.007184
v -0.046230 0.001403 -0.008143
v -0.046230 0.006188 -0.005380
vt 1.000000 0.977817
vt 1.000000 1.000000
vt 0.888889 1.000000
vt 0.888889 0.977817
vt 0.777778 1.000000
vt 0.777778 0.977817
vt 0.666667 1.000000
vt 0.666667 0.977817
vt 0.555556 1.000000
vt 0.555556 0.977817
vt 0.444444 1.000000
vt 0.444444 0.977817
vt 0.333333 1.000000
vt 0.333333 0.977817
vt 0.222222 1.000000
vt 0.222222 0.977817
vt 0.404269 0.433851
vt 0.250000 0.490000
vt 0.095731 0.433851
vt 0.013646 0.291676
vt 0.042154 0.130000
vt 0.167915 0.024474
vt 0.332085 0.024474
vt 0.457846 0.130000
vt 0.486354 0.291676
vt 0.111111 1.000000
vt 0.111111 0.977817
vt 0.000000 1.000000
vt 0.000000 0.977817
vt 0.750000 0.490000
vt 0.904269 0.433851
vt 0.986354 0.291676
vt 0.957846 0.130000
vt 0.832085 0.024474
vt 0.667915 0.024474
vt 0.542154 0.130000
vt 0.513646 0.291676
vt 0.595731 0.433851
vt 0.111111 0.500000
vt 0.111111 0.957197
vt 0.000000 0.957197
vt 0.000000 0.500000
vt 0.222222 0.500000
vt 0.222222 0.957197
vt 0.333333 0.500000
vt 0.333333 0.957197
vt 0.444444 0.500000
vt 0.444444 0.957197
vt 0.555556 0.500000
vt 0.555556 0.957197
vt 0.666667 0.500000
vt 0.666667 0.957197
vt 0.777778 0.500000
vt 0.777778 0.957197
vt 0.888889 0.500000
vt 0.888889 0.957197
vt 1.000000 0.500000
vt 1.000000 0.957197
vn 0.6783 0.6905 0.2513
vn 0.6783 0.3674 0.6364
vn 0.6783 -0.1276 0.7236
vn 0.6783 -0.5629 0.4723
vn 0.6783 -0.7348 0.0000
vn 0.6783 -0.5629 -0.4723
vn 0.6783 -0.1276 -0.7236
vn -1.0000 -0.0000 0.0000
vn 0.6783 0.3674 -0.6364
vn 0.6783 0.6905 -0.2513
vn 1.0000 -0.0000 0.0000
vn -0.0000 0.9397 -0.3420
vn 0.0000 0.5000 -0.8660
vn 0.0000 -0.1736 -0.9848
vn 0.0000 -0.7660 -0.6428
vn 0.0000 -1.0000 0.0000
vn 0.0000 -0.7660 0.6428
vn -0.0000 -0.1736 0.9848
vn -0.0000 0.5000 0.8660
vn -0.0000 0.9397 0.3420
vn -0.7046 0.6668 -0.2427
vn -0.7046 0.3548 -0.6145
vn -0.7046 -0.1232 -0.6988
vn -0.7046 -0.5436 -0.4561
vn -0.7046 -0.7096 0.0000
vn -0.7046 -0.5436 0.4561
vn -0.7046 -0.1232 0.6988
vn -0.7046 0.3548 0.6145
vn -0.7046 0.6668 0.2427
usemtl Material
s off
f 28/1/1 2/2/1 4/3/1 29/4/1
f 29/4/2 4/3/2 6/5/2 30/6/2
f 30/6/3 6/5/3 8/7/3 31/8/3
f 31/8/4 8/7/4 10/9/4 32/10/4
f 32/10/5 10/9/5 12/11/5 33/12/5
f 33/12/6 12/11/6 14/13/6 34/14/6
f 34/14/7 14/13/7 16/15/7 35/16/7
f 4/17/8 2/18/8 18/19/8 16/20/8 14/21/8 12/22/8 10/23/8 8/24/8 6/25/8
f 35/16/9 16/15/9 18/26/9 36/27/9
f 36/27/10 18/26/10 2/28/10 28/29/10
f 1/30/11 3/31/11 5/32/11 7/33/11 9/34/11 11/35/11 13/36/11 15/37/11 17/38/11
f 17/39/12 27/40/12 19/41/12 1/42/12
f 15/43/13 26/44/13 27/40/13 17/39/13
f 13/45/14 25/46/14 26/44/14 15/43/14
f 11/47/15 24/48/15 25/46/15 13/45/15
f 9/49/16 23/50/16 24/48/16 11/47/16
f 7/51/17 22/52/17 23/50/17 9/49/17
f 5/53/18 21/54/18 22/52/18 7/51/18
f 3/55/19 20/56/19 21/54/19 5/53/19
f 1/57/20 19/58/20 20/56/20 3/55/20
f 27/40/21 36/27/21 28/29/21 19/41/21
f 26/44/22 35/16/22 36/27/22 27/40/22
f 25/46/23 34/14/23 35/16/23 26/44/23
f 24/48/24 33/12/24 34/14/24 25/46/24
f 23/50/25 32/10/25 33/12/25 24/48/25
f 22/52/26 31/8/26 32/10/26 23/50/26
f 21/54/27 30/6/27 31/8/27 22/52/27
f 20/56/28 29/4/28 30/6/28 21/54/28
f 19/58/29 28/1/29 29/4/29 20/56/29
o Plane
v -0.051419 -0.005535 -0.005723
v -0.051419 -0.005535 0.005348
v -0.051419 0.005535 -0.005723
v -0.051419 0.005535 0.005348
vt 0.000000 0.000000
vt 1.000000 0.000000
vt 1.000000 1.000000
vt 0.000000 1.000000
vn -1.0000 0.0000 0.0000
usemtl Material.001
s off
f 37/59/30 38/60/30 40/61/30 39/62/30
