# Blender v3.3.1 OBJ File: 'GL gun.blend'
# www.blender.org
mtllib GL gun.mtl
o Cube_Cube.006
v -0.635877 -0.189553 -0.674063
v -0.635877 -0.637217 -0.674063
v -0.612442 -0.189553 -0.727347
v -0.612442 -0.637217 -0.727347
v -0.582593 -0.189553 -0.650628
v -0.582593 -0.637217 -0.650628
v -0.559158 -0.189553 -0.703912
v -0.559158 -0.637217 -0.703912
vt 0.625000 0.000000
vt 0.375000 0.000000
vt 0.375000 0.250000
vt 0.625000 0.250000
vt 0.375000 0.500000
vt 0.625000 0.500000
vt 0.375000 0.750000
vt 0.625000 0.750000
vt 0.375000 1.000000
vt 0.125000 0.500000
vt 0.125000 0.750000
vt 0.875000 0.500000
vt 0.625000 1.000000
vt 0.875000 0.750000
vn -0.9154 0.0000 -0.4026
vn 0.4026 0.0000 -0.9154
vn 0.9154 0.0000 0.4026
vn -0.4026 0.0000 0.9154
vn 0.0000 1.0000 0.0000
vn 0.0000 -1.0000 0.0000
usemtl Material.007
s off
f 2/1/1 1/2/1 3/3/1
f 4/4/2 3/3/2 7/5/2
f 8/6/3 7/5/3 5/7/3
f 6/8/4 5/7/4 1/9/4
f 7/5/5 3/10/5 1/11/5
f 4/12/6 8/6/6 6/8/6
f 2/1/1 3/3/1 4/4/1
f 4/4/2 7/5/2 8/6/2
f 8/6/3 5/7/3 6/8/3
f 6/8/4 1/9/4 2/13/4
f 7/5/5 1/11/5 5/7/5
f 4/12/6 6/8/6 2/14/6
o Cube.001_Cube.009
v -0.761393 -0.376240 -0.538339
v -0.761393 -0.306339 -0.538339
v -0.488206 -0.376240 -0.880324
v -0.488206 -0.306339 -0.880324
v -0.706779 -0.376240 -0.494712
v -0.706779 -0.306339 -0.494712
v -0.433592 -0.376240 -0.836697
v -0.433592 -0.306339 -0.836697
v -0.624800 -0.207249 -0.709332
v -0.624800 -0.137348 -0.709332
v -0.570185 -0.207249 -0.665704
v -0.570185 -0.137348 -0.665704
v -0.556503 -0.179830 -0.794828
v -0.501889 -0.249731 -0.751200
v -0.556503 -0.249731 -0.794828
v -0.501889 -0.179830 -0.751200
v -0.693096 -0.248217 -0.623836
v -0.638482 -0.178317 -0.580208
v -0.693096 -0.178317 -0.623836
v -0.638482 -0.248217 -0.580208
vt 0.375000 0.187500
vt 0.625000 0.250000
vt 0.375000 0.250000
vt 0.375000 0.500000
vt 0.375000 0.687500
vt 0.625000 0.750000
vt 0.375000 0.750000
vt 0.375000 1.000000
vt 0.125000 0.750000
vt 0.125000 0.687500
vt 0.875000 0.687500
vt 0.625000 0.687500
vt 0.875000 0.562500
vt 0.625000 0.625000
vt 0.625000 0.562500
vt 0.375000 0.562500
vt 0.125000 0.625000
vt 0.125000 0.562500
vt 0.375000 0.625000
vt 0.625000 0.062500
vt 0.375000 0.125000
vt 0.375000 0.062500
vt 0.625000 0.500000
vt 0.125000 0.500000
vt 0.875000 0.500000
vt 0.625000 0.187500
vt 0.625000 0.000000
vt 0.375000 0.000000
vt 0.875000 0.625000
vt 0.625000 1.000000
vt 0.875000 0.750000
vt 0.625000 0.125000
vn -0.7813 0.0000 -0.6241
vn 0.6241 0.0000 -0.7813
vn 0.7813 0.0000 0.6241
vn -0.6241 0.0000 0.7813
vn 0.4744 -0.6497 -0.5939
vn -0.4744 0.6497 0.5939
vn 0.2259 0.9322 -0.2828
vn -0.2259 -0.9322 0.2828
vn -0.4721 -0.6542 0.5909
vn 0.4720 0.6542 -0.5909
vn -0.2188 0.9365 0.2739
vn 0.2188 -0.9365 -0.2739
vn -0.4720 -0.6542 0.5909
vn 0.2188 -0.9365 -0.2740
usemtl Material.012
s off
f 23/15/7 12/16/7 11/17/7
f 12/16/8 15/18/8 11/17/8
f 28/19/9 14/20/9 13/21/9
f 14/20/10 9/22/10 13/21/10
f 28/19/11 9/23/11 25/24/11
f 27/25/12 14/20/12 26/26/12
f 21/27/13 20/28/13 24/29/13
f 22/30/14 17/31/14 23/32/14
f 24/29/9 19/33/9 22/30/9
f 27/34/7 17/35/7 25/36/7
f 16/37/9 22/30/9 15/18/9
f 15/18/15 23/32/15 11/38/15
f 12/39/16 24/29/16 16/37/16
f 17/35/7 21/40/7 23/15/7
f 10/41/7 25/36/7 9/42/7
f 18/43/17 26/26/17 20/28/17
f 19/33/18 25/24/18 17/31/18
f 19/33/9 26/26/9 28/19/9
f 23/15/7 21/40/7 12/16/7
f 12/16/8 16/37/8 15/18/8
f 28/19/9 26/26/9 14/20/9
f 14/20/10 10/44/10 9/22/10
f 28/19/11 13/21/11 9/23/11
f 27/25/12 10/45/12 14/20/12
f 21/27/13 18/43/13 20/28/13
f 22/30/14 19/33/14 17/31/14
f 24/29/9 20/28/9 19/33/9
f 27/34/7 18/46/7 17/35/7
f 16/37/9 24/29/9 22/30/9
f 15/18/19 22/30/19 23/32/19
f 12/39/16 21/27/16 24/29/16
f 17/35/7 18/46/7 21/40/7
f 10/41/7 27/34/7 25/36/7
f 18/43/17 27/25/17 26/26/17
f 19/33/20 28/19/20 25/24/20
f 19/33/9 20/28/9 26/26/9
