# Blender v3.3.1 OBJ File: 'skybox.blend'
# www.blender.org
mtllib skybox.mtl
o Cube_Cube.001
v -0.500000 -0.500000 0.500000
v -0.500000 0.500000 0.500000
v -0.500000 -0.500000 -0.500000
v -0.500000 0.500000 -0.500000
v 0.500000 -0.500000 0.500000
v 0.500000 0.500000 0.500000
v 0.500000 -0.500000 -0.500000
v 0.500000 0.500000 -0.500000
v -0.572933 -0.572933 -0.296650
v -0.609568 -0.609568 -0.000000
v -0.572933 -0.572933 0.296650
v -0.572933 -0.296650 0.572933
v -0.609568 -0.000000 0.609568
v -0.572933 0.296650 0.572933
v -0.572933 0.572933 0.296650
v -0.609568 0.609568 0.000000
v -0.572933 0.572933 -0.296650
v -0.572933 0.296650 -0.572933
v -0.609568 -0.000000 -0.609568
v -0.572933 -0.296650 -0.572933
v 0.296650 -0.572933 -0.572933
v 0.000000 -0.609568 -0.609568
v -0.296650 -0.572933 -0.572933
v -0.296650 0.572933 -0.572933
v -0.000000 0.609568 -0.609568
v 0.296650 0.572933 -0.572933
v 0.572933 0.296650 -0.572933
v 0.609568 -0.000000 -0.609568
v 0.572933 -0.296650 -0.572933
v 0.572933 -0.572933 0.296650
v 0.609568 -0.609568 0.000000
v 0.572933 -0.572933 -0.296650
v 0.572933 0.572933 -0.296650
v 0.609568 0.609568 0.000000
v 0.572933 0.572933 0.296650
v 0.572933 0.296650 0.572933
v 0.609568 -0.000000 0.609568
v 0.572933 -0.296650 0.572933
v -0.296650 -0.572933 0.572933
v -0.000000 -0.609568 0.609568
v 0.296650 -0.572933 0.572933
v 0.296650 0.572933 0.572933
v -0.000000 0.609568 0.609568
v -0.296650 0.572933 0.572933
v -0.728990 -0.316157 0.316157
v -0.781829 -0.000000 0.333140
v -0.728990 0.316157 0.316157
v -0.781829 -0.333140 -0.000000
v -0.839506 0.000000 0.000000
v -0.781829 0.333140 0.000000
v -0.728990 -0.316157 -0.316157
v -0.781829 0.000000 -0.333140
v -0.728990 0.316157 -0.316157
v -0.316157 -0.316157 -0.728990
v -0.333140 -0.000000 -0.781829
v -0.316157 0.316157 -0.728990
v 0.000000 -0.333140 -0.781829
v 0.000000 0.000000 -0.839506
v -0.000000 0.333140 -0.781829
v 0.316157 -0.316157 -0.728990
v 0.333140 0.000000 -0.781829
v 0.316157 0.316157 -0.728990
v 0.728990 -0.316157 -0.316157
v 0.781829 -0.000000 -0.333140
v 0.728990 0.316157 -0.316157
v 0.781829 -0.333140 0.000000
v 0.839506 0.000000 0.000000
v 0.781829 0.333140 -0.000000
v 0.728990 -0.316157 0.316157
v 0.781829 0.000000 0.333140
v 0.728990 0.316157 0.316157
v 0.316157 -0.316157 0.728990
v 0.333140 -0.000000 0.781829
v 0.316157 0.316157 0.728990
v -0.000000 -0.333140 0.781829
v -0.000000 0.000000 0.839506
v 0.000000 0.333140 0.781829
v -0.316157 -0.316157 0.728990
v -0.333140 0.000000 0.781829
v -0.316157 0.316157 0.728990
v -0.316157 -0.728990 -0.316157
v -0.000000 -0.781829 -0.333140
v 0.316157 -0.728990 -0.316157
v -0.333140 -0.781829 0.000000
v 0.000000 -0.839506 0.000000
v 0.333140 -0.781829 -0.000000
v -0.316157 -0.728990 0.316157
v 0.000000 -0.781829 0.333140
v 0.316157 -0.728990 0.316157
v 0.316157 0.728990 -0.316157
v 0.000000 0.781829 -0.333140
v -0.316157 0.728990 -0.316157
v 0.333140 0.781829 0.000000
v -0.000000 0.839506 0.000000
v -0.333140 0.781829 -0.000000
v 0.316157 0.728990 0.316157
v -0.000000 0.781829 0.333140
v -0.316157 0.728990 0.316157
vt 0.281644 0.033705
vt 0.312798 0.064094
vt 0.281614 0.064093
vt 0.344071 0.033707
vt 0.312858 0.033706
vt 0.281584 0.094480
vt 0.343894 0.094485
vt 0.312739 0.094482
vt 0.250430 0.003318
vt 0.250430 0.033705
vt 0.281673 0.003318
vt 0.344160 0.003318
vt 0.312917 0.003318
vt 0.375404 0.003318
vt 0.375285 0.033708
vt 0.343983 0.064096
vt 0.375049 0.094487
vt 0.374930 0.124876
vt 0.343805 0.124873
vt 0.312680 0.124870
vt 0.281555 0.124867
vt 0.250430 0.124864
vt 0.250430 0.094478
vt 0.250430 0.064091
vt 0.281584 0.093893
vt 0.312798 0.062921
vt 0.281614 0.062919
vt 0.343894 0.093898
vt 0.312739 0.093896
vt 0.281644 0.031945
vt 0.344072 0.031947
vt 0.312858 0.031946
vt 0.250430 0.093891
vt 0.375049 0.093900
vt 0.343983 0.062922
vt 0.375285 0.031947
vt 0.375404 0.000971
vt 0.344160 0.000971
vt 0.312917 0.000971
vt 0.281673 0.000971
vt 0.250430 0.000971
vt 0.250430 0.031944
vt 0.250430 0.062918
vt 0.281636 0.031948
vt 0.312794 0.062939
vt 0.281604 0.062933
vt 0.344059 0.031949
vt 0.312853 0.031949
vt 0.281582 0.093940
vt 0.343894 0.093944
vt 0.312746 0.093958
vt 0.250411 0.031946
vt 0.375235 0.031948
vt 0.343970 0.062935
vt 0.375034 0.093914
vt 0.374930 0.124880
vt 0.343838 0.125014
vt 0.312711 0.125041
vt 0.281571 0.125009
vt 0.250430 0.124867
vt 0.250397 0.093907
vt 0.250398 0.062924
vt 0.281562 0.156191
vt 0.312683 0.187443
vt 0.281557 0.187436
vt 0.343814 0.156195
vt 0.312692 0.156210
vt 0.281555 0.218703
vt 0.343805 0.218704
vt 0.312680 0.218704
vt 0.250430 0.156145
vt 0.374930 0.156154
vt 0.343807 0.187439
vt 0.374930 0.218704
vt 0.374930 0.249978
vt 0.343805 0.249978
vt 0.312680 0.249978
vt 0.281555 0.249978
vt 0.250430 0.249978
vt 0.250430 0.218701
vt 0.250430 0.187423
vt 0.156699 0.031945
vt 0.187939 0.062919
vt 0.156699 0.062919
vt 0.219178 0.031945
vt 0.187940 0.031945
vt 0.156699 0.093893
vt 0.219177 0.093895
vt 0.187940 0.093893
vt 0.125456 0.000971
vt 0.125456 0.031945
vt 0.156699 0.000971
vt 0.219186 0.000971
vt 0.187943 0.000971
vt 0.219174 0.062920
vt 0.219186 0.124868
vt 0.187943 0.124868
vt 0.156699 0.124868
vt 0.125456 0.124868
vt 0.125456 0.093893
vt 0.125456 0.062919
vt 0.406354 0.031948
vt 0.437385 0.062925
vt 0.406263 0.062925
vt 0.468529 0.031948
vt 0.437445 0.031948
vt 0.406180 0.093903
vt 0.468470 0.093902
vt 0.437327 0.093902
vt 0.406455 0.000971
vt 0.468559 0.000971
vt 0.437507 0.000971
vt 0.499610 0.000971
vt 0.499610 0.031948
vt 0.468499 0.062925
vt 0.499610 0.093902
vt 0.499610 0.124880
vt 0.468440 0.124880
vt 0.437270 0.124880
vt 0.406100 0.124880
vt 0.375127 0.062929
vt 0.375167 0.064097
vt 0.375167 0.062924
vt 0.374930 0.187429
vt 0.499610 0.062925
vn -0.8797 -0.3362 0.3362
vn -1.0000 0.0000 0.0000
vn -0.9348 -0.3553 0.0000
vn -0.8797 0.3362 0.3362
vn -0.9348 -0.0000 0.3553
vn -0.8797 -0.3362 -0.3362
vn -0.8797 0.3362 -0.3362
vn -0.9348 0.0000 -0.3553
vn -0.5774 -0.5774 0.5774
vn -0.6737 -0.6737 0.3038
vn -0.6737 -0.3038 0.6737
vn -0.6737 0.3038 0.6737
vn -0.7071 -0.0000 0.7071
vn -0.5774 0.5774 0.5774
vn -0.6737 0.6737 0.3038
vn -0.9348 0.3553 -0.0000
vn -0.6737 0.6737 -0.3038
vn -0.5774 0.5774 -0.5774
vn -0.6737 0.3038 -0.6737
vn -0.7071 -0.0000 -0.7071
vn -0.6737 -0.3038 -0.6737
vn -0.5774 -0.5774 -0.5774
vn -0.6737 -0.6737 -0.3038
vn -0.7071 -0.7071 0.0000
vn -0.3362 -0.3362 -0.8797
vn 0.0000 0.0000 -1.0000
vn 0.0000 -0.3553 -0.9348
vn -0.3362 0.3362 -0.8797
vn -0.3553 -0.0000 -0.9348
vn 0.3362 -0.3362 -0.8797
vn 0.3362 0.3362 -0.8797
vn 0.3553 0.0000 -0.9348
vn -0.3038 -0.6737 -0.6737
vn -0.3038 0.6737 -0.6737
vn 0.0000 0.3553 -0.9348
vn 0.3038 0.6737 -0.6737
vn 0.5774 0.5774 -0.5774
vn 0.6737 0.3038 -0.6737
vn 0.7071 -0.0000 -0.7071
vn 0.6737 -0.3038 -0.6737
vn 0.5774 -0.5774 -0.5774
vn 0.3038 -0.6737 -0.6737
vn 0.0000 -0.7071 -0.7071
vn 0.8797 -0.3362 -0.3362
vn 1.0000 0.0000 0.0000
vn 0.9348 -0.3553 -0.0000
vn 0.8797 0.3362 -0.3362
vn 0.9348 -0.0000 -0.3553
vn 0.8797 -0.3362 0.3362
vn 0.8797 0.3362 0.3362
vn 0.9348 0.0000 0.3553
vn 0.6737 -0.6737 -0.3038
vn 0.6737 0.6737 -0.3038
vn 0.9348 0.3553 0.0000
vn 0.6737 0.6737 0.3038
vn 0.5774 0.5774 0.5774
vn 0.6737 0.3038 0.6737
vn 0.7071 -0.0000 0.7071
vn 0.6737 -0.3038 0.6737
vn 0.5774 -0.5774 0.5774
vn 0.6737 -0.6737 0.3038
vn 0.7071 -0.7071 0.0000
vn 0.3362 -0.3362 0.8797
vn -0.0000 0.0000 1.0000
vn -0.0000 -0.3553 0.9348
vn 0.3362 0.3362 0.8797
vn 0.3553 -0.0000 0.9348
vn -0.3362 -0.3362 0.8797
vn -0.3362 0.3362 0.8797
vn -0.3553 0.0000 0.9348
vn 0.3038 -0.6737 0.6737
vn 0.3038 0.6737 0.6737
vn -0.0000 0.3553 0.9348
vn -0.3038 0.6737 0.6737
vn -0.3038 -0.6737 0.6737
vn -0.0000 -0.7071 0.7071
vn -0.3362 -0.8797 -0.3362
vn -0.0000 -1.0000 0.0000
vn -0.3553 -0.9348 0.0000
vn 0.3362 -0.8797 -0.3362
vn 0.0000 -0.9348 -0.3553
vn -0.3362 -0.8797 0.3362
vn 0.3362 -0.8797 0.3362
vn 0.0000 -0.9348 0.3553
vn 0.3553 -0.9348 0.0000
vn 0.3362 0.8797 -0.3362
vn -0.0000 1.0000 0.0000
vn 0.3553 0.9348 0.0000
vn -0.3362 0.8797 -0.3362
vn 0.0000 0.9348 -0.3553
vn 0.3362 0.8797 0.3362
vn -0.3362 0.8797 0.3362
vn -0.0000 0.9348 0.3553
vn -0.0000 0.7071 -0.7071
vn -0.3553 0.9348 -0.0000
vn -0.0000 0.7071 0.7071
vn 0.7071 0.7071 -0.0000
vn -0.7071 0.7071 -0.0000
usemtl Material.001
s 1
f 45/1/1 49/2/2 48/3/3
f 47/4/4 49/2/2 46/5/5
f 49/2/2 51/6/6 48/3/3
f 49/2/2 53/7/7 52/8/8
f 1/9/9 45/1/1 11/10/10
f 12/11/11 46/5/5 45/1/1
f 14/12/12 46/5/5 13/13/13
f 2/14/14 47/4/4 14/12/12
f 15/15/15 50/16/16 47/4/4
f 50/16/16 17/17/17 53/7/7
f 53/7/7 4/18/18 18/19/19
f 52/8/8 18/19/19 19/20/20
f 52/8/8 20/21/21 51/6/6
f 51/6/6 3/22/22 9/23/23
f 48/3/3 9/23/23 10/24/24
f 11/10/10 48/3/3 10/24/24
f 54/25/25 58/26/26 57/27/27
f 56/28/28 58/26/26 55/29/29
f 58/26/26 60/30/30 57/27/27
f 58/26/26 62/31/31 61/32/32
f 3/22/22 54/25/25 23/33/33
f 20/21/21 55/29/29 54/25/25
f 18/19/19 55/29/29 19/20/20
f 4/18/18 56/28/28 18/19/19
f 24/34/34 59/35/35 56/28/28
f 59/35/35 26/36/36 62/31/31
f 62/31/31 8/37/37 27/38/38
f 61/32/32 27/38/38 28/39/39
f 61/32/32 29/40/40 60/30/30
f 60/30/30 7/41/41 21/42/42
f 57/27/27 21/42/42 22/43/43
f 23/33/33 57/27/27 22/43/43
f 63/44/44 67/45/45 66/46/46
f 65/47/47 67/45/45 64/48/48
f 67/45/45 69/49/49 66/46/46
f 67/45/45 71/50/50 70/51/51
f 7/41/41 63/44/44 32/52/52
f 29/40/40 64/48/48 63/44/44
f 27/38/38 64/48/48 28/39/39
f 8/37/37 65/47/47 27/38/38
f 33/53/53 68/54/54 65/47/47
f 68/54/54 35/55/55 71/50/50
f 71/50/50 6/56/56 36/57/57
f 70/51/51 36/57/57 37/58/58
f 70/51/51 38/59/59 69/49/49
f 69/49/49 5/60/60 30/61/61
f 66/46/46 30/61/61 31/62/62
f 32/52/52 66/46/46 31/62/62
f 72/63/63 76/64/64 75/65/65
f 74/66/66 76/64/64 73/67/67
f 76/64/64 78/68/68 75/65/65
f 76/64/64 80/69/69 79/70/70
f 5/60/60 72/63/63 41/71/71
f 38/59/59 73/67/67 72/63/63
f 36/57/57 73/67/67 37/58/58
f 6/56/56 74/66/66 36/57/57
f 42/72/72 77/73/73 74/66/66
f 77/73/73 44/74/74 80/69/69
f 80/69/69 2/75/14 14/76/12
f 79/70/70 14/76/12 13/77/13
f 79/70/70 12/78/11 78/68/68
f 78/68/68 1/79/9 39/80/75
f 75/65/65 39/80/75 40/81/76
f 41/71/71 75/65/65 40/81/76
f 81/82/77 85/83/78 84/84/79
f 83/85/80 85/83/78 82/86/81
f 85/83/78 87/87/82 84/84/79
f 85/83/78 89/88/83 88/89/84
f 3/90/22 81/82/77 9/91/23
f 23/92/33 82/86/81 81/82/77
f 21/93/42 82/86/81 22/94/43
f 7/41/41 83/85/80 21/93/42
f 32/52/52 86/95/85 83/85/80
f 86/95/85 30/61/61 89/88/83
f 89/88/83 5/60/60 41/96/71
f 88/89/84 41/96/71 40/97/76
f 88/89/84 39/98/75 87/87/82
f 87/87/82 1/99/9 11/100/10
f 84/84/79 11/100/10 10/101/24
f 9/91/23 84/84/79 10/101/24
f 90/102/86 94/103/87 93/104/88
f 92/105/89 94/103/87 91/106/90
f 94/103/87 96/107/91 93/104/88
f 94/103/87 98/108/92 97/109/93
f 8/37/37 90/102/86 33/53/53
f 26/110/36 91/106/90 90/102/86
f 24/111/34 91/106/90 25/112/94
f 4/113/18 92/105/89 24/111/34
f 17/114/17 95/115/95 92/105/89
f 95/115/95 15/116/15 98/108/92
f 98/108/92 2/117/14 44/118/74
f 97/109/93 44/118/74 43/119/96
f 97/109/93 42/120/72 96/107/91
f 96/107/91 6/56/56 35/55/55
f 93/104/88 35/55/55 34/121/97
f 33/53/53 93/104/88 34/121/97
f 45/1/1 46/5/5 49/2/2
f 47/4/4 50/16/16 49/2/2
f 49/2/2 52/8/8 51/6/6
f 49/2/2 50/16/16 53/7/7
f 1/9/9 12/11/11 45/1/1
f 12/11/11 13/13/13 46/5/5
f 14/12/12 47/4/4 46/5/5
f 2/14/14 15/15/15 47/4/4
f 15/15/15 16/122/98 50/16/16
f 50/16/16 16/122/98 17/17/17
f 53/7/7 17/17/17 4/18/18
f 52/8/8 53/7/7 18/19/19
f 52/8/8 19/20/20 20/21/21
f 51/6/6 20/21/21 3/22/22
f 48/3/3 51/6/6 9/23/23
f 11/10/10 45/1/1 48/3/3
f 54/25/25 55/29/29 58/26/26
f 56/28/28 59/35/35 58/26/26
f 58/26/26 61/32/32 60/30/30
f 58/26/26 59/35/35 62/31/31
f 3/22/22 20/21/21 54/25/25
f 20/21/21 19/20/20 55/29/29
f 18/19/19 56/28/28 55/29/29
f 4/18/18 24/34/34 56/28/28
f 24/34/34 25/123/94 59/35/35
f 59/35/35 25/123/94 26/36/36
f 62/31/31 26/36/36 8/37/37
f 61/32/32 62/31/31 27/38/38
f 61/32/32 28/39/39 29/40/40
f 60/30/30 29/40/40 7/41/41
f 57/27/27 60/30/30 21/42/42
f 23/33/33 54/25/25 57/27/27
f 63/44/44 64/48/48 67/45/45
f 65/47/47 68/54/54 67/45/45
f 67/45/45 70/51/51 69/49/49
f 67/45/45 68/54/54 71/50/50
f 7/41/41 29/40/40 63/44/44
f 29/40/40 28/39/39 64/48/48
f 27/38/38 65/47/47 64/48/48
f 8/37/37 33/53/53 65/47/47
f 33/53/53 34/121/97 68/54/54
f 68/54/54 34/121/97 35/55/55
f 71/50/50 35/55/55 6/56/56
f 70/51/51 71/50/50 36/57/57
f 70/51/51 37/58/58 38/59/59
f 69/49/49 38/59/59 5/60/60
f 66/46/46 69/49/49 30/61/61
f 32/52/52 63/44/44 66/46/46
f 72/63/63 73/67/67 76/64/64
f 74/66/66 77/73/73 76/64/64
f 76/64/64 79/70/70 78/68/68
f 76/64/64 77/73/73 80/69/69
f 5/60/60 38/59/59 72/63/63
f 38/59/59 37/58/58 73/67/67
f 36/57/57 74/66/66 73/67/67
f 6/56/56 42/72/72 74/66/66
f 42/72/72 43/124/96 77/73/73
f 77/73/73 43/124/96 44/74/74
f 80/69/69 44/74/74 2/75/14
f 79/70/70 80/69/69 14/76/12
f 79/70/70 13/77/13 12/78/11
f 78/68/68 12/78/11 1/79/9
f 75/65/65 78/68/68 39/80/75
f 41/71/71 72/63/63 75/65/65
f 81/82/77 82/86/81 85/83/78
f 83/85/80 86/95/85 85/83/78
f 85/83/78 88/89/84 87/87/82
f 85/83/78 86/95/85 89/88/83
f 3/90/22 23/92/33 81/82/77
f 23/92/33 22/94/43 82/86/81
f 21/93/42 83/85/80 82/86/81
f 7/41/41 32/52/52 83/85/80
f 32/52/52 31/62/62 86/95/85
f 86/95/85 31/62/62 30/61/61
f 89/88/83 30/61/61 5/60/60
f 88/89/84 89/88/83 41/96/71
f 88/89/84 40/97/76 39/98/75
f 87/87/82 39/98/75 1/99/9
f 84/84/79 87/87/82 11/100/10
f 9/91/23 81/82/77 84/84/79
f 90/102/86 91/106/90 94/103/87
f 92/105/89 95/115/95 94/103/87
f 94/103/87 97/109/93 96/107/91
f 94/103/87 95/115/95 98/108/92
f 8/37/37 26/110/36 90/102/86
f 26/110/36 25/112/94 91/106/90
f 24/111/34 92/105/89 91/106/90
f 4/113/18 17/114/17 92/105/89
f 17/114/17 16/125/98 95/115/95
f 95/115/95 16/125/98 15/116/15
f 98/108/92 15/116/15 2/117/14
f 97/109/93 98/108/92 44/118/74
f 97/109/93 43/119/96 42/120/72
f 96/107/91 42/120/72 6/56/56
f 93/104/88 96/107/91 35/55/55
f 33/53/53 90/102/86 93/104/88
